<?xml version="1.0" encoding="UTF-8" standalone="no"?><svg xmlns="http://www.w3.org/2000/svg" xmlns:xlink="http://www.w3.org/1999/xlink" contentStyleType="text/css" height="509px" preserveAspectRatio="none" style="width:596px;height:509px;background:#FFFFFF;" version="1.1" viewBox="0 0 596 509" width="596px" zoomAndPan="magnify"><defs/><g><rect fill="#FFFFFF" height="257.8125" style="stroke:#181818;stroke-width:1.0;" width="10" x="336.5" y="151.3125"/><rect fill="#FFFFFF" height="30.3516" style="stroke:#181818;stroke-width:1.0;" width="10" x="556.5" y="181.6641"/><rect fill="#FFFFFF" height="30.3516" style="stroke:#181818;stroke-width:1.0;" width="10" x="556.5" y="348.4219"/><rect fill="none" height="48.7031" style="stroke:#000000;stroke-width:1.5;" width="369.5" x="10" y="270.3672"/><line style="stroke:#181818;stroke-width:0.5;stroke-dasharray:5.0,5.0;" x1="37" x2="37" y1="82.6094" y2="427.125"/><line style="stroke:#181818;stroke-width:0.5;stroke-dasharray:5.0,5.0;" x1="341.5" x2="341.5" y1="82.6094" y2="427.125"/><line style="stroke:#181818;stroke-width:0.5;stroke-dasharray:5.0,5.0;" x1="561" x2="561" y1="82.6094" y2="427.125"/><text fill="#000000" font-family="sans-serif" font-size="14" lengthAdjust="spacing" textLength="29" x="20" y="79.5332">User</text><ellipse cx="37.5" cy="13.5" fill="#E2E2F0" rx="8" ry="8" style="stroke:#181818;stroke-width:0.5;"/><path d="M37.5,21.5 L37.5,48.5 M24.5,29.5 L50.5,29.5 M37.5,48.5 L24.5,63.5 M37.5,48.5 L50.5,63.5 " fill="none" style="stroke:#181818;stroke-width:0.5;"/><text fill="#000000" font-family="sans-serif" font-size="14" lengthAdjust="spacing" textLength="29" x="20" y="440.6582">User</text><ellipse cx="37.5" cy="452.2344" fill="#E2E2F0" rx="8" ry="8" style="stroke:#181818;stroke-width:0.5;"/><path d="M37.5,460.2344 L37.5,487.2344 M24.5,468.2344 L50.5,468.2344 M37.5,487.2344 L24.5,502.2344 M37.5,487.2344 L50.5,502.2344 " fill="none" style="stroke:#181818;stroke-width:0.5;"/><rect fill="#E2E2F0" height="31.6094" rx="2.5" ry="2.5" style="stroke:#181818;stroke-width:0.5;" width="56" x="313.5" y="50"/><text fill="#000000" font-family="sans-serif" font-size="14" lengthAdjust="spacing" textLength="42" x="320.5" y="71.5332">Server</text><rect fill="#E2E2F0" height="31.6094" rx="2.5" ry="2.5" style="stroke:#181818;stroke-width:0.5;" width="56" x="313.5" y="426.125"/><text fill="#000000" font-family="sans-serif" font-size="14" lengthAdjust="spacing" textLength="42" x="320.5" y="447.6582">Server</text><text fill="#000000" font-family="sans-serif" font-size="14" lengthAdjust="spacing" textLength="61" x="528" y="79.5332">Database</text><path d="M543.5,29 C543.5,19 561.5,19 561.5,19 C561.5,19 579.5,19 579.5,29 L579.5,55 C579.5,65 561.5,65 561.5,65 C561.5,65 543.5,65 543.5,55 L543.5,29 " fill="#E2E2F0" style="stroke:#181818;stroke-width:1.5;"/><path d="M543.5,29 C543.5,39 561.5,39 561.5,39 C561.5,39 579.5,39 579.5,29 " fill="none" style="stroke:#181818;stroke-width:1.5;"/><text fill="#000000" font-family="sans-serif" font-size="14" lengthAdjust="spacing" textLength="61" x="528" y="440.6582">Database</text><path d="M543.5,453.7344 C543.5,443.7344 561.5,443.7344 561.5,443.7344 C561.5,443.7344 579.5,443.7344 579.5,453.7344 L579.5,479.7344 C579.5,489.7344 561.5,489.7344 561.5,489.7344 C561.5,489.7344 543.5,489.7344 543.5,479.7344 L543.5,453.7344 " fill="#E2E2F0" style="stroke:#181818;stroke-width:1.5;"/><path d="M543.5,453.7344 C543.5,463.7344 561.5,463.7344 561.5,463.7344 C561.5,463.7344 579.5,463.7344 579.5,453.7344 " fill="none" style="stroke:#181818;stroke-width:1.5;"/><rect fill="#FFFFFF" height="257.8125" style="stroke:#181818;stroke-width:1.0;" width="10" x="336.5" y="151.3125"/><rect fill="#FFFFFF" height="30.3516" style="stroke:#181818;stroke-width:1.0;" width="10" x="556.5" y="181.6641"/><rect fill="#FFFFFF" height="30.3516" style="stroke:#181818;stroke-width:1.0;" width="10" x="556.5" y="348.4219"/><path d="M14,97.6094 L14,123.6094 L584,123.6094 L584,107.6094 L574,97.6094 L14,97.6094 " fill="#FEFFDD" style="stroke:#181818;stroke-width:0.5;"/><path d="M574,97.6094 L574,107.6094 L584,107.6094 L574,97.6094 " fill="#FEFFDD" style="stroke:#181818;stroke-width:0.5;"/><text fill="#000000" font-family="sans-serif" font-size="13" lengthAdjust="spacing" textLength="453" x="68" y="116.1045">User must be logged in, subission is from a task page - see previous diagrams</text><polygon fill="#181818" points="324.5,147.3125,334.5,151.3125,324.5,155.3125,328.5,151.3125" style="stroke:#181818;stroke-width:1.0;"/><line style="stroke:#181818;stroke-width:1.0;" x1="37.5" x2="330.5" y1="151.3125" y2="151.3125"/><text fill="#000000" font-family="sans-serif" font-size="13" lengthAdjust="spacing" textLength="65" x="44.5" y="146.4561">Submit flag</text><polygon fill="#181818" points="544.5,177.6641,554.5,181.6641,544.5,185.6641,548.5,181.6641" style="stroke:#181818;stroke-width:1.0;"/><line style="stroke:#181818;stroke-width:1.0;" x1="346.5" x2="550.5" y1="181.6641" y2="181.6641"/><text fill="#000000" font-family="sans-serif" font-size="13" lengthAdjust="spacing" textLength="104" x="353.5" y="176.8076">Fetch task details</text><polygon fill="#181818" points="357.5,208.0156,347.5,212.0156,357.5,216.0156,353.5,212.0156" style="stroke:#181818;stroke-width:1.0;"/><line style="stroke:#181818;stroke-width:1.0;stroke-dasharray:2.0,2.0;" x1="351.5" x2="560.5" y1="212.0156" y2="212.0156"/><text fill="#000000" font-family="sans-serif" font-size="13" lengthAdjust="spacing" textLength="72" x="363.5" y="207.1592">FullTaskDoc</text><line style="stroke:#181818;stroke-width:1.0;" x1="346.5" x2="388.5" y1="242.3672" y2="242.3672"/><line style="stroke:#181818;stroke-width:1.0;" x1="388.5" x2="388.5" y1="242.3672" y2="255.3672"/><line style="stroke:#181818;stroke-width:1.0;" x1="347.5" x2="388.5" y1="255.3672" y2="255.3672"/><polygon fill="#181818" points="357.5,251.3672,347.5,255.3672,357.5,259.3672,353.5,255.3672" style="stroke:#181818;stroke-width:1.0;"/><text fill="#000000" font-family="sans-serif" font-size="13" lengthAdjust="spacing" textLength="57" x="353.5" y="237.5107">Verify flag</text><path d="M10,270.3672 L91,270.3672 L91,278.7188 L81,288.7188 L10,288.7188 L10,270.3672 " fill="#EEEEEE" style="stroke:#000000;stroke-width:1.5;"/><rect fill="none" height="48.7031" style="stroke:#000000;stroke-width:1.5;" width="369.5" x="10" y="270.3672"/><text fill="#000000" font-family="sans-serif" font-size="13" font-weight="bold" lengthAdjust="spacing" textLength="36" x="25" y="284.8623">break</text><text fill="#000000" font-family="sans-serif" font-size="11" font-weight="bold" lengthAdjust="spacing" textLength="81" x="106" y="283.7861">[Flag is invalid]</text><polygon fill="#181818" points="48.5,307.0703,38.5,311.0703,48.5,315.0703,44.5,311.0703" style="stroke:#181818;stroke-width:1.0;"/><line style="stroke:#181818;stroke-width:1.0;stroke-dasharray:2.0,2.0;" x1="42.5" x2="335.5" y1="311.0703" y2="311.0703"/><text fill="#000000" font-family="sans-serif" font-size="13" lengthAdjust="spacing" textLength="117" x="54.5" y="306.2139">Task page with error</text><polygon fill="#181818" points="544.5,344.4219,554.5,348.4219,544.5,352.4219,548.5,348.4219" style="stroke:#181818;stroke-width:1.0;"/><line style="stroke:#181818;stroke-width:1.0;" x1="346.5" x2="550.5" y1="348.4219" y2="348.4219"/><text fill="#000000" font-family="sans-serif" font-size="13" lengthAdjust="spacing" textLength="191" x="353.5" y="343.5654">Mark as solved in user document</text><polygon fill="#181818" points="357.5,374.7734,347.5,378.7734,357.5,382.7734,353.5,378.7734" style="stroke:#181818;stroke-width:1.0;"/><line style="stroke:#181818;stroke-width:1.0;stroke-dasharray:2.0,2.0;" x1="351.5" x2="560.5" y1="378.7734" y2="378.7734"/><text fill="#000000" font-family="sans-serif" font-size="13" lengthAdjust="spacing" textLength="78" x="363.5" y="373.917">UpdateResult</text><polygon fill="#181818" points="48.5,405.125,38.5,409.125,48.5,413.125,44.5,409.125" style="stroke:#181818;stroke-width:1.0;"/><line style="stroke:#181818;stroke-width:1.0;stroke-dasharray:2.0,2.0;" x1="42.5" x2="340.5" y1="409.125" y2="409.125"/><text fill="#000000" font-family="sans-serif" font-size="13" lengthAdjust="spacing" textLength="275" x="54.5" y="404.2686">Task page with success message and question</text><!--SRC=[TL4nRiCm39ohL_01oGSwT0YCR5sgk3ijCGuHMN94oaL_NobEqm1jDGW4xt1t9D5foh2-NkXMea1lPipAZcUC2fRoie8LiiQZue12hT7TwmfrEsDYKeBKwFscDQwoKn65WI2aSIGF73SWPM0HJX5Ou9ZJ10YASeOPHu8j217CcHPEHS0pZXadCHGzD0TZUjY-W8Ldi6MOME4OS3Jeb1Ui0Qon3UzsbR0dTQTLsvCY1_dXrO2Lixr9xKi8XyhhaZEU7adss-sTCXy_LxSX4vvXNyis0yS50tlpPAzwVIKVxlDyi9w0SawvZV0GxXNpkQrEKbYkcu7I5kQJAnD5_IzfFzSZq1j92Vexwj_sKfmZ4PZgrvfOTtaf95gFyAXXpHS0]--></g></svg>