<?xml version="1.0" encoding="UTF-8" standalone="no"?><svg xmlns="http://www.w3.org/2000/svg" xmlns:xlink="http://www.w3.org/1999/xlink" contentStyleType="text/css" height="1502px" preserveAspectRatio="none" style="width:740px;height:1502px;background:#FFFFFF;" version="1.1" viewBox="0 0 740 1502" width="740px" zoomAndPan="magnify"><defs/><g><rect fill="#FFFFFF" height="30.3516" style="stroke:#181818;stroke-width:1.0;" width="10" x="62.5" y="1365.5078"/><rect fill="#FFFFFF" height="184.1094" style="stroke:#181818;stroke-width:1.0;" width="10" x="366.5" y="114.9609"/><rect fill="#FFFFFF" height="407.2188" style="stroke:#181818;stroke-width:1.0;" width="10" x="366.5" y="329.4219"/><rect fill="#FFFFFF" height="292" style="stroke:#181818;stroke-width:1.0;" width="10" x="366.5" y="931.1016"/><rect fill="#FFFFFF" height="91.0547" style="stroke:#181818;stroke-width:1.0;" width="10" x="366.5" y="1274.4531"/><rect fill="#FFFFFF" height="123.4063" style="stroke:#181818;stroke-width:1.0;" width="10" x="607.5" y="145.3125"/><rect fill="#FFFFFF" height="123.4063" style="stroke:#181818;stroke-width:1.0;" width="10" x="607.5" y="359.7734"/><rect fill="#FFFFFF" height="30.3516" style="stroke:#181818;stroke-width:1.0;" width="10" x="607.5" y="538.8828"/><rect fill="#FFFFFF" height="30.3516" style="stroke:#181818;stroke-width:1.0;" width="10" x="607.5" y="961.4531"/><rect fill="#FFFFFF" height="30.3516" style="stroke:#181818;stroke-width:1.0;" width="10" x="607.5" y="1162.3984"/><rect fill="#FFFFFF" height="30.3516" style="stroke:#181818;stroke-width:1.0;" width="10" x="607.5" y="1304.8047"/><rect fill="none" height="79.0547" style="stroke:#000000;stroke-width:1.5;" width="616" x="40" y="160.3125"/><rect fill="none" height="79.0547" style="stroke:#000000;stroke-width:1.5;" width="616" x="40" y="374.7734"/><rect fill="none" height="209.1094" style="stroke:#000000;stroke-width:1.5;" width="322.5" x="333.5" y="498.1797"/><rect fill="none" height="538.8125" style="stroke:#000000;stroke-width:1.5;" width="676" x="10" y="865.0469"/><rect fill="none" height="354.7031" style="stroke:#000000;stroke-width:1.5;" width="656" x="20" y="890.3984"/><rect fill="none" height="187.9453" style="stroke:#000000;stroke-width:1.5;" width="636" x="30" y="1050.1563"/><rect fill="none" height="109.4063" style="stroke:#000000;stroke-width:1.5;" width="616" x="40" y="1121.6953"/><line style="stroke:#181818;stroke-width:0.5;stroke-dasharray:5.0,5.0;" x1="67" x2="67" y1="82.6094" y2="1420.8594"/><line style="stroke:#181818;stroke-width:0.5;stroke-dasharray:5.0,5.0;" x1="371.5" x2="371.5" y1="82.6094" y2="1420.8594"/><line style="stroke:#181818;stroke-width:0.5;stroke-dasharray:5.0,5.0;" x1="612" x2="612" y1="82.6094" y2="1420.8594"/><line style="stroke:#181818;stroke-width:0.5;stroke-dasharray:5.0,5.0;" x1="695" x2="695" y1="82.6094" y2="1420.8594"/><text fill="#000000" font-family="sans-serif" font-size="14" lengthAdjust="spacing" textLength="29" x="50" y="79.5332">User</text><ellipse cx="67.5" cy="13.5" fill="#E2E2F0" rx="8" ry="8" style="stroke:#181818;stroke-width:0.5;"/><path d="M67.5,21.5 L67.5,48.5 M54.5,29.5 L80.5,29.5 M67.5,48.5 L54.5,63.5 M67.5,48.5 L80.5,63.5 " fill="none" style="stroke:#181818;stroke-width:0.5;"/><text fill="#000000" font-family="sans-serif" font-size="14" lengthAdjust="spacing" textLength="29" x="50" y="1434.3926">User</text><ellipse cx="67.5" cy="1445.9688" fill="#E2E2F0" rx="8" ry="8" style="stroke:#181818;stroke-width:0.5;"/><path d="M67.5,1453.9688 L67.5,1480.9688 M54.5,1461.9688 L80.5,1461.9688 M67.5,1480.9688 L54.5,1495.9688 M67.5,1480.9688 L80.5,1495.9688 " fill="none" style="stroke:#181818;stroke-width:0.5;"/><rect fill="#E2E2F0" height="31.6094" rx="2.5" ry="2.5" style="stroke:#181818;stroke-width:0.5;" width="56" x="343.5" y="50"/><text fill="#000000" font-family="sans-serif" font-size="14" lengthAdjust="spacing" textLength="42" x="350.5" y="71.5332">Server</text><rect fill="#E2E2F0" height="31.6094" rx="2.5" ry="2.5" style="stroke:#181818;stroke-width:0.5;" width="56" x="343.5" y="1419.8594"/><text fill="#000000" font-family="sans-serif" font-size="14" lengthAdjust="spacing" textLength="42" x="350.5" y="1441.3926">Server</text><text fill="#000000" font-family="sans-serif" font-size="14" lengthAdjust="spacing" textLength="61" x="579" y="79.5332">Database</text><path d="M594.5,29 C594.5,19 612.5,19 612.5,19 C612.5,19 630.5,19 630.5,29 L630.5,55 C630.5,65 612.5,65 612.5,65 C612.5,65 594.5,65 594.5,55 L594.5,29 " fill="#E2E2F0" style="stroke:#181818;stroke-width:1.5;"/><path d="M594.5,29 C594.5,39 612.5,39 612.5,39 C612.5,39 630.5,39 630.5,29 " fill="none" style="stroke:#181818;stroke-width:1.5;"/><text fill="#000000" font-family="sans-serif" font-size="14" lengthAdjust="spacing" textLength="61" x="579" y="1434.3926">Database</text><path d="M594.5,1447.4688 C594.5,1437.4688 612.5,1437.4688 612.5,1437.4688 C612.5,1437.4688 630.5,1437.4688 630.5,1447.4688 L630.5,1473.4688 C630.5,1483.4688 612.5,1483.4688 612.5,1483.4688 C612.5,1483.4688 594.5,1483.4688 594.5,1473.4688 L594.5,1447.4688 " fill="#E2E2F0" style="stroke:#181818;stroke-width:1.5;"/><path d="M594.5,1447.4688 C594.5,1457.4688 612.5,1457.4688 612.5,1457.4688 C612.5,1457.4688 630.5,1457.4688 630.5,1447.4688 " fill="none" style="stroke:#181818;stroke-width:1.5;"/><rect fill="#E2E2F0" height="31.6094" rx="2.5" ry="2.5" style="stroke:#181818;stroke-width:0.5;" width="78" x="656" y="50"/><text fill="#000000" font-family="sans-serif" font-size="14" lengthAdjust="spacing" textLength="64" x="663" y="71.5332">Challenge</text><rect fill="#E2E2F0" height="31.6094" rx="2.5" ry="2.5" style="stroke:#181818;stroke-width:0.5;" width="78" x="656" y="1419.8594"/><text fill="#000000" font-family="sans-serif" font-size="14" lengthAdjust="spacing" textLength="64" x="663" y="1441.3926">Challenge</text><rect fill="#FFFFFF" height="30.3516" style="stroke:#181818;stroke-width:1.0;" width="10" x="62.5" y="1365.5078"/><rect fill="#FFFFFF" height="184.1094" style="stroke:#181818;stroke-width:1.0;" width="10" x="366.5" y="114.9609"/><rect fill="#FFFFFF" height="407.2188" style="stroke:#181818;stroke-width:1.0;" width="10" x="366.5" y="329.4219"/><rect fill="#FFFFFF" height="292" style="stroke:#181818;stroke-width:1.0;" width="10" x="366.5" y="931.1016"/><rect fill="#FFFFFF" height="91.0547" style="stroke:#181818;stroke-width:1.0;" width="10" x="366.5" y="1274.4531"/><rect fill="#FFFFFF" height="123.4063" style="stroke:#181818;stroke-width:1.0;" width="10" x="607.5" y="145.3125"/><rect fill="#FFFFFF" height="123.4063" style="stroke:#181818;stroke-width:1.0;" width="10" x="607.5" y="359.7734"/><rect fill="#FFFFFF" height="30.3516" style="stroke:#181818;stroke-width:1.0;" width="10" x="607.5" y="538.8828"/><rect fill="#FFFFFF" height="30.3516" style="stroke:#181818;stroke-width:1.0;" width="10" x="607.5" y="961.4531"/><rect fill="#FFFFFF" height="30.3516" style="stroke:#181818;stroke-width:1.0;" width="10" x="607.5" y="1162.3984"/><rect fill="#FFFFFF" height="30.3516" style="stroke:#181818;stroke-width:1.0;" width="10" x="607.5" y="1304.8047"/><polygon fill="#181818" points="354.5,110.9609,364.5,114.9609,354.5,118.9609,358.5,114.9609" style="stroke:#181818;stroke-width:1.0;"/><line style="stroke:#181818;stroke-width:1.0;" x1="67.5" x2="360.5" y1="114.9609" y2="114.9609"/><text fill="#000000" font-family="sans-serif" font-size="13" lengthAdjust="spacing" textLength="134" x="74.5" y="110.1045">Request category page</text><polygon fill="#181818" points="595.5,141.3125,605.5,145.3125,595.5,149.3125,599.5,145.3125" style="stroke:#181818;stroke-width:1.0;"/><line style="stroke:#181818;stroke-width:1.0;" x1="376.5" x2="601.5" y1="145.3125" y2="145.3125"/><text fill="#000000" font-family="sans-serif" font-size="13" lengthAdjust="spacing" textLength="129" x="383.5" y="140.4561">Fetch category details</text><path d="M40,160.3125 L121,160.3125 L121,168.6641 L111,178.6641 L40,178.6641 L40,160.3125 " fill="#EEEEEE" style="stroke:#000000;stroke-width:1.5;"/><rect fill="none" height="79.0547" style="stroke:#000000;stroke-width:1.5;" width="616" x="40" y="160.3125"/><text fill="#000000" font-family="sans-serif" font-size="13" font-weight="bold" lengthAdjust="spacing" textLength="36" x="55" y="174.8076">break</text><text fill="#000000" font-family="sans-serif" font-size="11" font-weight="bold" lengthAdjust="spacing" textLength="140" x="136" y="173.7314">[Category does not exist]</text><polygon fill="#181818" points="387.5,197.0156,377.5,201.0156,387.5,205.0156,383.5,201.0156" style="stroke:#181818;stroke-width:1.0;"/><line style="stroke:#181818;stroke-width:1.0;stroke-dasharray:2.0,2.0;" x1="381.5" x2="606.5" y1="201.0156" y2="201.0156"/><text fill="#000000" font-family="sans-serif" font-size="13" lengthAdjust="spacing" textLength="20" x="393.5" y="196.1592">null</text><polygon fill="#181818" points="78.5,227.3672,68.5,231.3672,78.5,235.3672,74.5,231.3672" style="stroke:#181818;stroke-width:1.0;"/><line style="stroke:#181818;stroke-width:1.0;stroke-dasharray:2.0,2.0;" x1="72.5" x2="365.5" y1="231.3672" y2="231.3672"/><text fill="#000000" font-family="sans-serif" font-size="13" lengthAdjust="spacing" textLength="117" x="84.5" y="226.5107">404 Not Found page</text><polygon fill="#181818" points="387.5,264.7188,377.5,268.7188,387.5,272.7188,383.5,268.7188" style="stroke:#181818;stroke-width:1.0;"/><line style="stroke:#181818;stroke-width:1.0;stroke-dasharray:2.0,2.0;" x1="381.5" x2="611.5" y1="268.7188" y2="268.7188"/><text fill="#000000" font-family="sans-serif" font-size="13" lengthAdjust="spacing" textLength="113" x="393.5" y="263.8623">Category document</text><polygon fill="#181818" points="78.5,295.0703,68.5,299.0703,78.5,303.0703,74.5,299.0703" style="stroke:#181818;stroke-width:1.0;"/><line style="stroke:#181818;stroke-width:1.0;stroke-dasharray:2.0,2.0;" x1="72.5" x2="370.5" y1="299.0703" y2="299.0703"/><text fill="#000000" font-family="sans-serif" font-size="13" lengthAdjust="spacing" textLength="127" x="84.5" y="294.2139">Render category page</text><polygon fill="#181818" points="354.5,325.4219,364.5,329.4219,354.5,333.4219,358.5,329.4219" style="stroke:#181818;stroke-width:1.0;"/><line style="stroke:#181818;stroke-width:1.0;" x1="67.5" x2="360.5" y1="329.4219" y2="329.4219"/><text fill="#000000" font-family="sans-serif" font-size="13" lengthAdjust="spacing" textLength="180" x="74.5" y="324.5654">Click on a link to a related task</text><polygon fill="#181818" points="595.5,355.7734,605.5,359.7734,595.5,363.7734,599.5,359.7734" style="stroke:#181818;stroke-width:1.0;"/><line style="stroke:#181818;stroke-width:1.0;" x1="376.5" x2="601.5" y1="359.7734" y2="359.7734"/><text fill="#000000" font-family="sans-serif" font-size="13" lengthAdjust="spacing" textLength="104" x="383.5" y="354.917">Fetch task details</text><path d="M40,374.7734 L121,374.7734 L121,383.125 L111,393.125 L40,393.125 L40,374.7734 " fill="#EEEEEE" style="stroke:#000000;stroke-width:1.5;"/><rect fill="none" height="79.0547" style="stroke:#000000;stroke-width:1.5;" width="616" x="40" y="374.7734"/><text fill="#000000" font-family="sans-serif" font-size="13" font-weight="bold" lengthAdjust="spacing" textLength="36" x="55" y="389.2686">break</text><text fill="#000000" font-family="sans-serif" font-size="11" font-weight="bold" lengthAdjust="spacing" textLength="117" x="136" y="388.1924">[Task does not exist]</text><polygon fill="#181818" points="387.5,411.4766,377.5,415.4766,387.5,419.4766,383.5,415.4766" style="stroke:#181818;stroke-width:1.0;"/><line style="stroke:#181818;stroke-width:1.0;stroke-dasharray:2.0,2.0;" x1="381.5" x2="606.5" y1="415.4766" y2="415.4766"/><text fill="#000000" font-family="sans-serif" font-size="13" lengthAdjust="spacing" textLength="20" x="393.5" y="410.6201">null</text><polygon fill="#181818" points="78.5,441.8281,68.5,445.8281,78.5,449.8281,74.5,445.8281" style="stroke:#181818;stroke-width:1.0;"/><line style="stroke:#181818;stroke-width:1.0;stroke-dasharray:2.0,2.0;" x1="72.5" x2="365.5" y1="445.8281" y2="445.8281"/><text fill="#000000" font-family="sans-serif" font-size="13" lengthAdjust="spacing" textLength="117" x="84.5" y="440.9717">404 Not Found page</text><polygon fill="#181818" points="387.5,479.1797,377.5,483.1797,387.5,487.1797,383.5,483.1797" style="stroke:#181818;stroke-width:1.0;"/><line style="stroke:#181818;stroke-width:1.0;stroke-dasharray:2.0,2.0;" x1="381.5" x2="611.5" y1="483.1797" y2="483.1797"/><text fill="#000000" font-family="sans-serif" font-size="13" lengthAdjust="spacing" textLength="70" x="393.5" y="478.3232">Task details</text><path d="M333.5,498.1797 L398.5,498.1797 L398.5,506.5313 L388.5,516.5313 L333.5,516.5313 L333.5,498.1797 " fill="#EEEEEE" style="stroke:#000000;stroke-width:1.5;"/><rect fill="none" height="209.1094" style="stroke:#000000;stroke-width:1.5;" width="322.5" x="333.5" y="498.1797"/><text fill="#000000" font-family="sans-serif" font-size="13" font-weight="bold" lengthAdjust="spacing" textLength="20" x="348.5" y="512.6748">opt</text><text fill="#000000" font-family="sans-serif" font-size="11" font-weight="bold" lengthAdjust="spacing" textLength="101" x="413.5" y="511.5986">[User is logged in]</text><polygon fill="#181818" points="595.5,534.8828,605.5,538.8828,595.5,542.8828,599.5,538.8828" style="stroke:#181818;stroke-width:1.0;"/><line style="stroke:#181818;stroke-width:1.0;" x1="376.5" x2="601.5" y1="538.8828" y2="538.8828"/><text fill="#000000" font-family="sans-serif" font-size="13" lengthAdjust="spacing" textLength="123" x="383.5" y="534.0264">Fetch user document</text><polygon fill="#181818" points="387.5,565.2344,377.5,569.2344,387.5,573.2344,383.5,569.2344" style="stroke:#181818;stroke-width:1.0;"/><line style="stroke:#181818;stroke-width:1.0;stroke-dasharray:2.0,2.0;" x1="381.5" x2="611.5" y1="569.2344" y2="569.2344"/><text fill="#000000" font-family="sans-serif" font-size="13" lengthAdjust="spacing" textLength="50" x="393.5" y="564.3779">UserDoc</text><line style="stroke:#181818;stroke-width:1.0;" x1="376.5" x2="418.5" y1="599.5859" y2="599.5859"/><line style="stroke:#181818;stroke-width:1.0;" x1="418.5" x2="418.5" y1="599.5859" y2="612.5859"/><line style="stroke:#181818;stroke-width:1.0;" x1="377.5" x2="418.5" y1="612.5859" y2="612.5859"/><polygon fill="#181818" points="387.5,608.5859,377.5,612.5859,387.5,616.5859,383.5,612.5859" style="stroke:#181818;stroke-width:1.0;"/><text fill="#000000" font-family="sans-serif" font-size="13" lengthAdjust="spacing" textLength="182" x="383.5" y="594.7295">Check if the challenge is solved</text><line style="stroke:#181818;stroke-width:1.0;" x1="376.5" x2="418.5" y1="642.9375" y2="642.9375"/><line style="stroke:#181818;stroke-width:1.0;" x1="418.5" x2="418.5" y1="642.9375" y2="655.9375"/><line style="stroke:#181818;stroke-width:1.0;" x1="377.5" x2="418.5" y1="655.9375" y2="655.9375"/><polygon fill="#181818" points="387.5,651.9375,377.5,655.9375,387.5,659.9375,383.5,655.9375" style="stroke:#181818;stroke-width:1.0;"/><text fill="#000000" font-family="sans-serif" font-size="13" lengthAdjust="spacing" textLength="217" x="383.5" y="638.0811">Check user's answers to the question</text><line style="stroke:#181818;stroke-width:1.0;" x1="376.5" x2="418.5" y1="686.2891" y2="686.2891"/><line style="stroke:#181818;stroke-width:1.0;" x1="418.5" x2="418.5" y1="686.2891" y2="699.2891"/><line style="stroke:#181818;stroke-width:1.0;" x1="377.5" x2="418.5" y1="699.2891" y2="699.2891"/><polygon fill="#181818" points="387.5,695.2891,377.5,699.2891,387.5,703.2891,383.5,699.2891" style="stroke:#181818;stroke-width:1.0;"/><text fill="#000000" font-family="sans-serif" font-size="13" lengthAdjust="spacing" textLength="195" x="383.5" y="681.4326">Check additional challenge solves</text><polygon fill="#181818" points="78.5,732.6406,68.5,736.6406,78.5,740.6406,74.5,736.6406" style="stroke:#181818;stroke-width:1.0;"/><line style="stroke:#181818;stroke-width:1.0;stroke-dasharray:2.0,2.0;" x1="72.5" x2="370.5" y1="736.6406" y2="736.6406"/><text fill="#000000" font-family="sans-serif" font-size="13" lengthAdjust="spacing" textLength="102" x="84.5" y="731.7842">Render task page</text><polygon fill="#181818" points="683,762.9922,693,766.9922,683,770.9922,687,766.9922" style="stroke:#181818;stroke-width:1.0;"/><line style="stroke:#181818;stroke-width:1.0;" x1="67.5" x2="689" y1="766.9922" y2="766.9922"/><text fill="#000000" font-family="sans-serif" font-size="13" lengthAdjust="spacing" textLength="281" x="74.5" y="762.1357">Follow the challenge link and solve the challenge</text><path d="M41,779.9922 L41,821.9922 L720,821.9922 L720,789.9922 L710,779.9922 L41,779.9922 " fill="#FEFFDD" style="stroke:#181818;stroke-width:0.5;"/><path d="M710,779.9922 L710,789.9922 L720,789.9922 L710,779.9922 " fill="#FEFFDD" style="stroke:#181818;stroke-width:0.5;"/><text fill="#000000" font-family="sans-serif" font-size="13" lengthAdjust="spacing" textLength="418" x="167" y="798.4873">Process of solving the challenge will vary between users and challenges.</text><text fill="#000000" font-family="sans-serif" font-size="13" lengthAdjust="spacing" textLength="134" x="167" y="814.8389">It may take some time.</text><polygon fill="#181818" points="78.5,846.0469,68.5,850.0469,78.5,854.0469,74.5,850.0469" style="stroke:#181818;stroke-width:1.0;"/><line style="stroke:#181818;stroke-width:1.0;stroke-dasharray:2.0,2.0;" x1="72.5" x2="694" y1="850.0469" y2="850.0469"/><text fill="#000000" font-family="sans-serif" font-size="13" lengthAdjust="spacing" textLength="25" x="84.5" y="845.1904">Flag</text><path d="M10,865.0469 L75,865.0469 L75,873.3984 L65,883.3984 L10,883.3984 L10,865.0469 " fill="#EEEEEE" style="stroke:#000000;stroke-width:1.5;"/><rect fill="none" height="538.8125" style="stroke:#000000;stroke-width:1.5;" width="676" x="10" y="865.0469"/><text fill="#000000" font-family="sans-serif" font-size="13" font-weight="bold" lengthAdjust="spacing" textLength="20" x="25" y="879.542">opt</text><text fill="#000000" font-family="sans-serif" font-size="11" font-weight="bold" lengthAdjust="spacing" textLength="101" x="90" y="878.4658">[User is logged in]</text><path d="M20,890.3984 L93,890.3984 L93,898.75 L83,908.75 L20,908.75 L20,890.3984 " fill="#EEEEEE" style="stroke:#000000;stroke-width:1.5;"/><rect fill="none" height="354.7031" style="stroke:#000000;stroke-width:1.5;" width="656" x="20" y="890.3984"/><text fill="#000000" font-family="sans-serif" font-size="13" font-weight="bold" lengthAdjust="spacing" textLength="28" x="35" y="904.8936">loop</text><polygon fill="#181818" points="354.5,927.1016,364.5,931.1016,354.5,935.1016,358.5,931.1016" style="stroke:#181818;stroke-width:1.0;"/><line style="stroke:#181818;stroke-width:1.0;" x1="67.5" x2="360.5" y1="931.1016" y2="931.1016"/><text fill="#000000" font-family="sans-serif" font-size="13" lengthAdjust="spacing" textLength="65" x="74.5" y="926.2451">Submit flag</text><polygon fill="#181818" points="595.5,957.4531,605.5,961.4531,595.5,965.4531,599.5,961.4531" style="stroke:#181818;stroke-width:1.0;"/><line style="stroke:#181818;stroke-width:1.0;" x1="376.5" x2="601.5" y1="961.4531" y2="961.4531"/><text fill="#000000" font-family="sans-serif" font-size="13" lengthAdjust="spacing" textLength="104" x="383.5" y="956.5967">Fetch task details</text><polygon fill="#181818" points="387.5,987.8047,377.5,991.8047,387.5,995.8047,383.5,991.8047" style="stroke:#181818;stroke-width:1.0;"/><line style="stroke:#181818;stroke-width:1.0;stroke-dasharray:2.0,2.0;" x1="381.5" x2="611.5" y1="991.8047" y2="991.8047"/><text fill="#000000" font-family="sans-serif" font-size="13" lengthAdjust="spacing" textLength="72" x="393.5" y="986.9482">FullTaskDoc</text><line style="stroke:#181818;stroke-width:1.0;" x1="376.5" x2="418.5" y1="1022.1563" y2="1022.1563"/><line style="stroke:#181818;stroke-width:1.0;" x1="418.5" x2="418.5" y1="1022.1563" y2="1035.1563"/><line style="stroke:#181818;stroke-width:1.0;" x1="377.5" x2="418.5" y1="1035.1563" y2="1035.1563"/><polygon fill="#181818" points="387.5,1031.1563,377.5,1035.1563,387.5,1039.1563,383.5,1035.1563" style="stroke:#181818;stroke-width:1.0;"/><text fill="#000000" font-family="sans-serif" font-size="13" lengthAdjust="spacing" textLength="57" x="383.5" y="1017.2998">Verify flag</text><path d="M30,1050.1563 L95,1050.1563 L95,1058.5078 L85,1068.5078 L30,1068.5078 L30,1050.1563 " fill="#EEEEEE" style="stroke:#000000;stroke-width:1.5;"/><rect fill="none" height="187.9453" style="stroke:#000000;stroke-width:1.5;" width="636" x="30" y="1050.1563"/><text fill="#000000" font-family="sans-serif" font-size="13" font-weight="bold" lengthAdjust="spacing" textLength="20" x="45" y="1064.6514">opt</text><text fill="#000000" font-family="sans-serif" font-size="11" font-weight="bold" lengthAdjust="spacing" textLength="81" x="110" y="1063.5752">[Flag is invalid]</text><polygon fill="#181818" points="78.5,1086.8594,68.5,1090.8594,78.5,1094.8594,74.5,1090.8594" style="stroke:#181818;stroke-width:1.0;"/><line style="stroke:#181818;stroke-width:1.0;stroke-dasharray:2.0,2.0;" x1="72.5" x2="365.5" y1="1090.8594" y2="1090.8594"/><text fill="#000000" font-family="sans-serif" font-size="13" lengthAdjust="spacing" textLength="117" x="84.5" y="1086.0029">Task page with error</text><line style="stroke:#000000;stroke-width:1.0;stroke-dasharray:2.0,2.0;" x1="30" x2="666" y1="1099.8594" y2="1099.8594"/><text fill="#000000" font-family="sans-serif" font-size="11" font-weight="bold" lengthAdjust="spacing" textLength="71" x="35" y="1111.2783">[Flag is valid]</text><path d="M40,1121.6953 L121,1121.6953 L121,1130.0469 L111,1140.0469 L40,1140.0469 L40,1121.6953 " fill="#EEEEEE" style="stroke:#000000;stroke-width:1.5;"/><rect fill="none" height="109.4063" style="stroke:#000000;stroke-width:1.5;" width="616" x="40" y="1121.6953"/><text fill="#000000" font-family="sans-serif" font-size="13" font-weight="bold" lengthAdjust="spacing" textLength="36" x="55" y="1136.1904">break</text><text fill="#000000" font-family="sans-serif" font-size="11" font-weight="bold" lengthAdjust="spacing" textLength="131" x="136" y="1135.1143">[(break out of the loop)]</text><polygon fill="#181818" points="595.5,1158.3984,605.5,1162.3984,595.5,1166.3984,599.5,1162.3984" style="stroke:#181818;stroke-width:1.0;"/><line style="stroke:#181818;stroke-width:1.0;" x1="376.5" x2="601.5" y1="1162.3984" y2="1162.3984"/><text fill="#000000" font-family="sans-serif" font-size="13" lengthAdjust="spacing" textLength="191" x="383.5" y="1157.542">Mark as solved in user document</text><polygon fill="#181818" points="387.5,1188.75,377.5,1192.75,387.5,1196.75,383.5,1192.75" style="stroke:#181818;stroke-width:1.0;"/><line style="stroke:#181818;stroke-width:1.0;stroke-dasharray:2.0,2.0;" x1="381.5" x2="611.5" y1="1192.75" y2="1192.75"/><text fill="#000000" font-family="sans-serif" font-size="13" lengthAdjust="spacing" textLength="78" x="393.5" y="1187.8936">UpdateResult</text><polygon fill="#181818" points="78.5,1219.1016,68.5,1223.1016,78.5,1227.1016,74.5,1223.1016" style="stroke:#181818;stroke-width:1.0;"/><line style="stroke:#181818;stroke-width:1.0;stroke-dasharray:2.0,2.0;" x1="72.5" x2="370.5" y1="1223.1016" y2="1223.1016"/><text fill="#000000" font-family="sans-serif" font-size="13" lengthAdjust="spacing" textLength="275" x="84.5" y="1218.2451">Task page with success message and question</text><polygon fill="#181818" points="354.5,1270.4531,364.5,1274.4531,354.5,1278.4531,358.5,1274.4531" style="stroke:#181818;stroke-width:1.0;"/><line style="stroke:#181818;stroke-width:1.0;" x1="67.5" x2="360.5" y1="1274.4531" y2="1274.4531"/><text fill="#000000" font-family="sans-serif" font-size="13" lengthAdjust="spacing" textLength="96" x="74.5" y="1269.5967">Answer question</text><polygon fill="#181818" points="595.5,1300.8047,605.5,1304.8047,595.5,1308.8047,599.5,1304.8047" style="stroke:#181818;stroke-width:1.0;"/><line style="stroke:#181818;stroke-width:1.0;" x1="376.5" x2="601.5" y1="1304.8047" y2="1304.8047"/><text fill="#000000" font-family="sans-serif" font-size="13" lengthAdjust="spacing" textLength="184" x="383.5" y="1299.9482">Save answers in user document</text><polygon fill="#181818" points="387.5,1331.1563,377.5,1335.1563,387.5,1339.1563,383.5,1335.1563" style="stroke:#181818;stroke-width:1.0;"/><line style="stroke:#181818;stroke-width:1.0;stroke-dasharray:2.0,2.0;" x1="381.5" x2="611.5" y1="1335.1563" y2="1335.1563"/><text fill="#000000" font-family="sans-serif" font-size="13" lengthAdjust="spacing" textLength="78" x="393.5" y="1330.2998">UpdateResult</text><polygon fill="#181818" points="83.5,1361.5078,73.5,1365.5078,83.5,1369.5078,79.5,1365.5078" style="stroke:#181818;stroke-width:1.0;"/><line style="stroke:#181818;stroke-width:1.0;stroke-dasharray:2.0,2.0;" x1="77.5" x2="370.5" y1="1365.5078" y2="1365.5078"/><text fill="#000000" font-family="sans-serif" font-size="13" lengthAdjust="spacing" textLength="148" x="89.5" y="1360.6514">302, redirect to task page</text><polygon fill="#181818" points="359.5,1391.8594,369.5,1395.8594,359.5,1399.8594,363.5,1395.8594" style="stroke:#181818;stroke-width:1.0;"/><line style="stroke:#181818;stroke-width:1.0;" x1="67.5" x2="365.5" y1="1395.8594" y2="1395.8594"/><text fill="#000000" font-family="sans-serif" font-size="13" lengthAdjust="spacing" textLength="104" x="74.5" y="1391.0029">request task page</text><!--SRC=[hLLDZzem4BtxLyojhRIxMhLxwg5I2KBgeLL5IEyc6OA5iQdjGFdtdN58Y4EWb-O0ORxdpPj1bi4wQ9_2u-LLUYZ4GRgWIdMG9a2ExjWgIPMBIWQvbXvPCE_VIJMV9MxPLcgDfaRMPKA80fw_G0wVOOc_6_G1IXcmjkuC1rcZa6LGHv9GYfmjvpCoNM0ejrV32eDKsbzjAUVQeTn1rfjOz61i0FoZV12noXayNrARHkieowEe8D7Rwnly8Fk5RKpLbeAc4WEdGUoosQC9ei9X1TTOI_8agDB61iRv08LCgt87re04hSmEWgKtXvhiAWZIxnuXmle7QAoY-ZyXCOHYDSoReY3i8RGqKXwqhMjgGvakHL9zmrOzc95PWq2ZGZdat9PHFChOnuvuRf7mL1i8MuIo9nyLuwq-OZLbpOMyyo2DFw7pF09sZknKranvoAfIh9Dwa2Ccy2rODsI8exf7X8mniLhRqwZiI0b9OuYnKwMWeI9ONihYYLRhfxCbUWzs4wsLgKV1JafhE4eYv1h32T74ndsCtrlv5_4jm5wUgU8TzxIdj6gFBzmNymX5rlUsqB9-D75jxK50Triw2FDclLS1DkpSAGUGTAA7PB_nkp1cn9e5qPl9sZ7dbZr9DdRvXKvjpcbrt27toXqgSvHQLKF72nghRiI4TDW2EcTTRuQQxcCN8ut0JxkmxzilsmIU8a-F4VoGMARGV9TknvUr9JSLDx5LmsUgzGdSYWFTTroYR_HjZ6a0_uc7Ryh8pprzi91fb-pOdHnvekJj6h_7ZKiezZMkSXf-5F2AOIwFs2__98AFxj8OgLjqheXyUltuHCUzKWxB4EzCVnKcc-v_5cbxxlBNUTUzY5VeBm00]--></g></svg>