<?xml version="1.0" encoding="UTF-8" standalone="no"?><svg xmlns="http://www.w3.org/2000/svg" xmlns:xlink="http://www.w3.org/1999/xlink" contentStyleType="text/css" height="950px" preserveAspectRatio="none" style="width:610px;height:950px;background:#FFFFFF;" version="1.1" viewBox="0 0 610 950" width="610px" zoomAndPan="magnify"><defs/><g><rect fill="#FFFFFF" height="184.1094" style="stroke:#181818;stroke-width:1.0;" width="10" x="236.5" y="114.9609"/><rect fill="#FFFFFF" height="407.2188" style="stroke:#181818;stroke-width:1.0;" width="10" x="236.5" y="329.4219"/><rect fill="#FFFFFF" height="123.4063" style="stroke:#181818;stroke-width:1.0;" width="10" x="477.5" y="145.3125"/><rect fill="#FFFFFF" height="123.4063" style="stroke:#181818;stroke-width:1.0;" width="10" x="477.5" y="359.7734"/><rect fill="#FFFFFF" height="30.3516" style="stroke:#181818;stroke-width:1.0;" width="10" x="477.5" y="538.8828"/><rect fill="none" height="79.0547" style="stroke:#000000;stroke-width:1.5;" width="516" x="10" y="160.3125"/><rect fill="none" height="79.0547" style="stroke:#000000;stroke-width:1.5;" width="516" x="10" y="374.7734"/><rect fill="none" height="209.1094" style="stroke:#000000;stroke-width:1.5;" width="322.5" x="203.5" y="498.1797"/><line style="stroke:#181818;stroke-width:0.5;stroke-dasharray:5.0,5.0;" x1="37" x2="37" y1="82.6094" y2="868.0469"/><line style="stroke:#181818;stroke-width:0.5;stroke-dasharray:5.0,5.0;" x1="241.5" x2="241.5" y1="82.6094" y2="868.0469"/><line style="stroke:#181818;stroke-width:0.5;stroke-dasharray:5.0,5.0;" x1="482" x2="482" y1="82.6094" y2="868.0469"/><line style="stroke:#181818;stroke-width:0.5;stroke-dasharray:5.0,5.0;" x1="565" x2="565" y1="82.6094" y2="868.0469"/><text fill="#000000" font-family="sans-serif" font-size="14" lengthAdjust="spacing" textLength="29" x="20" y="79.5332">User</text><ellipse cx="37.5" cy="13.5" fill="#E2E2F0" rx="8" ry="8" style="stroke:#181818;stroke-width:0.5;"/><path d="M37.5,21.5 L37.5,48.5 M24.5,29.5 L50.5,29.5 M37.5,48.5 L24.5,63.5 M37.5,48.5 L50.5,63.5 " fill="none" style="stroke:#181818;stroke-width:0.5;"/><text fill="#000000" font-family="sans-serif" font-size="14" lengthAdjust="spacing" textLength="29" x="20" y="881.5801">User</text><ellipse cx="37.5" cy="893.1563" fill="#E2E2F0" rx="8" ry="8" style="stroke:#181818;stroke-width:0.5;"/><path d="M37.5,901.1563 L37.5,928.1563 M24.5,909.1563 L50.5,909.1563 M37.5,928.1563 L24.5,943.1563 M37.5,928.1563 L50.5,943.1563 " fill="none" style="stroke:#181818;stroke-width:0.5;"/><rect fill="#E2E2F0" height="31.6094" rx="2.5" ry="2.5" style="stroke:#181818;stroke-width:0.5;" width="56" x="213.5" y="50"/><text fill="#000000" font-family="sans-serif" font-size="14" lengthAdjust="spacing" textLength="42" x="220.5" y="71.5332">Server</text><rect fill="#E2E2F0" height="31.6094" rx="2.5" ry="2.5" style="stroke:#181818;stroke-width:0.5;" width="56" x="213.5" y="867.0469"/><text fill="#000000" font-family="sans-serif" font-size="14" lengthAdjust="spacing" textLength="42" x="220.5" y="888.5801">Server</text><text fill="#000000" font-family="sans-serif" font-size="14" lengthAdjust="spacing" textLength="61" x="449" y="79.5332">Database</text><path d="M464.5,29 C464.5,19 482.5,19 482.5,19 C482.5,19 500.5,19 500.5,29 L500.5,55 C500.5,65 482.5,65 482.5,65 C482.5,65 464.5,65 464.5,55 L464.5,29 " fill="#E2E2F0" style="stroke:#181818;stroke-width:1.5;"/><path d="M464.5,29 C464.5,39 482.5,39 482.5,39 C482.5,39 500.5,39 500.5,29 " fill="none" style="stroke:#181818;stroke-width:1.5;"/><text fill="#000000" font-family="sans-serif" font-size="14" lengthAdjust="spacing" textLength="61" x="449" y="881.5801">Database</text><path d="M464.5,894.6563 C464.5,884.6563 482.5,884.6563 482.5,884.6563 C482.5,884.6563 500.5,884.6563 500.5,894.6563 L500.5,920.6563 C500.5,930.6563 482.5,930.6563 482.5,930.6563 C482.5,930.6563 464.5,930.6563 464.5,920.6563 L464.5,894.6563 " fill="#E2E2F0" style="stroke:#181818;stroke-width:1.5;"/><path d="M464.5,894.6563 C464.5,904.6563 482.5,904.6563 482.5,904.6563 C482.5,904.6563 500.5,904.6563 500.5,894.6563 " fill="none" style="stroke:#181818;stroke-width:1.5;"/><rect fill="#E2E2F0" height="31.6094" rx="2.5" ry="2.5" style="stroke:#181818;stroke-width:0.5;" width="78" x="526" y="50"/><text fill="#000000" font-family="sans-serif" font-size="14" lengthAdjust="spacing" textLength="64" x="533" y="71.5332">Challenge</text><rect fill="#E2E2F0" height="31.6094" rx="2.5" ry="2.5" style="stroke:#181818;stroke-width:0.5;" width="78" x="526" y="867.0469"/><text fill="#000000" font-family="sans-serif" font-size="14" lengthAdjust="spacing" textLength="64" x="533" y="888.5801">Challenge</text><rect fill="#FFFFFF" height="184.1094" style="stroke:#181818;stroke-width:1.0;" width="10" x="236.5" y="114.9609"/><rect fill="#FFFFFF" height="407.2188" style="stroke:#181818;stroke-width:1.0;" width="10" x="236.5" y="329.4219"/><rect fill="#FFFFFF" height="123.4063" style="stroke:#181818;stroke-width:1.0;" width="10" x="477.5" y="145.3125"/><rect fill="#FFFFFF" height="123.4063" style="stroke:#181818;stroke-width:1.0;" width="10" x="477.5" y="359.7734"/><rect fill="#FFFFFF" height="30.3516" style="stroke:#181818;stroke-width:1.0;" width="10" x="477.5" y="538.8828"/><polygon fill="#181818" points="224.5,110.9609,234.5,114.9609,224.5,118.9609,228.5,114.9609" style="stroke:#181818;stroke-width:1.0;"/><line style="stroke:#181818;stroke-width:1.0;" x1="37.5" x2="230.5" y1="114.9609" y2="114.9609"/><text fill="#000000" font-family="sans-serif" font-size="13" lengthAdjust="spacing" textLength="134" x="44.5" y="110.1045">Request category page</text><polygon fill="#181818" points="465.5,141.3125,475.5,145.3125,465.5,149.3125,469.5,145.3125" style="stroke:#181818;stroke-width:1.0;"/><line style="stroke:#181818;stroke-width:1.0;" x1="246.5" x2="471.5" y1="145.3125" y2="145.3125"/><text fill="#000000" font-family="sans-serif" font-size="13" lengthAdjust="spacing" textLength="129" x="253.5" y="140.4561">Fetch category details</text><path d="M10,160.3125 L91,160.3125 L91,168.6641 L81,178.6641 L10,178.6641 L10,160.3125 " fill="#EEEEEE" style="stroke:#000000;stroke-width:1.5;"/><rect fill="none" height="79.0547" style="stroke:#000000;stroke-width:1.5;" width="516" x="10" y="160.3125"/><text fill="#000000" font-family="sans-serif" font-size="13" font-weight="bold" lengthAdjust="spacing" textLength="36" x="25" y="174.8076">break</text><text fill="#000000" font-family="sans-serif" font-size="11" font-weight="bold" lengthAdjust="spacing" textLength="140" x="106" y="173.7314">[Category does not exist]</text><polygon fill="#181818" points="257.5,197.0156,247.5,201.0156,257.5,205.0156,253.5,201.0156" style="stroke:#181818;stroke-width:1.0;"/><line style="stroke:#181818;stroke-width:1.0;stroke-dasharray:2.0,2.0;" x1="251.5" x2="476.5" y1="201.0156" y2="201.0156"/><text fill="#000000" font-family="sans-serif" font-size="13" lengthAdjust="spacing" textLength="20" x="263.5" y="196.1592">null</text><polygon fill="#181818" points="48.5,227.3672,38.5,231.3672,48.5,235.3672,44.5,231.3672" style="stroke:#181818;stroke-width:1.0;"/><line style="stroke:#181818;stroke-width:1.0;stroke-dasharray:2.0,2.0;" x1="42.5" x2="235.5" y1="231.3672" y2="231.3672"/><text fill="#000000" font-family="sans-serif" font-size="13" lengthAdjust="spacing" textLength="117" x="54.5" y="226.5107">404 Not Found page</text><polygon fill="#181818" points="257.5,264.7188,247.5,268.7188,257.5,272.7188,253.5,268.7188" style="stroke:#181818;stroke-width:1.0;"/><line style="stroke:#181818;stroke-width:1.0;stroke-dasharray:2.0,2.0;" x1="251.5" x2="481.5" y1="268.7188" y2="268.7188"/><text fill="#000000" font-family="sans-serif" font-size="13" lengthAdjust="spacing" textLength="113" x="263.5" y="263.8623">Category document</text><polygon fill="#181818" points="48.5,295.0703,38.5,299.0703,48.5,303.0703,44.5,299.0703" style="stroke:#181818;stroke-width:1.0;"/><line style="stroke:#181818;stroke-width:1.0;stroke-dasharray:2.0,2.0;" x1="42.5" x2="240.5" y1="299.0703" y2="299.0703"/><text fill="#000000" font-family="sans-serif" font-size="13" lengthAdjust="spacing" textLength="127" x="54.5" y="294.2139">Render category page</text><polygon fill="#181818" points="224.5,325.4219,234.5,329.4219,224.5,333.4219,228.5,329.4219" style="stroke:#181818;stroke-width:1.0;"/><line style="stroke:#181818;stroke-width:1.0;" x1="37.5" x2="230.5" y1="329.4219" y2="329.4219"/><text fill="#000000" font-family="sans-serif" font-size="13" lengthAdjust="spacing" textLength="180" x="44.5" y="324.5654">Click on a link to a related task</text><polygon fill="#181818" points="465.5,355.7734,475.5,359.7734,465.5,363.7734,469.5,359.7734" style="stroke:#181818;stroke-width:1.0;"/><line style="stroke:#181818;stroke-width:1.0;" x1="246.5" x2="471.5" y1="359.7734" y2="359.7734"/><text fill="#000000" font-family="sans-serif" font-size="13" lengthAdjust="spacing" textLength="104" x="253.5" y="354.917">Fetch task details</text><path d="M10,374.7734 L91,374.7734 L91,383.125 L81,393.125 L10,393.125 L10,374.7734 " fill="#EEEEEE" style="stroke:#000000;stroke-width:1.5;"/><rect fill="none" height="79.0547" style="stroke:#000000;stroke-width:1.5;" width="516" x="10" y="374.7734"/><text fill="#000000" font-family="sans-serif" font-size="13" font-weight="bold" lengthAdjust="spacing" textLength="36" x="25" y="389.2686">break</text><text fill="#000000" font-family="sans-serif" font-size="11" font-weight="bold" lengthAdjust="spacing" textLength="117" x="106" y="388.1924">[Task does not exist]</text><polygon fill="#181818" points="257.5,411.4766,247.5,415.4766,257.5,419.4766,253.5,415.4766" style="stroke:#181818;stroke-width:1.0;"/><line style="stroke:#181818;stroke-width:1.0;stroke-dasharray:2.0,2.0;" x1="251.5" x2="476.5" y1="415.4766" y2="415.4766"/><text fill="#000000" font-family="sans-serif" font-size="13" lengthAdjust="spacing" textLength="20" x="263.5" y="410.6201">null</text><polygon fill="#181818" points="48.5,441.8281,38.5,445.8281,48.5,449.8281,44.5,445.8281" style="stroke:#181818;stroke-width:1.0;"/><line style="stroke:#181818;stroke-width:1.0;stroke-dasharray:2.0,2.0;" x1="42.5" x2="235.5" y1="445.8281" y2="445.8281"/><text fill="#000000" font-family="sans-serif" font-size="13" lengthAdjust="spacing" textLength="117" x="54.5" y="440.9717">404 Not Found page</text><polygon fill="#181818" points="257.5,479.1797,247.5,483.1797,257.5,487.1797,253.5,483.1797" style="stroke:#181818;stroke-width:1.0;"/><line style="stroke:#181818;stroke-width:1.0;stroke-dasharray:2.0,2.0;" x1="251.5" x2="481.5" y1="483.1797" y2="483.1797"/><text fill="#000000" font-family="sans-serif" font-size="13" lengthAdjust="spacing" textLength="70" x="263.5" y="478.3232">Task details</text><path d="M203.5,498.1797 L268.5,498.1797 L268.5,506.5313 L258.5,516.5313 L203.5,516.5313 L203.5,498.1797 " fill="#EEEEEE" style="stroke:#000000;stroke-width:1.5;"/><rect fill="none" height="209.1094" style="stroke:#000000;stroke-width:1.5;" width="322.5" x="203.5" y="498.1797"/><text fill="#000000" font-family="sans-serif" font-size="13" font-weight="bold" lengthAdjust="spacing" textLength="20" x="218.5" y="512.6748">opt</text><text fill="#000000" font-family="sans-serif" font-size="11" font-weight="bold" lengthAdjust="spacing" textLength="101" x="283.5" y="511.5986">[User is logged in]</text><polygon fill="#181818" points="465.5,534.8828,475.5,538.8828,465.5,542.8828,469.5,538.8828" style="stroke:#181818;stroke-width:1.0;"/><line style="stroke:#181818;stroke-width:1.0;" x1="246.5" x2="471.5" y1="538.8828" y2="538.8828"/><text fill="#000000" font-family="sans-serif" font-size="13" lengthAdjust="spacing" textLength="123" x="253.5" y="534.0264">Fetch user document</text><polygon fill="#181818" points="257.5,565.2344,247.5,569.2344,257.5,573.2344,253.5,569.2344" style="stroke:#181818;stroke-width:1.0;"/><line style="stroke:#181818;stroke-width:1.0;stroke-dasharray:2.0,2.0;" x1="251.5" x2="481.5" y1="569.2344" y2="569.2344"/><text fill="#000000" font-family="sans-serif" font-size="13" lengthAdjust="spacing" textLength="50" x="263.5" y="564.3779">UserDoc</text><line style="stroke:#181818;stroke-width:1.0;" x1="246.5" x2="288.5" y1="599.5859" y2="599.5859"/><line style="stroke:#181818;stroke-width:1.0;" x1="288.5" x2="288.5" y1="599.5859" y2="612.5859"/><line style="stroke:#181818;stroke-width:1.0;" x1="247.5" x2="288.5" y1="612.5859" y2="612.5859"/><polygon fill="#181818" points="257.5,608.5859,247.5,612.5859,257.5,616.5859,253.5,612.5859" style="stroke:#181818;stroke-width:1.0;"/><text fill="#000000" font-family="sans-serif" font-size="13" lengthAdjust="spacing" textLength="182" x="253.5" y="594.7295">Check if the challenge is solved</text><line style="stroke:#181818;stroke-width:1.0;" x1="246.5" x2="288.5" y1="642.9375" y2="642.9375"/><line style="stroke:#181818;stroke-width:1.0;" x1="288.5" x2="288.5" y1="642.9375" y2="655.9375"/><line style="stroke:#181818;stroke-width:1.0;" x1="247.5" x2="288.5" y1="655.9375" y2="655.9375"/><polygon fill="#181818" points="257.5,651.9375,247.5,655.9375,257.5,659.9375,253.5,655.9375" style="stroke:#181818;stroke-width:1.0;"/><text fill="#000000" font-family="sans-serif" font-size="13" lengthAdjust="spacing" textLength="217" x="253.5" y="638.0811">Check user's answers to the question</text><line style="stroke:#181818;stroke-width:1.0;" x1="246.5" x2="288.5" y1="686.2891" y2="686.2891"/><line style="stroke:#181818;stroke-width:1.0;" x1="288.5" x2="288.5" y1="686.2891" y2="699.2891"/><line style="stroke:#181818;stroke-width:1.0;" x1="247.5" x2="288.5" y1="699.2891" y2="699.2891"/><polygon fill="#181818" points="257.5,695.2891,247.5,699.2891,257.5,703.2891,253.5,699.2891" style="stroke:#181818;stroke-width:1.0;"/><text fill="#000000" font-family="sans-serif" font-size="13" lengthAdjust="spacing" textLength="195" x="253.5" y="681.4326">Check additional challenge solves</text><polygon fill="#181818" points="48.5,732.6406,38.5,736.6406,48.5,740.6406,44.5,736.6406" style="stroke:#181818;stroke-width:1.0;"/><line style="stroke:#181818;stroke-width:1.0;stroke-dasharray:2.0,2.0;" x1="42.5" x2="240.5" y1="736.6406" y2="736.6406"/><text fill="#000000" font-family="sans-serif" font-size="13" lengthAdjust="spacing" textLength="102" x="54.5" y="731.7842">Render task page</text><polygon fill="#181818" points="553,762.9922,563,766.9922,553,770.9922,557,766.9922" style="stroke:#181818;stroke-width:1.0;"/><line style="stroke:#181818;stroke-width:1.0;" x1="37.5" x2="559" y1="766.9922" y2="766.9922"/><text fill="#000000" font-family="sans-serif" font-size="13" lengthAdjust="spacing" textLength="281" x="44.5" y="762.1357">Follow the challenge link and solve the challenge</text><path d="M11,779.9922 L11,821.9922 L590,821.9922 L590,789.9922 L580,779.9922 L11,779.9922 " fill="#FEFFDD" style="stroke:#181818;stroke-width:0.5;"/><path d="M580,779.9922 L580,789.9922 L590,789.9922 L580,779.9922 " fill="#FEFFDD" style="stroke:#181818;stroke-width:0.5;"/><text fill="#000000" font-family="sans-serif" font-size="13" lengthAdjust="spacing" textLength="418" x="87" y="798.4873">Process of solving the challenge will vary between users and challenges.</text><text fill="#000000" font-family="sans-serif" font-size="13" lengthAdjust="spacing" textLength="134" x="87" y="814.8389">It may take some time.</text><polygon fill="#181818" points="48.5,846.0469,38.5,850.0469,48.5,854.0469,44.5,850.0469" style="stroke:#181818;stroke-width:1.0;"/><line style="stroke:#181818;stroke-width:1.0;stroke-dasharray:2.0,2.0;" x1="42.5" x2="564" y1="850.0469" y2="850.0469"/><text fill="#000000" font-family="sans-serif" font-size="13" lengthAdjust="spacing" textLength="25" x="54.5" y="845.1904">Flag</text><!--SRC=[hLEnSjim3Dtv5TYwDBaEcJfqi7o-wvBhHT47m2GYyqIJhW3PpTyNf5APSjDCrSG37l0U7Y2qaaQOluxfxOaCdJdXADxw4qQ1biRpdDHKQnmAxf4f1xRBMrFRpQgiEM0857lAkSOOqy7TDsZXAppHpubOmA9GdyPNE65F1gtuiqQKeit8xKQXEn9xk08T2Vh0LwnoxaV20Pe5aeWX9W7wvLbCKRc1kpVgE8LGOcq9THfw-F80ZuhVfIcwMGf5PwgYghUTZXJ5EAeLN7izQQLQjHwi0hUL2qtmTe0K0I7uE80aVOqK5ET0a8UF7Cdv3znuBkd_v4HjnNFDktR1f9FCP-GPGkfx7SF7FnGhzLD6BMQMoweQtGZDBRV9bl0DuzAx-7aWzTE_W1m8x79yAePJE9Dx3vs5V6B0o1SQEQyW5vVhz2c-Lu7E-Pp3K74K0fxD-kiOogh-TGXDzYI5a2utiij9eAwXz5udZIwL8EMVilkilzQFCLbYXlHIq3xsDyqkFWGuenxadkH25ClWNFelAButtmME-AgAXppJKMdzaUxpNFcEo3JBRBk0_My0]--></g></svg>