<?xml version="1.0" encoding="UTF-8" standalone="no"?><svg xmlns="http://www.w3.org/2000/svg" xmlns:xlink="http://www.w3.org/1999/xlink" contentStyleType="text/css" height="784px" preserveAspectRatio="none" style="width:558px;height:784px;background:#FFFFFF;" version="1.1" viewBox="0 0 558 784" width="558px" zoomAndPan="magnify"><defs/><g><rect fill="#FFFFFF" height="472.625" style="stroke:#181818;stroke-width:1.0;" width="10" x="231.5" y="212.0156"/><rect fill="#FFFFFF" height="30.3516" style="stroke:#181818;stroke-width:1.0;" width="10" x="518.5" y="381.125"/><rect fill="#FFFFFF" height="30.3516" style="stroke:#181818;stroke-width:1.0;" width="10" x="518.5" y="607.5859"/><rect fill="none" height="65.0547" style="stroke:#000000;stroke-width:1.5;" width="264.5" x="10" y="286.7188"/><rect fill="none" height="65.0547" style="stroke:#000000;stroke-width:1.5;" width="264.5" x="10" y="469.8281"/><line style="stroke:#181818;stroke-width:0.5;stroke-dasharray:5.0,5.0;" x1="37" x2="37" y1="82.6094" y2="702.6406"/><line style="stroke:#181818;stroke-width:0.5;stroke-dasharray:5.0,5.0;" x1="236.5" x2="236.5" y1="82.6094" y2="702.6406"/><line style="stroke:#181818;stroke-width:0.5;stroke-dasharray:5.0,5.0;" x1="523" x2="523" y1="82.6094" y2="702.6406"/><text fill="#000000" font-family="sans-serif" font-size="14" lengthAdjust="spacing" textLength="29" x="20" y="79.5332">User</text><ellipse cx="37.5" cy="13.5" fill="#E2E2F0" rx="8" ry="8" style="stroke:#181818;stroke-width:0.5;"/><path d="M37.5,21.5 L37.5,48.5 M24.5,29.5 L50.5,29.5 M37.5,48.5 L24.5,63.5 M37.5,48.5 L50.5,63.5 " fill="none" style="stroke:#181818;stroke-width:0.5;"/><text fill="#000000" font-family="sans-serif" font-size="14" lengthAdjust="spacing" textLength="29" x="20" y="716.1738">User</text><ellipse cx="37.5" cy="727.75" fill="#E2E2F0" rx="8" ry="8" style="stroke:#181818;stroke-width:0.5;"/><path d="M37.5,735.75 L37.5,762.75 M24.5,743.75 L50.5,743.75 M37.5,762.75 L24.5,777.75 M37.5,762.75 L50.5,777.75 " fill="none" style="stroke:#181818;stroke-width:0.5;"/><rect fill="#E2E2F0" height="31.6094" rx="2.5" ry="2.5" style="stroke:#181818;stroke-width:0.5;" width="56" x="208.5" y="50"/><text fill="#000000" font-family="sans-serif" font-size="14" lengthAdjust="spacing" textLength="42" x="215.5" y="71.5332">Server</text><rect fill="#E2E2F0" height="31.6094" rx="2.5" ry="2.5" style="stroke:#181818;stroke-width:0.5;" width="56" x="208.5" y="701.6406"/><text fill="#000000" font-family="sans-serif" font-size="14" lengthAdjust="spacing" textLength="42" x="215.5" y="723.1738">Server</text><text fill="#000000" font-family="sans-serif" font-size="14" lengthAdjust="spacing" textLength="61" x="490" y="79.5332">Database</text><path d="M505.5,29 C505.5,19 523.5,19 523.5,19 C523.5,19 541.5,19 541.5,29 L541.5,55 C541.5,65 523.5,65 523.5,65 C523.5,65 505.5,65 505.5,55 L505.5,29 " fill="#E2E2F0" style="stroke:#181818;stroke-width:1.5;"/><path d="M505.5,29 C505.5,39 523.5,39 523.5,39 C523.5,39 541.5,39 541.5,29 " fill="none" style="stroke:#181818;stroke-width:1.5;"/><text fill="#000000" font-family="sans-serif" font-size="14" lengthAdjust="spacing" textLength="61" x="490" y="716.1738">Database</text><path d="M505.5,729.25 C505.5,719.25 523.5,719.25 523.5,719.25 C523.5,719.25 541.5,719.25 541.5,729.25 L541.5,755.25 C541.5,765.25 523.5,765.25 523.5,765.25 C523.5,765.25 505.5,765.25 505.5,755.25 L505.5,729.25 " fill="#E2E2F0" style="stroke:#181818;stroke-width:1.5;"/><path d="M505.5,729.25 C505.5,739.25 523.5,739.25 523.5,739.25 C523.5,739.25 541.5,739.25 541.5,729.25 " fill="none" style="stroke:#181818;stroke-width:1.5;"/><rect fill="#FFFFFF" height="472.625" style="stroke:#181818;stroke-width:1.0;" width="10" x="231.5" y="212.0156"/><rect fill="#FFFFFF" height="30.3516" style="stroke:#181818;stroke-width:1.0;" width="10" x="518.5" y="381.125"/><rect fill="#FFFFFF" height="30.3516" style="stroke:#181818;stroke-width:1.0;" width="10" x="518.5" y="607.5859"/><path d="M14,97.6094 L14,123.6094 L546,123.6094 L546,107.6094 L536,97.6094 L14,97.6094 " fill="#FEFFDD" style="stroke:#181818;stroke-width:0.5;"/><path d="M536,97.6094 L536,107.6094 L546,107.6094 L536,97.6094 " fill="#FEFFDD" style="stroke:#181818;stroke-width:0.5;"/><text fill="#000000" font-family="sans-serif" font-size="13" lengthAdjust="spacing" textLength="134" x="208.5" y="116.1045">User must be logged in</text><polygon fill="#181818" points="224.5,147.3125,234.5,151.3125,224.5,155.3125,228.5,151.3125" style="stroke:#181818;stroke-width:1.0;"/><line style="stroke:#181818;stroke-width:1.0;" x1="37.5" x2="230.5" y1="151.3125" y2="151.3125"/><text fill="#000000" font-family="sans-serif" font-size="13" lengthAdjust="spacing" textLength="118" x="44.5" y="146.4561">Request profile page</text><polygon fill="#181818" points="48.5,177.6641,38.5,181.6641,48.5,185.6641,44.5,181.6641" style="stroke:#181818;stroke-width:1.0;"/><line style="stroke:#181818;stroke-width:1.0;stroke-dasharray:2.0,2.0;" x1="42.5" x2="235.5" y1="181.6641" y2="181.6641"/><text fill="#000000" font-family="sans-serif" font-size="13" lengthAdjust="spacing" textLength="111" x="54.5" y="176.8076">Render profile page</text><polygon fill="#181818" points="219.5,208.0156,229.5,212.0156,219.5,216.0156,223.5,212.0156" style="stroke:#181818;stroke-width:1.0;"/><line style="stroke:#181818;stroke-width:1.0;" x1="37.5" x2="225.5" y1="212.0156" y2="212.0156"/><text fill="#000000" font-family="sans-serif" font-size="13" lengthAdjust="spacing" textLength="175" x="44.5" y="207.1592">Submit password change form</text><line style="stroke:#181818;stroke-width:1.0;" x1="241.5" x2="283.5" y1="258.7188" y2="258.7188"/><line style="stroke:#181818;stroke-width:1.0;" x1="283.5" x2="283.5" y1="258.7188" y2="271.7188"/><line style="stroke:#181818;stroke-width:1.0;" x1="242.5" x2="283.5" y1="271.7188" y2="271.7188"/><polygon fill="#181818" points="252.5,267.7188,242.5,271.7188,252.5,275.7188,248.5,271.7188" style="stroke:#181818;stroke-width:1.0;"/><text fill="#000000" font-family="sans-serif" font-size="13" lengthAdjust="spacing" textLength="189" x="248.5" y="237.5107">Check inputs length and whether</text><text fill="#000000" font-family="sans-serif" font-size="13" lengthAdjust="spacing" textLength="226" x="248.5" y="253.8623">password and retyped password match</text><path d="M10,286.7188 L91,286.7188 L91,295.0703 L81,305.0703 L10,305.0703 L10,286.7188 " fill="#EEEEEE" style="stroke:#000000;stroke-width:1.5;"/><rect fill="none" height="65.0547" style="stroke:#000000;stroke-width:1.5;" width="264.5" x="10" y="286.7188"/><text fill="#000000" font-family="sans-serif" font-size="13" font-weight="bold" lengthAdjust="spacing" textLength="36" x="25" y="301.2139">break</text><text fill="#000000" font-family="sans-serif" font-size="11" font-weight="bold" lengthAdjust="spacing" textLength="95" x="106" y="300.1377">[Validation failed]</text><polygon fill="#181818" points="48.5,339.7734,38.5,343.7734,48.5,347.7734,44.5,343.7734" style="stroke:#181818;stroke-width:1.0;"/><line style="stroke:#181818;stroke-width:1.0;stroke-dasharray:2.0,2.0;" x1="42.5" x2="230.5" y1="343.7734" y2="343.7734"/><text fill="#000000" font-family="sans-serif" font-size="13" lengthAdjust="spacing" textLength="142" x="54.5" y="322.5654">422, rendered login page</text><text fill="#000000" font-family="sans-serif" font-size="13" lengthAdjust="spacing" textLength="110" x="54.5" y="338.917">with error message</text><polygon fill="#181818" points="506.5,377.125,516.5,381.125,506.5,385.125,510.5,381.125" style="stroke:#181818;stroke-width:1.0;"/><line style="stroke:#181818;stroke-width:1.0;" x1="241.5" x2="512.5" y1="381.125" y2="381.125"/><text fill="#000000" font-family="sans-serif" font-size="13" lengthAdjust="spacing" textLength="145" x="248.5" y="376.2686">Fetch the user document</text><polygon fill="#181818" points="252.5,407.4766,242.5,411.4766,252.5,415.4766,248.5,411.4766" style="stroke:#181818;stroke-width:1.0;"/><line style="stroke:#181818;stroke-width:1.0;stroke-dasharray:2.0,2.0;" x1="246.5" x2="522.5" y1="411.4766" y2="411.4766"/><text fill="#000000" font-family="sans-serif" font-size="13" lengthAdjust="spacing" textLength="86" x="258.5" y="406.6201">user document</text><line style="stroke:#181818;stroke-width:1.0;" x1="241.5" x2="283.5" y1="441.8281" y2="441.8281"/><line style="stroke:#181818;stroke-width:1.0;" x1="283.5" x2="283.5" y1="441.8281" y2="454.8281"/><line style="stroke:#181818;stroke-width:1.0;" x1="242.5" x2="283.5" y1="454.8281" y2="454.8281"/><polygon fill="#181818" points="252.5,450.8281,242.5,454.8281,252.5,458.8281,248.5,454.8281" style="stroke:#181818;stroke-width:1.0;"/><text fill="#000000" font-family="sans-serif" font-size="13" lengthAdjust="spacing" textLength="168" x="248.5" y="436.9717">Verify current password hash</text><path d="M10,469.8281 L91,469.8281 L91,478.1797 L81,488.1797 L10,488.1797 L10,469.8281 " fill="#EEEEEE" style="stroke:#000000;stroke-width:1.5;"/><rect fill="none" height="65.0547" style="stroke:#000000;stroke-width:1.5;" width="264.5" x="10" y="469.8281"/><text fill="#000000" font-family="sans-serif" font-size="13" font-weight="bold" lengthAdjust="spacing" textLength="36" x="25" y="484.3232">break</text><text fill="#000000" font-family="sans-serif" font-size="11" font-weight="bold" lengthAdjust="spacing" textLength="124" x="106" y="483.2471">[Hashes do not match]</text><polygon fill="#181818" points="48.5,522.8828,38.5,526.8828,48.5,530.8828,44.5,526.8828" style="stroke:#181818;stroke-width:1.0;"/><line style="stroke:#181818;stroke-width:1.0;stroke-dasharray:2.0,2.0;" x1="42.5" x2="230.5" y1="526.8828" y2="526.8828"/><text fill="#000000" font-family="sans-serif" font-size="13" lengthAdjust="spacing" textLength="120" x="54.5" y="505.6748">rendered profile page</text><text fill="#000000" font-family="sans-serif" font-size="13" lengthAdjust="spacing" textLength="110" x="54.5" y="522.0264">with error message</text><line style="stroke:#181818;stroke-width:1.0;" x1="241.5" x2="283.5" y1="564.2344" y2="564.2344"/><line style="stroke:#181818;stroke-width:1.0;" x1="283.5" x2="283.5" y1="564.2344" y2="577.2344"/><line style="stroke:#181818;stroke-width:1.0;" x1="242.5" x2="283.5" y1="577.2344" y2="577.2344"/><polygon fill="#181818" points="252.5,573.2344,242.5,577.2344,252.5,581.2344,248.5,577.2344" style="stroke:#181818;stroke-width:1.0;"/><text fill="#000000" font-family="sans-serif" font-size="13" lengthAdjust="spacing" textLength="172" x="248.5" y="559.3779">Calculate new password hash</text><polygon fill="#181818" points="506.5,603.5859,516.5,607.5859,506.5,611.5859,510.5,607.5859" style="stroke:#181818;stroke-width:1.0;"/><line style="stroke:#181818;stroke-width:1.0;" x1="241.5" x2="512.5" y1="607.5859" y2="607.5859"/><text fill="#000000" font-family="sans-serif" font-size="13" lengthAdjust="spacing" textLength="258" x="248.5" y="602.7295">Update the "hash" field in the user document</text><polygon fill="#181818" points="252.5,633.9375,242.5,637.9375,252.5,641.9375,248.5,637.9375" style="stroke:#181818;stroke-width:1.0;"/><line style="stroke:#181818;stroke-width:1.0;stroke-dasharray:2.0,2.0;" x1="246.5" x2="522.5" y1="637.9375" y2="637.9375"/><text fill="#000000" font-family="sans-serif" font-size="13" lengthAdjust="spacing" textLength="78" x="258.5" y="633.0811">UpdateResult</text><polygon fill="#181818" points="48.5,680.6406,38.5,684.6406,48.5,688.6406,44.5,684.6406" style="stroke:#181818;stroke-width:1.0;"/><line style="stroke:#181818;stroke-width:1.0;stroke-dasharray:2.0,2.0;" x1="42.5" x2="235.5" y1="684.6406" y2="684.6406"/><text fill="#000000" font-family="sans-serif" font-size="13" lengthAdjust="spacing" textLength="133" x="54.5" y="663.4326">Redirect to profile page</text><text fill="#000000" font-family="sans-serif" font-size="13" lengthAdjust="spacing" textLength="144" x="54.5" y="679.7842">with a success message</text><!--SRC=[XP8_RuCm4CLtVufJvcI9EcNea4PLvo8oPJdi0wo0JVqdAD- -Pw04eafXilpEp-_t3CfW7OnVxcbSeeTSTEY2bhf34o0ZTniqLZAXC621djBewM_DokaeXB61mARXVCiRXz6qZJv0GT3OgY85sWWXSjYzGmO7-AQVIAntpfQw8UYm8f71ZkLya8rYYvKw7Jv05ejMyr7qlhTEWQpHL0IbTQr06VGDEKucajrusKTDyie1kXWyD6IgK0CQ1NrDeIPtCRDLsdKKxXq7dZTR3B8Med24LpXZexaBRGsKoDcKI8qyah_jzrksIF7PWzcr6U9VJA_vMdAEgs_9-uJ4OrFCqv7FVX9V11m9OYfGMHbRCk41bShcoTt4jPvIj9oRuS_aT7a76HsdMhHMev-XldXDdgs0dtBYNMFDHCidUS4qL8-DZ4tAPAX_lln1ddSgpIJqJT8sK6fgqa_peev56wF7D_dOF9Un-hEKTYG31FiV2uAFKZBApBDmodu1]--></g></svg>