<?xml version="1.0" encoding="UTF-8" standalone="no"?><svg xmlns="http://www.w3.org/2000/svg" xmlns:xlink="http://www.w3.org/1999/xlink" contentStyleType="text/css" height="1591px" preserveAspectRatio="none" style="width:985px;height:1591px;background:#FFFFFF;" version="1.1" viewBox="0 0 985 1591" width="985px" zoomAndPan="magnify"><defs/><g><rect fill="#FFFFFF" height="30.3516" style="stroke:#181818;stroke-width:1.0;" width="10" x="234.5" y="151.3125"/><rect fill="#FFFFFF" height="30.3516" style="stroke:#181818;stroke-width:1.0;" width="10" x="234.5" y="212.0156"/><rect fill="#FFFFFF" height="1188.6563" style="stroke:#181818;stroke-width:1.0;" width="10" x="234.5" y="303.0703"/><rect fill="#FFFFFF" height="843.7891" style="stroke:#181818;stroke-width:1.0;" width="10" x="432.5" y="393.125"/><rect fill="#FFFFFF" height="107.4063" style="stroke:#181818;stroke-width:1.0;" width="10" x="432.5" y="1310.6172"/><rect fill="#FFFFFF" height="696.3828" style="stroke:#181818;stroke-width:1.0;" width="10" x="643.5" y="510.1797"/><rect fill="#FFFFFF" height="30.3516" style="stroke:#181818;stroke-width:1.0;" width="10" x="648.5" y="540.5313"/><rect fill="#FFFFFF" height="30.3516" style="stroke:#181818;stroke-width:1.0;" width="10" x="648.5" y="642.9375"/><rect fill="#FFFFFF" height="30.3516" style="stroke:#181818;stroke-width:1.0;" width="10" x="648.5" y="710.6406"/><rect fill="#FFFFFF" height="30.3516" style="stroke:#181818;stroke-width:1.0;" width="10" x="643.5" y="1357.3203"/><rect fill="#FFFFFF" height="30.3516" style="stroke:#181818;stroke-width:1.0;" width="10" x="716.5" y="796.6953"/><rect fill="#FFFFFF" height="30.3516" style="stroke:#181818;stroke-width:1.0;" width="10" x="716.5" y="897.3984"/><rect fill="#FFFFFF" height="14" style="stroke:#181818;stroke-width:1.0;" width="10" x="716.5" y="958.1016"/><rect fill="#FFFFFF" height="14" style="stroke:#181818;stroke-width:1.0;" width="10" x="796.5" y="1078.1563"/><rect fill="#FFFFFF" height="30.3516" style="stroke:#181818;stroke-width:1.0;" width="10" x="910.5" y="1145.8594"/><rect fill="none" height="95.4063" style="stroke:#000000;stroke-width:1.5;" width="292.5" x="399.5" y="585.8828"/><rect fill="none" height="344.1641" style="stroke:#000000;stroke-width:1.5;" width="462.5" x="389.5" y="755.9922"/><rect fill="none" height="61.7031" style="stroke:#000000;stroke-width:1.5;" width="236" x="399.5" y="987.1016"/><line style="stroke:#181818;stroke-width:0.5;stroke-dasharray:5.0,5.0;" x1="56" x2="56" y1="82.6094" y2="1509.7266"/><line style="stroke:#181818;stroke-width:0.5;stroke-dasharray:5.0,5.0;" x1="239" x2="239" y1="82.6094" y2="1509.7266"/><line style="stroke:#181818;stroke-width:0.5;stroke-dasharray:5.0,5.0;" x1="437.5" x2="437.5" y1="82.6094" y2="1509.7266"/><line style="stroke:#181818;stroke-width:0.5;stroke-dasharray:5.0,5.0;" x1="648" x2="648" y1="82.6094" y2="1509.7266"/><line style="stroke:#181818;stroke-width:0.5;stroke-dasharray:5.0,5.0;" x1="721" x2="721" y1="82.6094" y2="1509.7266"/><line style="stroke:#181818;stroke-width:0.5;stroke-dasharray:5.0,5.0;" x1="801" x2="801" y1="82.6094" y2="1509.7266"/><line style="stroke:#181818;stroke-width:0.5;stroke-dasharray:5.0,5.0;" x1="915" x2="915" y1="82.6094" y2="1509.7266"/><text fill="#000000" font-family="sans-serif" font-size="14" lengthAdjust="spacing" textLength="83" x="12" y="79.5332">Administrator</text><ellipse cx="56.5" cy="13.5" fill="#E2E2F0" rx="8" ry="8" style="stroke:#181818;stroke-width:0.5;"/><path d="M56.5,21.5 L56.5,48.5 M43.5,29.5 L69.5,29.5 M56.5,48.5 L43.5,63.5 M56.5,48.5 L69.5,63.5 " fill="none" style="stroke:#181818;stroke-width:0.5;"/><text fill="#000000" font-family="sans-serif" font-size="14" lengthAdjust="spacing" textLength="83" x="12" y="1523.2598">Administrator</text><ellipse cx="56.5" cy="1534.8359" fill="#E2E2F0" rx="8" ry="8" style="stroke:#181818;stroke-width:0.5;"/><path d="M56.5,1542.8359 L56.5,1569.8359 M43.5,1550.8359 L69.5,1550.8359 M56.5,1569.8359 L43.5,1584.8359 M56.5,1569.8359 L69.5,1584.8359 " fill="none" style="stroke:#181818;stroke-width:0.5;"/><rect fill="#E2E2F0" height="31.6094" rx="2.5" ry="2.5" style="stroke:#181818;stroke-width:0.5;" width="65" x="207" y="50"/><text fill="#000000" font-family="sans-serif" font-size="14" lengthAdjust="spacing" textLength="51" x="214" y="71.5332">Browser</text><rect fill="#E2E2F0" height="31.6094" rx="2.5" ry="2.5" style="stroke:#181818;stroke-width:0.5;" width="65" x="207" y="1508.7266"/><text fill="#000000" font-family="sans-serif" font-size="14" lengthAdjust="spacing" textLength="51" x="214" y="1530.2598">Browser</text><rect fill="#E2E2F0" height="31.6094" rx="2.5" ry="2.5" style="stroke:#181818;stroke-width:0.5;" width="56" x="409.5" y="50"/><text fill="#000000" font-family="sans-serif" font-size="14" lengthAdjust="spacing" textLength="42" x="416.5" y="71.5332">Server</text><rect fill="#E2E2F0" height="31.6094" rx="2.5" ry="2.5" style="stroke:#181818;stroke-width:0.5;" width="56" x="409.5" y="1508.7266"/><text fill="#000000" font-family="sans-serif" font-size="14" lengthAdjust="spacing" textLength="42" x="416.5" y="1530.2598">Server</text><text fill="#000000" font-family="sans-serif" font-size="14" lengthAdjust="spacing" textLength="61" x="615" y="79.5332">Database</text><path d="M630.5,29 C630.5,19 648.5,19 648.5,19 C648.5,19 666.5,19 666.5,29 L666.5,55 C666.5,65 648.5,65 648.5,65 C648.5,65 630.5,65 630.5,55 L630.5,29 " fill="#E2E2F0" style="stroke:#181818;stroke-width:1.5;"/><path d="M630.5,29 C630.5,39 648.5,39 648.5,39 C648.5,39 666.5,39 666.5,29 " fill="none" style="stroke:#181818;stroke-width:1.5;"/><text fill="#000000" font-family="sans-serif" font-size="14" lengthAdjust="spacing" textLength="61" x="615" y="1523.2598">Database</text><path d="M630.5,1536.3359 C630.5,1526.3359 648.5,1526.3359 648.5,1526.3359 C648.5,1526.3359 666.5,1526.3359 666.5,1536.3359 L666.5,1562.3359 C666.5,1572.3359 648.5,1572.3359 648.5,1572.3359 C648.5,1572.3359 630.5,1572.3359 630.5,1562.3359 L630.5,1536.3359 " fill="#E2E2F0" style="stroke:#181818;stroke-width:1.5;"/><path d="M630.5,1536.3359 C630.5,1546.3359 648.5,1546.3359 648.5,1546.3359 C648.5,1546.3359 666.5,1546.3359 666.5,1536.3359 " fill="none" style="stroke:#181818;stroke-width:1.5;"/><rect fill="#E2E2F0" height="31.6094" rx="2.5" ry="2.5" style="stroke:#181818;stroke-width:0.5;" width="59" x="692" y="50"/><text fill="#000000" font-family="sans-serif" font-size="14" lengthAdjust="spacing" textLength="45" x="699" y="71.5332">Docker</text><rect fill="#E2E2F0" height="31.6094" rx="2.5" ry="2.5" style="stroke:#181818;stroke-width:0.5;" width="59" x="692" y="1508.7266"/><text fill="#000000" font-family="sans-serif" font-size="14" lengthAdjust="spacing" textLength="45" x="699" y="1530.2598">Docker</text><rect fill="#E2E2F0" height="31.6094" rx="2.5" ry="2.5" style="stroke:#181818;stroke-width:0.5;" width="81" x="761" y="50"/><text fill="#000000" font-family="sans-serif" font-size="14" lengthAdjust="spacing" textLength="67" x="768" y="71.5332">Filesystem</text><rect fill="#E2E2F0" height="31.6094" rx="2.5" ry="2.5" style="stroke:#181818;stroke-width:0.5;" width="81" x="761" y="1508.7266"/><text fill="#000000" font-family="sans-serif" font-size="14" lengthAdjust="spacing" textLength="67" x="768" y="1530.2598">Filesystem</text><rect fill="#E2E2F0" height="31.6094" rx="2.5" ry="2.5" style="stroke:#181818;stroke-width:0.5;" width="127" x="852" y="50"/><text fill="#000000" font-family="sans-serif" font-size="14" lengthAdjust="spacing" textLength="113" x="859" y="71.5332">Operating System</text><rect fill="#E2E2F0" height="31.6094" rx="2.5" ry="2.5" style="stroke:#181818;stroke-width:0.5;" width="127" x="852" y="1508.7266"/><text fill="#000000" font-family="sans-serif" font-size="14" lengthAdjust="spacing" textLength="113" x="859" y="1530.2598">Operating System</text><rect fill="#FFFFFF" height="30.3516" style="stroke:#181818;stroke-width:1.0;" width="10" x="234.5" y="151.3125"/><rect fill="#FFFFFF" height="30.3516" style="stroke:#181818;stroke-width:1.0;" width="10" x="234.5" y="212.0156"/><rect fill="#FFFFFF" height="1188.6563" style="stroke:#181818;stroke-width:1.0;" width="10" x="234.5" y="303.0703"/><rect fill="#FFFFFF" height="843.7891" style="stroke:#181818;stroke-width:1.0;" width="10" x="432.5" y="393.125"/><rect fill="#FFFFFF" height="107.4063" style="stroke:#181818;stroke-width:1.0;" width="10" x="432.5" y="1310.6172"/><rect fill="#FFFFFF" height="696.3828" style="stroke:#181818;stroke-width:1.0;" width="10" x="643.5" y="510.1797"/><rect fill="#FFFFFF" height="30.3516" style="stroke:#181818;stroke-width:1.0;" width="10" x="648.5" y="540.5313"/><rect fill="#FFFFFF" height="30.3516" style="stroke:#181818;stroke-width:1.0;" width="10" x="648.5" y="642.9375"/><rect fill="#FFFFFF" height="30.3516" style="stroke:#181818;stroke-width:1.0;" width="10" x="648.5" y="710.6406"/><rect fill="#FFFFFF" height="30.3516" style="stroke:#181818;stroke-width:1.0;" width="10" x="643.5" y="1357.3203"/><rect fill="#FFFFFF" height="30.3516" style="stroke:#181818;stroke-width:1.0;" width="10" x="716.5" y="796.6953"/><rect fill="#FFFFFF" height="30.3516" style="stroke:#181818;stroke-width:1.0;" width="10" x="716.5" y="897.3984"/><rect fill="#FFFFFF" height="14" style="stroke:#181818;stroke-width:1.0;" width="10" x="716.5" y="958.1016"/><rect fill="#FFFFFF" height="14" style="stroke:#181818;stroke-width:1.0;" width="10" x="796.5" y="1078.1563"/><rect fill="#FFFFFF" height="30.3516" style="stroke:#181818;stroke-width:1.0;" width="10" x="910.5" y="1145.8594"/><path d="M5,97.6094 L5,123.6094 L967,123.6094 L967,107.6094 L957,97.6094 L5,97.6094 " fill="#FEFFDD" style="stroke:#181818;stroke-width:0.5;"/><path d="M957,97.6094 L957,107.6094 L967,107.6094 L957,97.6094 " fill="#FEFFDD" style="stroke:#181818;stroke-width:0.5;"/><text fill="#000000" font-family="sans-serif" font-size="13" lengthAdjust="spacing" textLength="423" x="270" y="116.1045">Administrator panel must be loaded. See the previous diagram for details.</text><polygon fill="#181818" points="222.5,147.3125,232.5,151.3125,222.5,155.3125,226.5,151.3125" style="stroke:#181818;stroke-width:1.0;"/><line style="stroke:#181818;stroke-width:1.0;" x1="56.5" x2="228.5" y1="151.3125" y2="151.3125"/><text fill="#000000" font-family="sans-serif" font-size="13" lengthAdjust="spacing" textLength="29" x="63.5" y="146.4561">Click</text><text fill="#000000" font-family="sans-serif" font-size="13" lengthAdjust="spacing" textLength="4" x="92.5" y="146.4561"> </text><text fill="#000000" font-family="sans-serif" font-size="13" lengthAdjust="spacing" textLength="18" x="96.5" y="146.4561">the</text><text fill="#000000" font-family="sans-serif" font-size="13" lengthAdjust="spacing" textLength="4" x="114.5" y="146.4561"> </text><text fill="#000000" font-family="sans-serif" font-size="13" lengthAdjust="spacing" textLength="32" x="118.5" y="146.4561">tasks</text><text fill="#000000" font-family="sans-serif" font-size="13" lengthAdjust="spacing" textLength="4" x="150.5" y="146.4561"> </text><text fill="#000000" font-family="sans-serif" font-size="13" lengthAdjust="spacing" textLength="18" x="154.5" y="146.4561">tab</text><polygon fill="#181818" points="67.5,177.6641,57.5,181.6641,67.5,185.6641,63.5,181.6641" style="stroke:#181818;stroke-width:1.0;"/><line style="stroke:#181818;stroke-width:1.0;stroke-dasharray:2.0,2.0;" x1="61.5" x2="238.5" y1="181.6641" y2="181.6641"/><text fill="#000000" font-family="sans-serif" font-size="13" lengthAdjust="spacing" textLength="43" x="73.5" y="176.8076">Display</text><text fill="#000000" font-family="sans-serif" font-size="13" lengthAdjust="spacing" textLength="4" x="116.5" y="176.8076"> </text><text fill="#000000" font-family="sans-serif" font-size="13" lengthAdjust="spacing" textLength="18" x="120.5" y="176.8076">the</text><text fill="#000000" font-family="sans-serif" font-size="13" lengthAdjust="spacing" textLength="4" x="138.5" y="176.8076"> </text><text fill="#000000" font-family="sans-serif" font-size="13" lengthAdjust="spacing" textLength="32" x="142.5" y="176.8076">tasks</text><text fill="#000000" font-family="sans-serif" font-size="13" lengthAdjust="spacing" textLength="4" x="174.5" y="176.8076"> </text><text fill="#000000" font-family="sans-serif" font-size="13" lengthAdjust="spacing" textLength="18" x="178.5" y="176.8076">tab</text><polygon fill="#181818" points="222.5,208.0156,232.5,212.0156,222.5,216.0156,226.5,212.0156" style="stroke:#181818;stroke-width:1.0;"/><line style="stroke:#181818;stroke-width:1.0;" x1="56.5" x2="228.5" y1="212.0156" y2="212.0156"/><text fill="#000000" font-family="sans-serif" font-size="13" lengthAdjust="spacing" textLength="29" x="63.5" y="207.1592">Click</text><text fill="#000000" font-family="sans-serif" font-size="13" lengthAdjust="spacing" textLength="4" x="92.5" y="207.1592"> </text><text fill="#000000" font-family="sans-serif" font-size="13" lengthAdjust="spacing" textLength="18" x="96.5" y="207.1592">the</text><text fill="#000000" font-family="sans-serif" font-size="13" lengthAdjust="spacing" textLength="4" x="114.5" y="207.1592"> </text><text fill="#000000" font-family="sans-serif" font-size="13" lengthAdjust="spacing" textLength="30" x="118.5" y="207.1592">"New</text><text fill="#000000" font-family="sans-serif" font-size="13" lengthAdjust="spacing" textLength="4" x="148.5" y="207.1592"> </text><text fill="#000000" font-family="sans-serif" font-size="13" lengthAdjust="spacing" textLength="30" x="152.5" y="207.1592">task"</text><text fill="#000000" font-family="sans-serif" font-size="13" lengthAdjust="spacing" textLength="4" x="182.5" y="207.1592"> </text><text fill="#000000" font-family="sans-serif" font-size="13" lengthAdjust="spacing" textLength="36" x="186.5" y="207.1592">button</text><polygon fill="#181818" points="67.5,238.3672,57.5,242.3672,67.5,246.3672,63.5,242.3672" style="stroke:#181818;stroke-width:1.0;"/><line style="stroke:#181818;stroke-width:1.0;stroke-dasharray:2.0,2.0;" x1="61.5" x2="238.5" y1="242.3672" y2="242.3672"/><text fill="#000000" font-family="sans-serif" font-size="13" lengthAdjust="spacing" textLength="32" x="73.5" y="237.5107">Show</text><text fill="#000000" font-family="sans-serif" font-size="13" lengthAdjust="spacing" textLength="4" x="105.5" y="237.5107"> </text><text fill="#000000" font-family="sans-serif" font-size="13" lengthAdjust="spacing" textLength="18" x="109.5" y="237.5107">the</text><text fill="#000000" font-family="sans-serif" font-size="13" lengthAdjust="spacing" textLength="4" x="127.5" y="237.5107"> </text><text fill="#000000" font-family="sans-serif" font-size="13" lengthAdjust="spacing" textLength="23" x="131.5" y="237.5107">new</text><text fill="#000000" font-family="sans-serif" font-size="13" lengthAdjust="spacing" textLength="4" x="154.5" y="237.5107"> </text><text fill="#000000" font-family="sans-serif" font-size="13" lengthAdjust="spacing" textLength="25" x="158.5" y="237.5107">task</text><text fill="#000000" font-family="sans-serif" font-size="13" lengthAdjust="spacing" textLength="4" x="183.5" y="237.5107"> </text><text fill="#000000" font-family="sans-serif" font-size="13" lengthAdjust="spacing" textLength="25" x="187.5" y="237.5107">form</text><polygon fill="#181818" points="227.5,268.7188,237.5,272.7188,227.5,276.7188,231.5,272.7188" style="stroke:#181818;stroke-width:1.0;"/><line style="stroke:#181818;stroke-width:1.0;" x1="56.5" x2="233.5" y1="272.7188" y2="272.7188"/><text fill="#000000" font-family="sans-serif" font-size="13" lengthAdjust="spacing" textLength="17" x="63.5" y="267.8623">Fill</text><text fill="#000000" font-family="sans-serif" font-size="13" lengthAdjust="spacing" textLength="4" x="80.5" y="267.8623"> </text><text fill="#000000" font-family="sans-serif" font-size="13" lengthAdjust="spacing" textLength="18" x="84.5" y="267.8623">the</text><text fill="#000000" font-family="sans-serif" font-size="13" lengthAdjust="spacing" textLength="4" x="102.5" y="267.8623"> </text><text fill="#000000" font-family="sans-serif" font-size="13" lengthAdjust="spacing" textLength="25" x="106.5" y="267.8623">form</text><polygon fill="#181818" points="222.5,299.0703,232.5,303.0703,222.5,307.0703,226.5,303.0703" style="stroke:#181818;stroke-width:1.0;"/><line style="stroke:#181818;stroke-width:1.0;" x1="56.5" x2="228.5" y1="303.0703" y2="303.0703"/><text fill="#000000" font-family="sans-serif" font-size="13" lengthAdjust="spacing" textLength="41" x="63.5" y="298.2139">Submit</text><text fill="#000000" font-family="sans-serif" font-size="13" lengthAdjust="spacing" textLength="4" x="104.5" y="298.2139"> </text><text fill="#000000" font-family="sans-serif" font-size="13" lengthAdjust="spacing" textLength="18" x="108.5" y="298.2139">the</text><text fill="#000000" font-family="sans-serif" font-size="13" lengthAdjust="spacing" textLength="4" x="126.5" y="298.2139"> </text><text fill="#000000" font-family="sans-serif" font-size="13" lengthAdjust="spacing" textLength="25" x="130.5" y="298.2139">form</text><line style="stroke:#181818;stroke-width:1.0;" x1="244.5" x2="286.5" y1="349.7734" y2="349.7734"/><line style="stroke:#181818;stroke-width:1.0;" x1="286.5" x2="286.5" y1="349.7734" y2="362.7734"/><line style="stroke:#181818;stroke-width:1.0;" x1="245.5" x2="286.5" y1="362.7734" y2="362.7734"/><polygon fill="#181818" points="255.5,358.7734,245.5,362.7734,255.5,366.7734,251.5,362.7734" style="stroke:#181818;stroke-width:1.0;"/><text fill="#000000" font-family="sans-serif" font-size="13" lengthAdjust="spacing" textLength="30" x="251.5" y="328.5654">Read</text><text fill="#000000" font-family="sans-serif" font-size="13" lengthAdjust="spacing" textLength="4" x="281.5" y="328.5654"> </text><text fill="#000000" font-family="sans-serif" font-size="13" lengthAdjust="spacing" textLength="18" x="285.5" y="328.5654">the</text><text fill="#000000" font-family="sans-serif" font-size="13" lengthAdjust="spacing" textLength="4" x="303.5" y="328.5654"> </text><text fill="#000000" font-family="sans-serif" font-size="13" lengthAdjust="spacing" textLength="35" x="307.5" y="328.5654">inputs</text><text fill="#000000" font-family="sans-serif" font-size="13" lengthAdjust="spacing" textLength="4" x="342.5" y="328.5654"> </text><text fill="#000000" font-family="sans-serif" font-size="13" lengthAdjust="spacing" textLength="21" x="346.5" y="328.5654">and</text><text fill="#000000" font-family="sans-serif" font-size="13" lengthAdjust="spacing" textLength="4" x="367.5" y="328.5654"> </text><text fill="#000000" font-family="sans-serif" font-size="13" lengthAdjust="spacing" textLength="43" x="371.5" y="328.5654">prepare</text><text fill="#000000" font-family="sans-serif" font-size="13" lengthAdjust="spacing" textLength="4" x="414.5" y="328.5654"> </text><text fill="#000000" font-family="sans-serif" font-size="13" lengthAdjust="spacing" textLength="7" x="418.5" y="328.5654">a</text><text fill="#000000" font-family="sans-serif" font-size="13" lengthAdjust="spacing" textLength="34" x="251.5" y="344.917">JSON</text><polygon fill="#181818" points="420.5,389.125,430.5,393.125,420.5,397.125,424.5,393.125" style="stroke:#181818;stroke-width:1.0;"/><line style="stroke:#181818;stroke-width:1.0;" x1="244.5" x2="426.5" y1="393.125" y2="393.125"/><text fill="#000000" font-family="sans-serif" font-size="13" lengthAdjust="spacing" textLength="35" x="251.5" y="388.2686">POST</text><text fill="#000000" font-family="sans-serif" font-size="13" lengthAdjust="spacing" textLength="4" x="286.5" y="388.2686"> </text><text fill="#000000" font-family="sans-serif" font-size="13" lengthAdjust="spacing" textLength="18" x="290.5" y="388.2686">the</text><text fill="#000000" font-family="sans-serif" font-size="13" lengthAdjust="spacing" textLength="4" x="308.5" y="388.2686"> </text><text fill="#000000" font-family="sans-serif" font-size="13" lengthAdjust="spacing" textLength="34" x="312.5" y="388.2686">JSON</text><line style="stroke:#181818;stroke-width:1.0;" x1="442.5" x2="484.5" y1="423.4766" y2="423.4766"/><line style="stroke:#181818;stroke-width:1.0;" x1="484.5" x2="484.5" y1="423.4766" y2="436.4766"/><line style="stroke:#181818;stroke-width:1.0;" x1="443.5" x2="484.5" y1="436.4766" y2="436.4766"/><polygon fill="#181818" points="453.5,432.4766,443.5,436.4766,453.5,440.4766,449.5,436.4766" style="stroke:#181818;stroke-width:1.0;"/><text fill="#000000" font-family="sans-serif" font-size="13" lengthAdjust="spacing" textLength="33" x="449.5" y="418.6201">Verify</text><text fill="#000000" font-family="sans-serif" font-size="13" lengthAdjust="spacing" textLength="4" x="482.5" y="418.6201"> </text><text fill="#000000" font-family="sans-serif" font-size="13" lengthAdjust="spacing" textLength="18" x="486.5" y="418.6201">the</text><text fill="#000000" font-family="sans-serif" font-size="13" lengthAdjust="spacing" textLength="4" x="504.5" y="418.6201"> </text><text fill="#000000" font-family="sans-serif" font-size="13" lengthAdjust="spacing" textLength="25" x="508.5" y="418.6201">data</text><line style="stroke:#181818;stroke-width:1.0;" x1="442.5" x2="484.5" y1="466.8281" y2="466.8281"/><line style="stroke:#181818;stroke-width:1.0;" x1="484.5" x2="484.5" y1="466.8281" y2="479.8281"/><line style="stroke:#181818;stroke-width:1.0;" x1="443.5" x2="484.5" y1="479.8281" y2="479.8281"/><polygon fill="#181818" points="453.5,475.8281,443.5,479.8281,453.5,483.8281,449.5,479.8281" style="stroke:#181818;stroke-width:1.0;"/><text fill="#000000" font-family="sans-serif" font-size="13" lengthAdjust="spacing" textLength="34" x="449.5" y="461.9717">Parse</text><text fill="#000000" font-family="sans-serif" font-size="13" lengthAdjust="spacing" textLength="4" x="483.5" y="461.9717"> </text><text fill="#000000" font-family="sans-serif" font-size="13" lengthAdjust="spacing" textLength="18" x="487.5" y="461.9717">the</text><text fill="#000000" font-family="sans-serif" font-size="13" lengthAdjust="spacing" textLength="4" x="505.5" y="461.9717"> </text><text fill="#000000" font-family="sans-serif" font-size="13" lengthAdjust="spacing" textLength="59" x="509.5" y="461.9717">Markdown</text><text fill="#000000" font-family="sans-serif" font-size="13" lengthAdjust="spacing" textLength="4" x="568.5" y="461.9717"> </text><text fill="#000000" font-family="sans-serif" font-size="13" lengthAdjust="spacing" textLength="63" x="572.5" y="461.9717">description</text><polygon fill="#181818" points="631.5,506.1797,641.5,510.1797,631.5,514.1797,635.5,510.1797" style="stroke:#181818;stroke-width:1.0;"/><line style="stroke:#181818;stroke-width:1.0;" x1="442.5" x2="637.5" y1="510.1797" y2="510.1797"/><text fill="#000000" font-family="sans-serif" font-size="13" lengthAdjust="spacing" textLength="28" x="449.5" y="505.3232">Start</text><text fill="#000000" font-family="sans-serif" font-size="13" lengthAdjust="spacing" textLength="4" x="477.5" y="505.3232"> </text><text fill="#000000" font-family="sans-serif" font-size="13" lengthAdjust="spacing" textLength="7" x="481.5" y="505.3232">a</text><text fill="#000000" font-family="sans-serif" font-size="13" lengthAdjust="spacing" textLength="4" x="488.5" y="505.3232"> </text><text fill="#000000" font-family="sans-serif" font-size="13" lengthAdjust="spacing" textLength="64" x="492.5" y="505.3232">transaction</text><polygon fill="#181818" points="636.5,536.5313,646.5,540.5313,636.5,544.5313,640.5,540.5313" style="stroke:#181818;stroke-width:1.0;"/><line style="stroke:#181818;stroke-width:1.0;" x1="442.5" x2="642.5" y1="540.5313" y2="540.5313"/><text fill="#000000" font-family="sans-serif" font-size="13" lengthAdjust="spacing" textLength="32" x="449.5" y="535.6748">Insert</text><text fill="#000000" font-family="sans-serif" font-size="13" lengthAdjust="spacing" textLength="4" x="481.5" y="535.6748"> </text><text fill="#000000" font-family="sans-serif" font-size="13" lengthAdjust="spacing" textLength="55" x="485.5" y="535.6748">challenge</text><text fill="#000000" font-family="sans-serif" font-size="13" lengthAdjust="spacing" textLength="4" x="540.5" y="535.6748"> </text><text fill="#000000" font-family="sans-serif" font-size="13" lengthAdjust="spacing" textLength="57" x="544.5" y="535.6748">document</text><polygon fill="#181818" points="453.5,566.8828,443.5,570.8828,453.5,574.8828,449.5,570.8828" style="stroke:#181818;stroke-width:1.0;"/><line style="stroke:#181818;stroke-width:1.0;stroke-dasharray:2.0,2.0;" x1="447.5" x2="642.5" y1="570.8828" y2="570.8828"/><text fill="#000000" font-family="sans-serif" font-size="13" lengthAdjust="spacing" textLength="93" x="459.5" y="566.0264">InsertOneResult</text><path d="M399.5,585.8828 L464.5,585.8828 L464.5,594.2344 L454.5,604.2344 L399.5,604.2344 L399.5,585.8828 " fill="#EEEEEE" style="stroke:#000000;stroke-width:1.5;"/><rect fill="none" height="95.4063" style="stroke:#000000;stroke-width:1.5;" width="292.5" x="399.5" y="585.8828"/><text fill="#000000" font-family="sans-serif" font-size="13" font-weight="bold" lengthAdjust="spacing" textLength="20" x="414.5" y="600.3779">opt</text><text fill="#000000" font-family="sans-serif" font-size="11" font-weight="bold" lengthAdjust="spacing" textLength="126" x="479.5" y="599.3018">[Additional challenges]</text><polygon fill="#181818" points="636.5,638.9375,646.5,642.9375,636.5,646.9375,640.5,642.9375" style="stroke:#181818;stroke-width:1.0;"/><line style="stroke:#181818;stroke-width:1.0;" x1="442.5" x2="642.5" y1="642.9375" y2="642.9375"/><text fill="#000000" font-family="sans-serif" font-size="13" lengthAdjust="spacing" textLength="32" x="449.5" y="621.7295">Insert</text><text fill="#000000" font-family="sans-serif" font-size="13" lengthAdjust="spacing" textLength="4" x="481.5" y="621.7295"> </text><text fill="#000000" font-family="sans-serif" font-size="13" lengthAdjust="spacing" textLength="55" x="485.5" y="621.7295">challenge</text><text fill="#000000" font-family="sans-serif" font-size="13" lengthAdjust="spacing" textLength="4" x="540.5" y="621.7295"> </text><text fill="#000000" font-family="sans-serif" font-size="13" lengthAdjust="spacing" textLength="64" x="544.5" y="621.7295">documents</text><text fill="#000000" font-family="sans-serif" font-size="13" lengthAdjust="spacing" textLength="4" x="608.5" y="621.7295"> </text><text fill="#000000" font-family="sans-serif" font-size="13" lengthAdjust="spacing" textLength="14" x="612.5" y="621.7295">for</text><text fill="#000000" font-family="sans-serif" font-size="13" lengthAdjust="spacing" textLength="53" x="449.5" y="638.0811">subtasks</text><polygon fill="#181818" points="453.5,669.2891,443.5,673.2891,453.5,677.2891,449.5,673.2891" style="stroke:#181818;stroke-width:1.0;"/><line style="stroke:#181818;stroke-width:1.0;stroke-dasharray:2.0,2.0;" x1="447.5" x2="642.5" y1="673.2891" y2="673.2891"/><text fill="#000000" font-family="sans-serif" font-size="13" lengthAdjust="spacing" textLength="101" x="459.5" y="668.4326">InsertManyResult</text><polygon fill="#181818" points="636.5,706.6406,646.5,710.6406,636.5,714.6406,640.5,710.6406" style="stroke:#181818;stroke-width:1.0;"/><line style="stroke:#181818;stroke-width:1.0;" x1="442.5" x2="642.5" y1="710.6406" y2="710.6406"/><text fill="#000000" font-family="sans-serif" font-size="13" lengthAdjust="spacing" textLength="32" x="449.5" y="705.7842">Insert</text><text fill="#000000" font-family="sans-serif" font-size="13" lengthAdjust="spacing" textLength="4" x="481.5" y="705.7842"> </text><text fill="#000000" font-family="sans-serif" font-size="13" lengthAdjust="spacing" textLength="25" x="485.5" y="705.7842">task</text><text fill="#000000" font-family="sans-serif" font-size="13" lengthAdjust="spacing" textLength="4" x="510.5" y="705.7842"> </text><text fill="#000000" font-family="sans-serif" font-size="13" lengthAdjust="spacing" textLength="57" x="514.5" y="705.7842">document</text><polygon fill="#181818" points="453.5,736.9922,443.5,740.9922,453.5,744.9922,449.5,740.9922" style="stroke:#181818;stroke-width:1.0;"/><line style="stroke:#181818;stroke-width:1.0;stroke-dasharray:2.0,2.0;" x1="447.5" x2="642.5" y1="740.9922" y2="740.9922"/><text fill="#000000" font-family="sans-serif" font-size="13" lengthAdjust="spacing" textLength="93" x="459.5" y="736.1357">InsertOneResult</text><path d="M389.5,755.9922 L462.5,755.9922 L462.5,764.3438 L452.5,774.3438 L389.5,774.3438 L389.5,755.9922 " fill="#EEEEEE" style="stroke:#000000;stroke-width:1.5;"/><rect fill="none" height="344.1641" style="stroke:#000000;stroke-width:1.5;" width="462.5" x="389.5" y="755.9922"/><text fill="#000000" font-family="sans-serif" font-size="13" font-weight="bold" lengthAdjust="spacing" textLength="28" x="404.5" y="770.4873">loop</text><text fill="#000000" font-family="sans-serif" font-size="11" font-weight="bold" lengthAdjust="spacing" textLength="197" x="477.5" y="769.4111">[For each new challenge document]</text><polygon fill="#181818" points="704.5,792.6953,714.5,796.6953,704.5,800.6953,708.5,796.6953" style="stroke:#181818;stroke-width:1.0;"/><line style="stroke:#181818;stroke-width:1.0;" x1="442.5" x2="710.5" y1="796.6953" y2="796.6953"/><text fill="#000000" font-family="sans-serif" font-size="13" lengthAdjust="spacing" textLength="22" x="449.5" y="791.8389">Pull</text><text fill="#000000" font-family="sans-serif" font-size="13" lengthAdjust="spacing" textLength="4" x="471.5" y="791.8389"> </text><text fill="#000000" font-family="sans-serif" font-size="13" lengthAdjust="spacing" textLength="18" x="475.5" y="791.8389">the</text><text fill="#000000" font-family="sans-serif" font-size="13" lengthAdjust="spacing" textLength="4" x="493.5" y="791.8389"> </text><text fill="#000000" font-family="sans-serif" font-size="13" lengthAdjust="spacing" textLength="35" x="497.5" y="791.8389">image</text><polygon fill="#181818" points="452.8311,861.6682,443.5,867.0469,453.9665,869.5872,449.4393,866.1954" style="stroke:#181818;stroke-width:1.0;"/><line style="stroke:#181818;stroke-width:1.0;stroke-dasharray:2.0,2.0;" x1="720.5" x2="442.5" y1="827.0469" y2="867.0469"/><text fill="#000000" font-family="sans-serif" font-size="13" lengthAdjust="spacing" textLength="22" x="459.5" y="822.1904">Pull</text><text fill="#000000" font-family="sans-serif" font-size="13" lengthAdjust="spacing" textLength="4" x="481.5" y="822.1904"> </text><text fill="#000000" font-family="sans-serif" font-size="13" lengthAdjust="spacing" textLength="50" x="485.5" y="822.1904">progress</text><text fill="#000000" font-family="sans-serif" font-size="13" lengthAdjust="spacing" textLength="4" x="535.5" y="822.1904"> </text><text fill="#000000" font-family="sans-serif" font-size="13" lengthAdjust="spacing" textLength="62" x="539.5" y="822.1904">(streamed)</text><polygon fill="#181818" points="704.5,893.3984,714.5,897.3984,704.5,901.3984,708.5,897.3984" style="stroke:#181818;stroke-width:1.0;"/><line style="stroke:#181818;stroke-width:1.0;" x1="442.5" x2="710.5" y1="897.3984" y2="897.3984"/><text fill="#000000" font-family="sans-serif" font-size="13" lengthAdjust="spacing" textLength="38" x="449.5" y="892.542">Create</text><text fill="#000000" font-family="sans-serif" font-size="13" lengthAdjust="spacing" textLength="4" x="487.5" y="892.542"> </text><text fill="#000000" font-family="sans-serif" font-size="13" lengthAdjust="spacing" textLength="7" x="491.5" y="892.542">a</text><text fill="#000000" font-family="sans-serif" font-size="13" lengthAdjust="spacing" textLength="4" x="498.5" y="892.542"> </text><text fill="#000000" font-family="sans-serif" font-size="13" lengthAdjust="spacing" textLength="53" x="502.5" y="892.542">container</text><polygon fill="#181818" points="453.5,923.75,443.5,927.75,453.5,931.75,449.5,927.75" style="stroke:#181818;stroke-width:1.0;"/><line style="stroke:#181818;stroke-width:1.0;stroke-dasharray:2.0,2.0;" x1="447.5" x2="720.5" y1="927.75" y2="927.75"/><text fill="#000000" font-family="sans-serif" font-size="13" lengthAdjust="spacing" textLength="55" x="459.5" y="922.8936">Container</text><polygon fill="#181818" points="704.5,954.1016,714.5,958.1016,704.5,962.1016,708.5,958.1016" style="stroke:#181818;stroke-width:1.0;"/><line style="stroke:#181818;stroke-width:1.0;" x1="442.5" x2="710.5" y1="958.1016" y2="958.1016"/><text fill="#000000" font-family="sans-serif" font-size="13" lengthAdjust="spacing" textLength="28" x="449.5" y="953.2451">Start</text><text fill="#000000" font-family="sans-serif" font-size="13" lengthAdjust="spacing" textLength="4" x="477.5" y="953.2451"> </text><text fill="#000000" font-family="sans-serif" font-size="13" lengthAdjust="spacing" textLength="18" x="481.5" y="953.2451">the</text><text fill="#000000" font-family="sans-serif" font-size="13" lengthAdjust="spacing" textLength="4" x="499.5" y="953.2451"> </text><text fill="#000000" font-family="sans-serif" font-size="13" lengthAdjust="spacing" textLength="53" x="503.5" y="953.2451">container</text><polygon fill="#181818" points="453.5,968.1016,443.5,972.1016,453.5,976.1016,449.5,972.1016" style="stroke:#181818;stroke-width:1.0;"/><line style="stroke:#181818;stroke-width:1.0;stroke-dasharray:2.0,2.0;" x1="447.5" x2="720.5" y1="972.1016" y2="972.1016"/><path d="M399.5,987.1016 L464.5,987.1016 L464.5,995.4531 L454.5,1005.4531 L399.5,1005.4531 L399.5,987.1016 " fill="#EEEEEE" style="stroke:#000000;stroke-width:1.5;"/><rect fill="none" height="61.7031" style="stroke:#000000;stroke-width:1.5;" width="236" x="399.5" y="987.1016"/><text fill="#000000" font-family="sans-serif" font-size="13" font-weight="bold" lengthAdjust="spacing" textLength="20" x="414.5" y="1001.5967">opt</text><text fill="#000000" font-family="sans-serif" font-size="11" font-weight="bold" lengthAdjust="spacing" textLength="151" x="479.5" y="1000.5205">[Reset interval is specified]</text><line style="stroke:#181818;stroke-width:1.0;" x1="442.5" x2="484.5" y1="1027.8047" y2="1027.8047"/><line style="stroke:#181818;stroke-width:1.0;" x1="484.5" x2="484.5" y1="1027.8047" y2="1040.8047"/><line style="stroke:#181818;stroke-width:1.0;" x1="443.5" x2="484.5" y1="1040.8047" y2="1040.8047"/><polygon fill="#181818" points="453.5,1036.8047,443.5,1040.8047,453.5,1044.8047,449.5,1040.8047" style="stroke:#181818;stroke-width:1.0;"/><text fill="#000000" font-family="sans-serif" font-size="13" lengthAdjust="spacing" textLength="54" x="449.5" y="1022.9482">Schedule</text><text fill="#000000" font-family="sans-serif" font-size="13" lengthAdjust="spacing" textLength="4" x="503.5" y="1022.9482"> </text><text fill="#000000" font-family="sans-serif" font-size="13" lengthAdjust="spacing" textLength="53" x="507.5" y="1022.9482">container</text><text fill="#000000" font-family="sans-serif" font-size="13" lengthAdjust="spacing" textLength="4" x="560.5" y="1022.9482"> </text><text fill="#000000" font-family="sans-serif" font-size="13" lengthAdjust="spacing" textLength="44" x="564.5" y="1022.9482">restarts</text><polygon fill="#181818" points="784.5,1074.1563,794.5,1078.1563,784.5,1082.1563,788.5,1078.1563" style="stroke:#181818;stroke-width:1.0;"/><line style="stroke:#181818;stroke-width:1.0;" x1="442.5" x2="790.5" y1="1078.1563" y2="1078.1563"/><text fill="#000000" font-family="sans-serif" font-size="13" lengthAdjust="spacing" textLength="31" x="449.5" y="1073.2998">Write</text><text fill="#000000" font-family="sans-serif" font-size="13" lengthAdjust="spacing" textLength="4" x="480.5" y="1073.2998"> </text><text fill="#000000" font-family="sans-serif" font-size="13" lengthAdjust="spacing" textLength="63" x="484.5" y="1073.2998">subdomain</text><text fill="#000000" font-family="sans-serif" font-size="13" lengthAdjust="spacing" textLength="4" x="547.5" y="1073.2998"> </text><text fill="#000000" font-family="sans-serif" font-size="13" lengthAdjust="spacing" textLength="73" x="551.5" y="1073.2998">configuration</text><text fill="#000000" font-family="sans-serif" font-size="13" lengthAdjust="spacing" textLength="4" x="624.5" y="1073.2998"> </text><text fill="#000000" font-family="sans-serif" font-size="13" lengthAdjust="spacing" textLength="16" x="628.5" y="1073.2998">file</text><polygon fill="#181818" points="453.5,1088.1563,443.5,1092.1563,453.5,1096.1563,449.5,1092.1563" style="stroke:#181818;stroke-width:1.0;"/><line style="stroke:#181818;stroke-width:1.0;stroke-dasharray:2.0,2.0;" x1="447.5" x2="800.5" y1="1092.1563" y2="1092.1563"/><polygon fill="#181818" points="898.5,1141.8594,908.5,1145.8594,898.5,1149.8594,902.5,1145.8594" style="stroke:#181818;stroke-width:1.0;"/><line style="stroke:#181818;stroke-width:1.0;" x1="442.5" x2="904.5" y1="1145.8594" y2="1145.8594"/><text fill="#000000" font-family="sans-serif" font-size="13" lengthAdjust="spacing" textLength="39" x="449.5" y="1124.6514">Spawn</text><text fill="#000000" font-family="sans-serif" font-size="13" lengthAdjust="spacing" textLength="4" x="488.5" y="1124.6514"> </text><text fill="#000000" font-family="sans-serif" font-size="13" lengthAdjust="spacing" textLength="31" x="492.5" y="1124.6514">nginx</text><text fill="#000000" font-family="sans-serif" font-size="13" lengthAdjust="spacing" textLength="4" x="523.5" y="1124.6514"> </text><text fill="#000000" font-family="sans-serif" font-size="13" lengthAdjust="spacing" textLength="46" x="527.5" y="1124.6514">process</text><text fill="#000000" font-family="sans-serif" font-size="13" lengthAdjust="spacing" textLength="4" x="573.5" y="1124.6514"> </text><text fill="#000000" font-family="sans-serif" font-size="13" lengthAdjust="spacing" textLength="23" x="577.5" y="1124.6514">with</text><text fill="#000000" font-family="sans-serif" font-size="13" lengthAdjust="spacing" textLength="4" x="600.5" y="1124.6514"> </text><text fill="#000000" font-family="sans-serif" font-size="13" lengthAdjust="spacing" textLength="16" x="604.5" y="1124.6514">"-s</text><text fill="#000000" font-family="sans-serif" font-size="13" lengthAdjust="spacing" textLength="40" x="449.5" y="1141.0029">reload"</text><text fill="#000000" font-family="sans-serif" font-size="13" lengthAdjust="spacing" textLength="4" x="489.5" y="1141.0029"> </text><text fill="#000000" font-family="sans-serif" font-size="13" lengthAdjust="spacing" textLength="11" x="493.5" y="1141.0029">to</text><text fill="#000000" font-family="sans-serif" font-size="13" lengthAdjust="spacing" textLength="4" x="504.5" y="1141.0029"> </text><text fill="#000000" font-family="sans-serif" font-size="13" lengthAdjust="spacing" textLength="35" x="508.5" y="1141.0029">reload</text><text fill="#000000" font-family="sans-serif" font-size="13" lengthAdjust="spacing" textLength="4" x="543.5" y="1141.0029"> </text><text fill="#000000" font-family="sans-serif" font-size="13" lengthAdjust="spacing" textLength="73" x="547.5" y="1141.0029">configuration</text><polygon fill="#181818" points="453.5,1172.2109,443.5,1176.2109,453.5,1180.2109,449.5,1176.2109" style="stroke:#181818;stroke-width:1.0;"/><line style="stroke:#181818;stroke-width:1.0;stroke-dasharray:2.0,2.0;" x1="447.5" x2="914.5" y1="1176.2109" y2="1176.2109"/><text fill="#000000" font-family="sans-serif" font-size="13" lengthAdjust="spacing" textLength="23" x="459.5" y="1171.3545">Exit</text><text fill="#000000" font-family="sans-serif" font-size="13" lengthAdjust="spacing" textLength="4" x="482.5" y="1171.3545"> </text><text fill="#000000" font-family="sans-serif" font-size="13" lengthAdjust="spacing" textLength="28" x="486.5" y="1171.3545">code</text><polygon fill="#181818" points="636.5,1202.5625,646.5,1206.5625,636.5,1210.5625,640.5,1206.5625" style="stroke:#181818;stroke-width:1.0;"/><line style="stroke:#181818;stroke-width:1.0;" x1="442.5" x2="642.5" y1="1206.5625" y2="1206.5625"/><text fill="#000000" font-family="sans-serif" font-size="13" lengthAdjust="spacing" textLength="45" x="449.5" y="1201.7061">Commit</text><text fill="#000000" font-family="sans-serif" font-size="13" lengthAdjust="spacing" textLength="4" x="494.5" y="1201.7061"> </text><text fill="#000000" font-family="sans-serif" font-size="13" lengthAdjust="spacing" textLength="18" x="498.5" y="1201.7061">the</text><text fill="#000000" font-family="sans-serif" font-size="13" lengthAdjust="spacing" textLength="4" x="516.5" y="1201.7061"> </text><text fill="#000000" font-family="sans-serif" font-size="13" lengthAdjust="spacing" textLength="64" x="520.5" y="1201.7061">transaction</text><polygon fill="#181818" points="255.5,1232.9141,245.5,1236.9141,255.5,1240.9141,251.5,1236.9141" style="stroke:#181818;stroke-width:1.0;"/><line style="stroke:#181818;stroke-width:1.0;stroke-dasharray:2.0,2.0;" x1="249.5" x2="436.5" y1="1236.9141" y2="1236.9141"/><text fill="#000000" font-family="sans-serif" font-size="13" lengthAdjust="spacing" textLength="34" x="261.5" y="1232.0576">{error:</text><text fill="#000000" font-family="sans-serif" font-size="13" lengthAdjust="spacing" textLength="4" x="295.5" y="1232.0576"> </text><text fill="#000000" font-family="sans-serif" font-size="13" lengthAdjust="spacing" textLength="24" x="299.5" y="1232.0576">null}</text><line style="stroke:#181818;stroke-width:1.0;" x1="244.5" x2="286.5" y1="1267.2656" y2="1267.2656"/><line style="stroke:#181818;stroke-width:1.0;" x1="286.5" x2="286.5" y1="1267.2656" y2="1280.2656"/><line style="stroke:#181818;stroke-width:1.0;" x1="245.5" x2="286.5" y1="1280.2656" y2="1280.2656"/><polygon fill="#181818" points="255.5,1276.2656,245.5,1280.2656,255.5,1284.2656,251.5,1280.2656" style="stroke:#181818;stroke-width:1.0;"/><text fill="#000000" font-family="sans-serif" font-size="13" lengthAdjust="spacing" textLength="26" x="251.5" y="1262.4092">Hide</text><text fill="#000000" font-family="sans-serif" font-size="13" lengthAdjust="spacing" textLength="4" x="277.5" y="1262.4092"> </text><text fill="#000000" font-family="sans-serif" font-size="13" lengthAdjust="spacing" textLength="18" x="281.5" y="1262.4092">the</text><text fill="#000000" font-family="sans-serif" font-size="13" lengthAdjust="spacing" textLength="4" x="299.5" y="1262.4092"> </text><text fill="#000000" font-family="sans-serif" font-size="13" lengthAdjust="spacing" textLength="25" x="303.5" y="1262.4092">form</text><polygon fill="#181818" points="420.5,1306.6172,430.5,1310.6172,420.5,1314.6172,424.5,1310.6172" style="stroke:#181818;stroke-width:1.0;"/><line style="stroke:#181818;stroke-width:1.0;" x1="244.5" x2="426.5" y1="1310.6172" y2="1310.6172"/><text fill="#000000" font-family="sans-serif" font-size="13" lengthAdjust="spacing" textLength="48" x="251.5" y="1305.7607">Request</text><text fill="#000000" font-family="sans-serif" font-size="13" lengthAdjust="spacing" textLength="4" x="299.5" y="1305.7607"> </text><text fill="#000000" font-family="sans-serif" font-size="13" lengthAdjust="spacing" textLength="32" x="303.5" y="1305.7607">tasks</text><text fill="#000000" font-family="sans-serif" font-size="13" lengthAdjust="spacing" textLength="4" x="335.5" y="1305.7607"> </text><text fill="#000000" font-family="sans-serif" font-size="13" lengthAdjust="spacing" textLength="17" x="339.5" y="1305.7607">list</text><polygon fill="#181818" points="631.5,1353.3203,641.5,1357.3203,631.5,1361.3203,635.5,1357.3203" style="stroke:#181818;stroke-width:1.0;"/><line style="stroke:#181818;stroke-width:1.0;" x1="442.5" x2="637.5" y1="1357.3203" y2="1357.3203"/><text fill="#000000" font-family="sans-serif" font-size="13" lengthAdjust="spacing" textLength="33" x="449.5" y="1336.1123">Fetch</text><text fill="#000000" font-family="sans-serif" font-size="13" lengthAdjust="spacing" textLength="4" x="482.5" y="1336.1123"> </text><text fill="#000000" font-family="sans-serif" font-size="13" lengthAdjust="spacing" textLength="13" x="486.5" y="1336.1123">all</text><text fill="#000000" font-family="sans-serif" font-size="13" lengthAdjust="spacing" textLength="4" x="499.5" y="1336.1123"> </text><text fill="#000000" font-family="sans-serif" font-size="13" lengthAdjust="spacing" textLength="64" x="503.5" y="1336.1123">documents</text><text fill="#000000" font-family="sans-serif" font-size="13" lengthAdjust="spacing" textLength="4" x="567.5" y="1336.1123"> </text><text fill="#000000" font-family="sans-serif" font-size="13" lengthAdjust="spacing" textLength="25" x="571.5" y="1336.1123">from</text><text fill="#000000" font-family="sans-serif" font-size="13" lengthAdjust="spacing" textLength="61" x="449.5" y="1352.4639">"fullTasks"</text><polygon fill="#181818" points="453.5,1383.6719,443.5,1387.6719,453.5,1391.6719,449.5,1387.6719" style="stroke:#181818;stroke-width:1.0;"/><line style="stroke:#181818;stroke-width:1.0;stroke-dasharray:2.0,2.0;" x1="447.5" x2="647.5" y1="1387.6719" y2="1387.6719"/><text fill="#000000" font-family="sans-serif" font-size="13" lengthAdjust="spacing" textLength="80" x="459.5" y="1382.8154">FullTaskDoc[]</text><polygon fill="#181818" points="255.5,1414.0234,245.5,1418.0234,255.5,1422.0234,251.5,1418.0234" style="stroke:#181818;stroke-width:1.0;"/><line style="stroke:#181818;stroke-width:1.0;stroke-dasharray:2.0,2.0;" x1="249.5" x2="436.5" y1="1418.0234" y2="1418.0234"/><text fill="#000000" font-family="sans-serif" font-size="13" lengthAdjust="spacing" textLength="35" x="261.5" y="1413.167">Tasks</text><text fill="#000000" font-family="sans-serif" font-size="13" lengthAdjust="spacing" textLength="4" x="296.5" y="1413.167"> </text><text fill="#000000" font-family="sans-serif" font-size="13" lengthAdjust="spacing" textLength="17" x="300.5" y="1413.167">list</text><line style="stroke:#181818;stroke-width:1.0;" x1="244.5" x2="286.5" y1="1448.375" y2="1448.375"/><line style="stroke:#181818;stroke-width:1.0;" x1="286.5" x2="286.5" y1="1448.375" y2="1461.375"/><line style="stroke:#181818;stroke-width:1.0;" x1="245.5" x2="286.5" y1="1461.375" y2="1461.375"/><polygon fill="#181818" points="255.5,1457.375,245.5,1461.375,255.5,1465.375,251.5,1461.375" style="stroke:#181818;stroke-width:1.0;"/><text fill="#000000" font-family="sans-serif" font-size="13" lengthAdjust="spacing" textLength="41" x="251.5" y="1443.5186">Update</text><text fill="#000000" font-family="sans-serif" font-size="13" lengthAdjust="spacing" textLength="4" x="292.5" y="1443.5186"> </text><text fill="#000000" font-family="sans-serif" font-size="13" lengthAdjust="spacing" textLength="32" x="296.5" y="1443.5186">tasks</text><text fill="#000000" font-family="sans-serif" font-size="13" lengthAdjust="spacing" textLength="4" x="328.5" y="1443.5186"> </text><text fill="#000000" font-family="sans-serif" font-size="13" lengthAdjust="spacing" textLength="17" x="332.5" y="1443.5186">list</text><polygon fill="#181818" points="67.5,1487.7266,57.5,1491.7266,67.5,1495.7266,63.5,1491.7266" style="stroke:#181818;stroke-width:1.0;"/><line style="stroke:#181818;stroke-width:1.0;stroke-dasharray:2.0,2.0;" x1="61.5" x2="238.5" y1="1491.7266" y2="1491.7266"/><text fill="#000000" font-family="sans-serif" font-size="13" lengthAdjust="spacing" textLength="48" x="73.5" y="1486.8701">Updated</text><text fill="#000000" font-family="sans-serif" font-size="13" lengthAdjust="spacing" textLength="4" x="121.5" y="1486.8701"> </text><text fill="#000000" font-family="sans-serif" font-size="13" lengthAdjust="spacing" textLength="32" x="125.5" y="1486.8701">tasks</text><text fill="#000000" font-family="sans-serif" font-size="13" lengthAdjust="spacing" textLength="4" x="157.5" y="1486.8701"> </text><text fill="#000000" font-family="sans-serif" font-size="13" lengthAdjust="spacing" textLength="17" x="161.5" y="1486.8701">list</text><!--SRC=[ZLHDQnin43rRlsBOKq9m2AKdKmfnNDCM4eSeRG-b1raQsy9QQIjfuwIb_pqZxQvtDmsqFfXbtdo-DwEmrxOINfHGYiTh345iaUjV26ykBXWJCZeFpUzIbThg4Br8DX7Wab5Wr59NmaQOUtS8s3aJF1_17Ft34KqmPqf4iHO1as4n-CxmOXo-S78_2b-CuAKs69v2nBA5bto45wiAgMzjjy2pMv6SLfmnwoA2aDw5C7in8aMYWR8E4TO8nWc5wfm6GOWxXChZWtPr0AN5Dl6teH25KMWJpXcxXEbxcCFPsGokZ9Rx71D5s0VwNpEFiVOM5ZfKHZoz05yFBcxma9qAMDSnEjibuJjto1wsTKYjbCSiiyIEoGxPFaZEwtMfOm_DkuWx52gRQJdg641ObGOcIeai-CnNDwnnvZdFxOhVP_UCy0QOmLVqUjCCbxJkWLlXGyFYjV1xvGwMc0lIwofgcYlxBTeM8yb8DKaJ6sWT4pvo-6HfwoB8dJ06xPPAELcNQ6D7J-EmidY7eJQHCLT5Kbhfb4kOFZAmoNyb3bdgKA-pOcmogdCjx5DR2ArwjTKiqJ-xDCvLiAH2AEGkI_lAY6t3ZGXrgx8kwOOJTFBsulJTT4huTDhYbNTRJrSE9xJbA4fKfsoKvOgiwI90EakxRD4V1xmwMaOHZKAfy5yXv9Z8ff4mqYf5UWE8S1qWL2ZrHgDYaybnAxZSeQhD80zGgoaxaPp9R7oNpT9zyveQ9HcKAyaxHMtqjavdxYniw4Kujj4hiMfYUILev-nMsyT4YKoC77JSGJ4DL3JTUW7HjP_Zr9rY7nxfTAHJs8jCzBcokwZXnYfC7m-9MNhOkWo_qNldPs19cJ-ilxwFMc5_bCD3kyEVDL7IlXM6dghHWYqnqgxGbWntrRiIYWsLk4z1HLTysLhePVt-epFUztcRRcRmfLAfxK75phb1r01w1W00]--></g></svg>