<?xml version="1.0" encoding="UTF-8" standalone="no"?><svg xmlns="http://www.w3.org/2000/svg" xmlns:xlink="http://www.w3.org/1999/xlink" contentStyleType="text/css" height="395px" preserveAspectRatio="none" style="width:555px;height:395px;background:#FFFFFF;" version="1.1" viewBox="0 0 555 395" width="555px" zoomAndPan="magnify"><defs/><g><rect fill="#FFFFFF" height="41.5273" style="stroke:#181818;stroke-width:1.0;" width="10" x="22.5" y="242.3672"/><rect fill="#FFFFFF" height="91.0547" style="stroke:#181818;stroke-width:1.0;" width="10" x="302.5" y="151.3125"/><rect fill="#FFFFFF" height="30.3516" style="stroke:#181818;stroke-width:1.0;" width="10" x="515.5" y="181.6641"/><line style="stroke:#181818;stroke-width:0.5;stroke-dasharray:5.0,5.0;" x1="27" x2="27" y1="82.6094" y2="313.0703"/><line style="stroke:#181818;stroke-width:0.5;stroke-dasharray:5.0,5.0;" x1="307.5" x2="307.5" y1="82.6094" y2="313.0703"/><line style="stroke:#181818;stroke-width:0.5;stroke-dasharray:5.0,5.0;" x1="520" x2="520" y1="82.6094" y2="313.0703"/><text fill="#000000" font-family="sans-serif" font-size="14" lengthAdjust="spacing" textLength="29" x="10" y="79.5332">User</text><ellipse cx="27.5" cy="13.5" fill="#E2E2F0" rx="8" ry="8" style="stroke:#181818;stroke-width:0.5;"/><path d="M27.5,21.5 L27.5,48.5 M14.5,29.5 L40.5,29.5 M27.5,48.5 L14.5,63.5 M27.5,48.5 L40.5,63.5 " fill="none" style="stroke:#181818;stroke-width:0.5;"/><text fill="#000000" font-family="sans-serif" font-size="14" lengthAdjust="spacing" textLength="29" x="10" y="326.6035">User</text><ellipse cx="27.5" cy="338.1797" fill="#E2E2F0" rx="8" ry="8" style="stroke:#181818;stroke-width:0.5;"/><path d="M27.5,346.1797 L27.5,373.1797 M14.5,354.1797 L40.5,354.1797 M27.5,373.1797 L14.5,388.1797 M27.5,373.1797 L40.5,388.1797 " fill="none" style="stroke:#181818;stroke-width:0.5;"/><rect fill="#E2E2F0" height="31.6094" rx="2.5" ry="2.5" style="stroke:#181818;stroke-width:0.5;" width="56" x="279.5" y="50"/><text fill="#000000" font-family="sans-serif" font-size="14" lengthAdjust="spacing" textLength="42" x="286.5" y="71.5332">Server</text><rect fill="#E2E2F0" height="31.6094" rx="2.5" ry="2.5" style="stroke:#181818;stroke-width:0.5;" width="56" x="279.5" y="312.0703"/><text fill="#000000" font-family="sans-serif" font-size="14" lengthAdjust="spacing" textLength="42" x="286.5" y="333.6035">Server</text><text fill="#000000" font-family="sans-serif" font-size="14" lengthAdjust="spacing" textLength="61" x="487" y="79.5332">Database</text><path d="M502.5,29 C502.5,19 520.5,19 520.5,19 C520.5,19 538.5,19 538.5,29 L538.5,55 C538.5,65 520.5,65 520.5,65 C520.5,65 502.5,65 502.5,55 L502.5,29 " fill="#E2E2F0" style="stroke:#181818;stroke-width:1.5;"/><path d="M502.5,29 C502.5,39 520.5,39 520.5,39 C520.5,39 538.5,39 538.5,29 " fill="none" style="stroke:#181818;stroke-width:1.5;"/><text fill="#000000" font-family="sans-serif" font-size="14" lengthAdjust="spacing" textLength="61" x="487" y="326.6035">Database</text><path d="M502.5,339.6797 C502.5,329.6797 520.5,329.6797 520.5,329.6797 C520.5,329.6797 538.5,329.6797 538.5,339.6797 L538.5,365.6797 C538.5,375.6797 520.5,375.6797 520.5,375.6797 C520.5,375.6797 502.5,375.6797 502.5,365.6797 L502.5,339.6797 " fill="#E2E2F0" style="stroke:#181818;stroke-width:1.5;"/><path d="M502.5,339.6797 C502.5,349.6797 520.5,349.6797 520.5,349.6797 C520.5,349.6797 538.5,349.6797 538.5,339.6797 " fill="none" style="stroke:#181818;stroke-width:1.5;"/><rect fill="#FFFFFF" height="41.5273" style="stroke:#181818;stroke-width:1.0;" width="10" x="22.5" y="242.3672"/><rect fill="#FFFFFF" height="91.0547" style="stroke:#181818;stroke-width:1.0;" width="10" x="302.5" y="151.3125"/><rect fill="#FFFFFF" height="30.3516" style="stroke:#181818;stroke-width:1.0;" width="10" x="515.5" y="181.6641"/><path d="M5,97.6094 L5,123.6094 L544,123.6094 L544,107.6094 L534,97.6094 L5,97.6094 " fill="#FEFFDD" style="stroke:#181818;stroke-width:0.5;"/><path d="M534,97.6094 L534,107.6094 L544,107.6094 L534,97.6094 " fill="#FEFFDD" style="stroke:#181818;stroke-width:0.5;"/><text fill="#000000" font-family="sans-serif" font-size="13" lengthAdjust="spacing" textLength="493" x="23.5" y="116.1045">User must be logged in, subission is from a solved task page - see previous diagrams</text><polygon fill="#181818" points="290.5,147.3125,300.5,151.3125,290.5,155.3125,294.5,151.3125" style="stroke:#181818;stroke-width:1.0;"/><line style="stroke:#181818;stroke-width:1.0;" x1="27.5" x2="296.5" y1="151.3125" y2="151.3125"/><text fill="#000000" font-family="sans-serif" font-size="13" lengthAdjust="spacing" textLength="96" x="34.5" y="146.4561">Answer question</text><polygon fill="#181818" points="503.5,177.6641,513.5,181.6641,503.5,185.6641,507.5,181.6641" style="stroke:#181818;stroke-width:1.0;"/><line style="stroke:#181818;stroke-width:1.0;" x1="312.5" x2="509.5" y1="181.6641" y2="181.6641"/><text fill="#000000" font-family="sans-serif" font-size="13" lengthAdjust="spacing" textLength="184" x="319.5" y="176.8076">Save answers in user document</text><polygon fill="#181818" points="323.5,208.0156,313.5,212.0156,323.5,216.0156,319.5,212.0156" style="stroke:#181818;stroke-width:1.0;"/><line style="stroke:#181818;stroke-width:1.0;stroke-dasharray:2.0,2.0;" x1="317.5" x2="519.5" y1="212.0156" y2="212.0156"/><text fill="#000000" font-family="sans-serif" font-size="13" lengthAdjust="spacing" textLength="78" x="329.5" y="207.1592">UpdateResult</text><polygon fill="#181818" points="43.5,238.3672,33.5,242.3672,43.5,246.3672,39.5,242.3672" style="stroke:#181818;stroke-width:1.0;"/><line style="stroke:#181818;stroke-width:1.0;stroke-dasharray:2.0,2.0;" x1="37.5" x2="306.5" y1="242.3672" y2="242.3672"/><text fill="#000000" font-family="sans-serif" font-size="13" lengthAdjust="spacing" textLength="148" x="49.5" y="237.5107">302, redirect to task page</text><polygon fill="#181818" points="295.5,279.8945,305.5,283.8945,295.5,287.8945,299.5,283.8945" style="stroke:#181818;stroke-width:1.0;"/><line style="stroke:#181818;stroke-width:1.0;" x1="27.5" x2="301.5" y1="283.8945" y2="283.8945"/><text fill="#000000" font-family="sans-serif" font-size="13" lengthAdjust="spacing" textLength="251" x="34.5" y="279.0381">Request task page (browser, automatically)</text><path d="M312,255.3672 L312,297.3672 L509,297.3672 L509,265.3672 L499,255.3672 L312,255.3672 " fill="#FEFFDD" style="stroke:#181818;stroke-width:0.5;"/><path d="M499,255.3672 L499,265.3672 L509,265.3672 L499,255.3672 " fill="#FEFFDD" style="stroke:#181818;stroke-width:0.5;"/><text fill="#000000" font-family="sans-serif" font-size="13" lengthAdjust="spacing" textLength="157" x="318" y="273.8623">Standard task handling like</text><text fill="#000000" font-family="sans-serif" font-size="13" lengthAdjust="spacing" textLength="176" x="318" y="290.2139">in Fig. \ref{fig:seq-task} follows</text><!--SRC=[JP71RiCW38RlF8MFcvHCqtRhOTAgQWzGnAqN9pWKbK2AIQffshlFIQEbd8pzOV-_mRQa3FTZcDOG6OmQC1VV-W5Z0KrvkXUbf9N5WWqopOd3Voobmrwfc0f1cd5JpOcbRJzoWOOW9EV8WeyLyDXuPfyYU8OkfnuGE8L9oWNv0WCwWXgO28PCaqyZW_NeClQiA5gO1obbeFu03JluZ7oJITUHk4XNXMtn4ueMhVJC7FO2QPm8S25PLC0uYxEf7NkAPNiYiWMlryvc4CDq91v3KPOUARr0Hg3trxSACbcVgIrGqcRYyOdUPfXD-f4MrG- -dvgSRgAj0XnBwb5-0aFuVdxiPTPTP-_EHQmLZ1RpkhspN8AF3eA_q2cArI_lNk1qojJzTDxjcAxrJFv2bqAGOUeF]--></g></svg>