<?xml version="1.0" encoding="UTF-8" standalone="no"?><svg xmlns="http://www.w3.org/2000/svg" xmlns:xlink="http://www.w3.org/1999/xlink" contentStyleType="text/css" height="964px" preserveAspectRatio="none" style="width:679px;height:964px;background:#FFFFFF;" version="1.1" viewBox="0 0 679 964" width="679px" zoomAndPan="magnify"><defs/><g><rect fill="#FFFFFF" height="757.1406" style="stroke:#181818;stroke-width:1.0;" width="10" x="238.5" y="114.9609"/><rect fill="#FFFFFF" height="30.3516" style="stroke:#181818;stroke-width:1.0;" width="10" x="433.5" y="145.3125"/><rect fill="#FFFFFF" height="184.4609" style="stroke:#181818;stroke-width:1.0;" width="10" x="433.5" y="261.7188"/><rect fill="#FFFFFF" height="107.4063" style="stroke:#181818;stroke-width:1.0;" width="10" x="433.5" y="525.2344"/><rect fill="#FFFFFF" height="107.4063" style="stroke:#181818;stroke-width:1.0;" width="10" x="433.5" y="706.3438"/><rect fill="#FFFFFF" height="30.3516" style="stroke:#181818;stroke-width:1.0;" width="10" x="623.5" y="308.4219"/><rect fill="#FFFFFF" height="30.3516" style="stroke:#181818;stroke-width:1.0;" width="10" x="623.5" y="385.4766"/><rect fill="#FFFFFF" height="30.3516" style="stroke:#181818;stroke-width:1.0;" width="10" x="623.5" y="571.9375"/><rect fill="#FFFFFF" height="30.3516" style="stroke:#181818;stroke-width:1.0;" width="10" x="623.5" y="753.0469"/><rect fill="none" height="644.0859" style="stroke:#000000;stroke-width:1.5;" width="662" x="10" y="221.0156"/><line style="stroke:#181818;stroke-width:0.5;stroke-dasharray:5.0,5.0;" x1="64" x2="64" y1="82.6094" y2="882.1016"/><line style="stroke:#181818;stroke-width:0.5;stroke-dasharray:5.0,5.0;" x1="243" x2="243" y1="82.6094" y2="882.1016"/><line style="stroke:#181818;stroke-width:0.5;stroke-dasharray:5.0,5.0;" x1="438.5" x2="438.5" y1="82.6094" y2="882.1016"/><line style="stroke:#181818;stroke-width:0.5;stroke-dasharray:5.0,5.0;" x1="628" x2="628" y1="82.6094" y2="882.1016"/><text fill="#000000" font-family="sans-serif" font-size="14" lengthAdjust="spacing" textLength="83" x="20" y="79.5332">Administrator</text><ellipse cx="64.5" cy="13.5" fill="#E2E2F0" rx="8" ry="8" style="stroke:#181818;stroke-width:0.5;"/><path d="M64.5,21.5 L64.5,48.5 M51.5,29.5 L77.5,29.5 M64.5,48.5 L51.5,63.5 M64.5,48.5 L77.5,63.5 " fill="none" style="stroke:#181818;stroke-width:0.5;"/><text fill="#000000" font-family="sans-serif" font-size="14" lengthAdjust="spacing" textLength="83" x="20" y="895.6348">Administrator</text><ellipse cx="64.5" cy="907.2109" fill="#E2E2F0" rx="8" ry="8" style="stroke:#181818;stroke-width:0.5;"/><path d="M64.5,915.2109 L64.5,942.2109 M51.5,923.2109 L77.5,923.2109 M64.5,942.2109 L51.5,957.2109 M64.5,942.2109 L77.5,957.2109 " fill="none" style="stroke:#181818;stroke-width:0.5;"/><rect fill="#E2E2F0" height="31.6094" rx="2.5" ry="2.5" style="stroke:#181818;stroke-width:0.5;" width="65" x="211" y="50"/><text fill="#000000" font-family="sans-serif" font-size="14" lengthAdjust="spacing" textLength="51" x="218" y="71.5332">Browser</text><rect fill="#E2E2F0" height="31.6094" rx="2.5" ry="2.5" style="stroke:#181818;stroke-width:0.5;" width="65" x="211" y="881.1016"/><text fill="#000000" font-family="sans-serif" font-size="14" lengthAdjust="spacing" textLength="51" x="218" y="902.6348">Browser</text><rect fill="#E2E2F0" height="31.6094" rx="2.5" ry="2.5" style="stroke:#181818;stroke-width:0.5;" width="56" x="410.5" y="50"/><text fill="#000000" font-family="sans-serif" font-size="14" lengthAdjust="spacing" textLength="42" x="417.5" y="71.5332">Server</text><rect fill="#E2E2F0" height="31.6094" rx="2.5" ry="2.5" style="stroke:#181818;stroke-width:0.5;" width="56" x="410.5" y="881.1016"/><text fill="#000000" font-family="sans-serif" font-size="14" lengthAdjust="spacing" textLength="42" x="417.5" y="902.6348">Server</text><text fill="#000000" font-family="sans-serif" font-size="14" lengthAdjust="spacing" textLength="61" x="595" y="79.5332">Database</text><path d="M610.5,29 C610.5,19 628.5,19 628.5,19 C628.5,19 646.5,19 646.5,29 L646.5,55 C646.5,65 628.5,65 628.5,65 C628.5,65 610.5,65 610.5,55 L610.5,29 " fill="#E2E2F0" style="stroke:#181818;stroke-width:1.5;"/><path d="M610.5,29 C610.5,39 628.5,39 628.5,39 C628.5,39 646.5,39 646.5,29 " fill="none" style="stroke:#181818;stroke-width:1.5;"/><text fill="#000000" font-family="sans-serif" font-size="14" lengthAdjust="spacing" textLength="61" x="595" y="895.6348">Database</text><path d="M610.5,908.7109 C610.5,898.7109 628.5,898.7109 628.5,898.7109 C628.5,898.7109 646.5,898.7109 646.5,908.7109 L646.5,934.7109 C646.5,944.7109 628.5,944.7109 628.5,944.7109 C628.5,944.7109 610.5,944.7109 610.5,934.7109 L610.5,908.7109 " fill="#E2E2F0" style="stroke:#181818;stroke-width:1.5;"/><path d="M610.5,908.7109 C610.5,918.7109 628.5,918.7109 628.5,918.7109 C628.5,918.7109 646.5,918.7109 646.5,908.7109 " fill="none" style="stroke:#181818;stroke-width:1.5;"/><rect fill="#FFFFFF" height="757.1406" style="stroke:#181818;stroke-width:1.0;" width="10" x="238.5" y="114.9609"/><rect fill="#FFFFFF" height="30.3516" style="stroke:#181818;stroke-width:1.0;" width="10" x="433.5" y="145.3125"/><rect fill="#FFFFFF" height="184.4609" style="stroke:#181818;stroke-width:1.0;" width="10" x="433.5" y="261.7188"/><rect fill="#FFFFFF" height="107.4063" style="stroke:#181818;stroke-width:1.0;" width="10" x="433.5" y="525.2344"/><rect fill="#FFFFFF" height="107.4063" style="stroke:#181818;stroke-width:1.0;" width="10" x="433.5" y="706.3438"/><rect fill="#FFFFFF" height="30.3516" style="stroke:#181818;stroke-width:1.0;" width="10" x="623.5" y="308.4219"/><rect fill="#FFFFFF" height="30.3516" style="stroke:#181818;stroke-width:1.0;" width="10" x="623.5" y="385.4766"/><rect fill="#FFFFFF" height="30.3516" style="stroke:#181818;stroke-width:1.0;" width="10" x="623.5" y="571.9375"/><rect fill="#FFFFFF" height="30.3516" style="stroke:#181818;stroke-width:1.0;" width="10" x="623.5" y="753.0469"/><polygon fill="#181818" points="226.5,110.9609,236.5,114.9609,226.5,118.9609,230.5,114.9609" style="stroke:#181818;stroke-width:1.0;"/><line style="stroke:#181818;stroke-width:1.0;" x1="64.5" x2="232.5" y1="114.9609" y2="114.9609"/><text fill="#000000" font-family="sans-serif" font-size="13" lengthAdjust="spacing" textLength="29" x="71.5" y="110.1045">Click</text><text fill="#000000" font-family="sans-serif" font-size="13" lengthAdjust="spacing" textLength="4" x="100.5" y="110.1045"> </text><text fill="#000000" font-family="sans-serif" font-size="13" lengthAdjust="spacing" textLength="42" x="104.5" y="110.1045">"Admin</text><text fill="#000000" font-family="sans-serif" font-size="13" lengthAdjust="spacing" textLength="4" x="146.5" y="110.1045"> </text><text fill="#000000" font-family="sans-serif" font-size="13" lengthAdjust="spacing" textLength="36" x="150.5" y="110.1045">panel"</text><text fill="#000000" font-family="sans-serif" font-size="13" lengthAdjust="spacing" textLength="4" x="186.5" y="110.1045"> </text><text fill="#000000" font-family="sans-serif" font-size="13" lengthAdjust="spacing" textLength="36" x="190.5" y="110.1045">button</text><polygon fill="#181818" points="421.5,141.3125,431.5,145.3125,421.5,149.3125,425.5,145.3125" style="stroke:#181818;stroke-width:1.0;"/><line style="stroke:#181818;stroke-width:1.0;" x1="248.5" x2="427.5" y1="145.3125" y2="145.3125"/><text fill="#000000" font-family="sans-serif" font-size="13" lengthAdjust="spacing" textLength="48" x="255.5" y="140.4561">Request</text><text fill="#000000" font-family="sans-serif" font-size="13" lengthAdjust="spacing" textLength="4" x="303.5" y="140.4561"> </text><text fill="#000000" font-family="sans-serif" font-size="13" lengthAdjust="spacing" textLength="35" x="307.5" y="140.4561">admin</text><text fill="#000000" font-family="sans-serif" font-size="13" lengthAdjust="spacing" textLength="4" x="342.5" y="140.4561"> </text><text fill="#000000" font-family="sans-serif" font-size="13" lengthAdjust="spacing" textLength="31" x="346.5" y="140.4561">panel</text><text fill="#000000" font-family="sans-serif" font-size="13" lengthAdjust="spacing" textLength="4" x="377.5" y="140.4561"> </text><text fill="#000000" font-family="sans-serif" font-size="13" lengthAdjust="spacing" textLength="28" x="381.5" y="140.4561">page</text><polygon fill="#181818" points="259.5,171.6641,249.5,175.6641,259.5,179.6641,255.5,175.6641" style="stroke:#181818;stroke-width:1.0;"/><line style="stroke:#181818;stroke-width:1.0;stroke-dasharray:2.0,2.0;" x1="253.5" x2="437.5" y1="175.6641" y2="175.6641"/><text fill="#000000" font-family="sans-serif" font-size="13" lengthAdjust="spacing" textLength="55" x="265.5" y="170.8076">Rendered</text><text fill="#000000" font-family="sans-serif" font-size="13" lengthAdjust="spacing" textLength="4" x="320.5" y="170.8076"> </text><text fill="#000000" font-family="sans-serif" font-size="13" lengthAdjust="spacing" textLength="35" x="324.5" y="170.8076">admin</text><text fill="#000000" font-family="sans-serif" font-size="13" lengthAdjust="spacing" textLength="4" x="359.5" y="170.8076"> </text><text fill="#000000" font-family="sans-serif" font-size="13" lengthAdjust="spacing" textLength="31" x="363.5" y="170.8076">panel</text><text fill="#000000" font-family="sans-serif" font-size="13" lengthAdjust="spacing" textLength="4" x="394.5" y="170.8076"> </text><text fill="#000000" font-family="sans-serif" font-size="13" lengthAdjust="spacing" textLength="28" x="398.5" y="170.8076">page</text><polygon fill="#181818" points="75.5,202.0156,65.5,206.0156,75.5,210.0156,71.5,206.0156" style="stroke:#181818;stroke-width:1.0;"/><line style="stroke:#181818;stroke-width:1.0;stroke-dasharray:2.0,2.0;" x1="69.5" x2="237.5" y1="206.0156" y2="206.0156"/><text fill="#000000" font-family="sans-serif" font-size="13" lengthAdjust="spacing" textLength="43" x="81.5" y="201.1592">Display</text><text fill="#000000" font-family="sans-serif" font-size="13" lengthAdjust="spacing" textLength="4" x="124.5" y="201.1592"> </text><text fill="#000000" font-family="sans-serif" font-size="13" lengthAdjust="spacing" textLength="35" x="128.5" y="201.1592">admin</text><text fill="#000000" font-family="sans-serif" font-size="13" lengthAdjust="spacing" textLength="4" x="163.5" y="201.1592"> </text><text fill="#000000" font-family="sans-serif" font-size="13" lengthAdjust="spacing" textLength="31" x="167.5" y="201.1592">panel</text><path d="M10,221.0156 L76,221.0156 L76,229.3672 L66,239.3672 L10,239.3672 L10,221.0156 " fill="#EEEEEE" style="stroke:#000000;stroke-width:1.5;"/><rect fill="none" height="644.0859" style="stroke:#000000;stroke-width:1.5;" width="662" x="10" y="221.0156"/><text fill="#000000" font-family="sans-serif" font-size="13" font-weight="bold" lengthAdjust="spacing" textLength="21" x="25" y="235.5107">par</text><polygon fill="#181818" points="421.5,257.7188,431.5,261.7188,421.5,265.7188,425.5,261.7188" style="stroke:#181818;stroke-width:1.0;"/><line style="stroke:#181818;stroke-width:1.0;" x1="248.5" x2="427.5" y1="261.7188" y2="261.7188"/><text fill="#000000" font-family="sans-serif" font-size="13" lengthAdjust="spacing" textLength="48" x="255.5" y="256.8623">Request</text><text fill="#000000" font-family="sans-serif" font-size="13" lengthAdjust="spacing" textLength="4" x="303.5" y="256.8623"> </text><text fill="#000000" font-family="sans-serif" font-size="13" lengthAdjust="spacing" textLength="17" x="307.5" y="256.8623">list</text><text fill="#000000" font-family="sans-serif" font-size="13" lengthAdjust="spacing" textLength="4" x="324.5" y="256.8623"> </text><text fill="#000000" font-family="sans-serif" font-size="13" lengthAdjust="spacing" textLength="10" x="328.5" y="256.8623">of</text><text fill="#000000" font-family="sans-serif" font-size="13" lengthAdjust="spacing" textLength="4" x="338.5" y="256.8623"> </text><text fill="#000000" font-family="sans-serif" font-size="13" lengthAdjust="spacing" textLength="32" x="342.5" y="256.8623">users</text><text fill="#000000" font-family="sans-serif" font-size="13" lengthAdjust="spacing" textLength="4" x="374.5" y="256.8623"> </text><text fill="#000000" font-family="sans-serif" font-size="13" lengthAdjust="spacing" textLength="33" x="378.5" y="256.8623">(1-10)</text><polygon fill="#181818" points="611.5,304.4219,621.5,308.4219,611.5,312.4219,615.5,308.4219" style="stroke:#181818;stroke-width:1.0;"/><line style="stroke:#181818;stroke-width:1.0;" x1="443.5" x2="617.5" y1="308.4219" y2="308.4219"/><text fill="#000000" font-family="sans-serif" font-size="13" lengthAdjust="spacing" textLength="33" x="450.5" y="287.2139">Fetch</text><text fill="#000000" font-family="sans-serif" font-size="13" lengthAdjust="spacing" textLength="4" x="483.5" y="287.2139"> </text><text fill="#000000" font-family="sans-serif" font-size="13" lengthAdjust="spacing" textLength="14" x="487.5" y="287.2139">10</text><text fill="#000000" font-family="sans-serif" font-size="13" lengthAdjust="spacing" textLength="4" x="501.5" y="287.2139"> </text><text fill="#000000" font-family="sans-serif" font-size="13" lengthAdjust="spacing" textLength="64" x="505.5" y="287.2139">documents</text><text fill="#000000" font-family="sans-serif" font-size="13" lengthAdjust="spacing" textLength="4" x="569.5" y="287.2139"> </text><text fill="#000000" font-family="sans-serif" font-size="13" lengthAdjust="spacing" textLength="25" x="573.5" y="287.2139">from</text><text fill="#000000" font-family="sans-serif" font-size="13" lengthAdjust="spacing" textLength="42" x="450.5" y="303.5654">"users"</text><polygon fill="#181818" points="454.5,334.7734,444.5,338.7734,454.5,342.7734,450.5,338.7734" style="stroke:#181818;stroke-width:1.0;"/><line style="stroke:#181818;stroke-width:1.0;stroke-dasharray:2.0,2.0;" x1="448.5" x2="627.5" y1="338.7734" y2="338.7734"/><text fill="#000000" font-family="sans-serif" font-size="13" lengthAdjust="spacing" textLength="58" x="460.5" y="333.917">UserDoc[]</text><polygon fill="#181818" points="611.5,381.4766,621.5,385.4766,611.5,389.4766,615.5,385.4766" style="stroke:#181818;stroke-width:1.0;"/><line style="stroke:#181818;stroke-width:1.0;" x1="443.5" x2="617.5" y1="385.4766" y2="385.4766"/><text fill="#000000" font-family="sans-serif" font-size="13" lengthAdjust="spacing" textLength="21" x="450.5" y="364.2686">Get</text><text fill="#000000" font-family="sans-serif" font-size="13" lengthAdjust="spacing" textLength="4" x="471.5" y="364.2686"> </text><text fill="#000000" font-family="sans-serif" font-size="13" lengthAdjust="spacing" textLength="57" x="475.5" y="364.2686">estimated</text><text fill="#000000" font-family="sans-serif" font-size="13" lengthAdjust="spacing" textLength="4" x="532.5" y="364.2686"> </text><text fill="#000000" font-family="sans-serif" font-size="13" lengthAdjust="spacing" textLength="57" x="536.5" y="364.2686">document</text><text fill="#000000" font-family="sans-serif" font-size="13" lengthAdjust="spacing" textLength="32" x="450.5" y="380.6201">count</text><text fill="#000000" font-family="sans-serif" font-size="13" lengthAdjust="spacing" textLength="4" x="482.5" y="380.6201"> </text><text fill="#000000" font-family="sans-serif" font-size="13" lengthAdjust="spacing" textLength="10" x="486.5" y="380.6201">in</text><text fill="#000000" font-family="sans-serif" font-size="13" lengthAdjust="spacing" textLength="4" x="496.5" y="380.6201"> </text><text fill="#000000" font-family="sans-serif" font-size="13" lengthAdjust="spacing" textLength="42" x="500.5" y="380.6201">"users"</text><polygon fill="#181818" points="454.5,411.8281,444.5,415.8281,454.5,419.8281,450.5,415.8281" style="stroke:#181818;stroke-width:1.0;"/><line style="stroke:#181818;stroke-width:1.0;stroke-dasharray:2.0,2.0;" x1="448.5" x2="627.5" y1="415.8281" y2="415.8281"/><text fill="#000000" font-family="sans-serif" font-size="13" lengthAdjust="spacing" textLength="59" x="460.5" y="410.9717">Estimated</text><text fill="#000000" font-family="sans-serif" font-size="13" lengthAdjust="spacing" textLength="4" x="519.5" y="410.9717"> </text><text fill="#000000" font-family="sans-serif" font-size="13" lengthAdjust="spacing" textLength="57" x="523.5" y="410.9717">document</text><text fill="#000000" font-family="sans-serif" font-size="13" lengthAdjust="spacing" textLength="4" x="580.5" y="410.9717"> </text><text fill="#000000" font-family="sans-serif" font-size="13" lengthAdjust="spacing" textLength="32" x="584.5" y="410.9717">count</text><polygon fill="#181818" points="259.5,442.1797,249.5,446.1797,259.5,450.1797,255.5,446.1797" style="stroke:#181818;stroke-width:1.0;"/><line style="stroke:#181818;stroke-width:1.0;stroke-dasharray:2.0,2.0;" x1="253.5" x2="437.5" y1="446.1797" y2="446.1797"/><text fill="#000000" font-family="sans-serif" font-size="13" lengthAdjust="spacing" textLength="34" x="265.5" y="441.3232">Users</text><text fill="#000000" font-family="sans-serif" font-size="13" lengthAdjust="spacing" textLength="4" x="299.5" y="441.3232"> </text><text fill="#000000" font-family="sans-serif" font-size="13" lengthAdjust="spacing" textLength="17" x="303.5" y="441.3232">list</text><text fill="#000000" font-family="sans-serif" font-size="13" lengthAdjust="spacing" textLength="4" x="320.5" y="441.3232"> </text><text fill="#000000" font-family="sans-serif" font-size="13" lengthAdjust="spacing" textLength="21" x="324.5" y="441.3232">and</text><text fill="#000000" font-family="sans-serif" font-size="13" lengthAdjust="spacing" textLength="4" x="345.5" y="441.3232"> </text><text fill="#000000" font-family="sans-serif" font-size="13" lengthAdjust="spacing" textLength="32" x="349.5" y="441.3232">count</text><polygon fill="#181818" points="75.5,488.8828,65.5,492.8828,75.5,496.8828,71.5,492.8828" style="stroke:#181818;stroke-width:1.0;"/><line style="stroke:#181818;stroke-width:1.0;" x1="69.5" x2="237.5" y1="492.8828" y2="492.8828"/><text fill="#000000" font-family="sans-serif" font-size="13" lengthAdjust="spacing" textLength="43" x="81.5" y="471.6748">Display</text><text fill="#000000" font-family="sans-serif" font-size="13" lengthAdjust="spacing" textLength="4" x="124.5" y="471.6748"> </text><text fill="#000000" font-family="sans-serif" font-size="13" lengthAdjust="spacing" textLength="46" x="128.5" y="471.6748">updated</text><text fill="#000000" font-family="sans-serif" font-size="13" lengthAdjust="spacing" textLength="4" x="174.5" y="471.6748"> </text><text fill="#000000" font-family="sans-serif" font-size="13" lengthAdjust="spacing" textLength="17" x="178.5" y="471.6748">list</text><text fill="#000000" font-family="sans-serif" font-size="13" lengthAdjust="spacing" textLength="4" x="195.5" y="471.6748"> </text><text fill="#000000" font-family="sans-serif" font-size="13" lengthAdjust="spacing" textLength="21" x="199.5" y="471.6748">and</text><text fill="#000000" font-family="sans-serif" font-size="13" lengthAdjust="spacing" textLength="59" x="81.5" y="488.0264">pagination</text><line style="stroke:#000000;stroke-width:1.0;stroke-dasharray:2.0,2.0;" x1="10" x2="672" y1="501.8828" y2="501.8828"/><polygon fill="#181818" points="421.5,521.2344,431.5,525.2344,421.5,529.2344,425.5,525.2344" style="stroke:#181818;stroke-width:1.0;"/><line style="stroke:#181818;stroke-width:1.0;" x1="248.5" x2="427.5" y1="525.2344" y2="525.2344"/><text fill="#000000" font-family="sans-serif" font-size="13" lengthAdjust="spacing" textLength="48" x="255.5" y="520.3779">Request</text><text fill="#000000" font-family="sans-serif" font-size="13" lengthAdjust="spacing" textLength="4" x="303.5" y="520.3779"> </text><text fill="#000000" font-family="sans-serif" font-size="13" lengthAdjust="spacing" textLength="60" x="307.5" y="520.3779">categories</text><text fill="#000000" font-family="sans-serif" font-size="13" lengthAdjust="spacing" textLength="4" x="367.5" y="520.3779"> </text><text fill="#000000" font-family="sans-serif" font-size="13" lengthAdjust="spacing" textLength="17" x="371.5" y="520.3779">list</text><polygon fill="#181818" points="611.5,567.9375,621.5,571.9375,611.5,575.9375,615.5,571.9375" style="stroke:#181818;stroke-width:1.0;"/><line style="stroke:#181818;stroke-width:1.0;" x1="443.5" x2="617.5" y1="571.9375" y2="571.9375"/><text fill="#000000" font-family="sans-serif" font-size="13" lengthAdjust="spacing" textLength="33" x="450.5" y="550.7295">Fetch</text><text fill="#000000" font-family="sans-serif" font-size="13" lengthAdjust="spacing" textLength="4" x="483.5" y="550.7295"> </text><text fill="#000000" font-family="sans-serif" font-size="13" lengthAdjust="spacing" textLength="13" x="487.5" y="550.7295">all</text><text fill="#000000" font-family="sans-serif" font-size="13" lengthAdjust="spacing" textLength="4" x="500.5" y="550.7295"> </text><text fill="#000000" font-family="sans-serif" font-size="13" lengthAdjust="spacing" textLength="64" x="504.5" y="550.7295">documents</text><text fill="#000000" font-family="sans-serif" font-size="13" lengthAdjust="spacing" textLength="4" x="568.5" y="550.7295"> </text><text fill="#000000" font-family="sans-serif" font-size="13" lengthAdjust="spacing" textLength="25" x="572.5" y="550.7295">from</text><text fill="#000000" font-family="sans-serif" font-size="13" lengthAdjust="spacing" textLength="70" x="450.5" y="567.0811">"categories"</text><polygon fill="#181818" points="454.5,598.2891,444.5,602.2891,454.5,606.2891,450.5,602.2891" style="stroke:#181818;stroke-width:1.0;"/><line style="stroke:#181818;stroke-width:1.0;stroke-dasharray:2.0,2.0;" x1="448.5" x2="627.5" y1="602.2891" y2="602.2891"/><text fill="#000000" font-family="sans-serif" font-size="13" lengthAdjust="spacing" textLength="83" x="460.5" y="597.4326">CategoryDoc[]</text><polygon fill="#181818" points="259.5,628.6406,249.5,632.6406,259.5,636.6406,255.5,632.6406" style="stroke:#181818;stroke-width:1.0;"/><line style="stroke:#181818;stroke-width:1.0;stroke-dasharray:2.0,2.0;" x1="253.5" x2="437.5" y1="632.6406" y2="632.6406"/><text fill="#000000" font-family="sans-serif" font-size="13" lengthAdjust="spacing" textLength="62" x="265.5" y="627.7842">Categories</text><text fill="#000000" font-family="sans-serif" font-size="13" lengthAdjust="spacing" textLength="4" x="327.5" y="627.7842"> </text><text fill="#000000" font-family="sans-serif" font-size="13" lengthAdjust="spacing" textLength="17" x="331.5" y="627.7842">list</text><line style="stroke:#181818;stroke-width:1.0;" x1="248.5" x2="290.5" y1="662.9922" y2="662.9922"/><line style="stroke:#181818;stroke-width:1.0;" x1="290.5" x2="290.5" y1="662.9922" y2="675.9922"/><line style="stroke:#181818;stroke-width:1.0;" x1="249.5" x2="290.5" y1="675.9922" y2="675.9922"/><polygon fill="#181818" points="259.5,671.9922,249.5,675.9922,259.5,679.9922,255.5,675.9922" style="stroke:#181818;stroke-width:1.0;"/><text fill="#000000" font-family="sans-serif" font-size="13" lengthAdjust="spacing" textLength="41" x="255.5" y="658.1357">Update</text><text fill="#000000" font-family="sans-serif" font-size="13" lengthAdjust="spacing" textLength="4" x="296.5" y="658.1357"> </text><text fill="#000000" font-family="sans-serif" font-size="13" lengthAdjust="spacing" textLength="60" x="300.5" y="658.1357">categories</text><text fill="#000000" font-family="sans-serif" font-size="13" lengthAdjust="spacing" textLength="4" x="360.5" y="658.1357"> </text><text fill="#000000" font-family="sans-serif" font-size="13" lengthAdjust="spacing" textLength="17" x="364.5" y="658.1357">list</text><polygon fill="#181818" points="421.5,702.3438,431.5,706.3438,421.5,710.3438,425.5,706.3438" style="stroke:#181818;stroke-width:1.0;"/><line style="stroke:#181818;stroke-width:1.0;" x1="248.5" x2="427.5" y1="706.3438" y2="706.3438"/><text fill="#000000" font-family="sans-serif" font-size="13" lengthAdjust="spacing" textLength="48" x="255.5" y="701.4873">Request</text><text fill="#000000" font-family="sans-serif" font-size="13" lengthAdjust="spacing" textLength="4" x="303.5" y="701.4873"> </text><text fill="#000000" font-family="sans-serif" font-size="13" lengthAdjust="spacing" textLength="32" x="307.5" y="701.4873">tasks</text><text fill="#000000" font-family="sans-serif" font-size="13" lengthAdjust="spacing" textLength="4" x="339.5" y="701.4873"> </text><text fill="#000000" font-family="sans-serif" font-size="13" lengthAdjust="spacing" textLength="17" x="343.5" y="701.4873">list</text><polygon fill="#181818" points="611.5,749.0469,621.5,753.0469,611.5,757.0469,615.5,753.0469" style="stroke:#181818;stroke-width:1.0;"/><line style="stroke:#181818;stroke-width:1.0;" x1="443.5" x2="617.5" y1="753.0469" y2="753.0469"/><text fill="#000000" font-family="sans-serif" font-size="13" lengthAdjust="spacing" textLength="33" x="450.5" y="731.8389">Fetch</text><text fill="#000000" font-family="sans-serif" font-size="13" lengthAdjust="spacing" textLength="4" x="483.5" y="731.8389"> </text><text fill="#000000" font-family="sans-serif" font-size="13" lengthAdjust="spacing" textLength="13" x="487.5" y="731.8389">all</text><text fill="#000000" font-family="sans-serif" font-size="13" lengthAdjust="spacing" textLength="4" x="500.5" y="731.8389"> </text><text fill="#000000" font-family="sans-serif" font-size="13" lengthAdjust="spacing" textLength="64" x="504.5" y="731.8389">documents</text><text fill="#000000" font-family="sans-serif" font-size="13" lengthAdjust="spacing" textLength="4" x="568.5" y="731.8389"> </text><text fill="#000000" font-family="sans-serif" font-size="13" lengthAdjust="spacing" textLength="25" x="572.5" y="731.8389">from</text><text fill="#000000" font-family="sans-serif" font-size="13" lengthAdjust="spacing" textLength="61" x="450.5" y="748.1904">"fullTasks"</text><polygon fill="#181818" points="454.5,779.3984,444.5,783.3984,454.5,787.3984,450.5,783.3984" style="stroke:#181818;stroke-width:1.0;"/><line style="stroke:#181818;stroke-width:1.0;stroke-dasharray:2.0,2.0;" x1="448.5" x2="627.5" y1="783.3984" y2="783.3984"/><text fill="#000000" font-family="sans-serif" font-size="13" lengthAdjust="spacing" textLength="80" x="460.5" y="778.542">FullTaskDoc[]</text><polygon fill="#181818" points="259.5,809.75,249.5,813.75,259.5,817.75,255.5,813.75" style="stroke:#181818;stroke-width:1.0;"/><line style="stroke:#181818;stroke-width:1.0;stroke-dasharray:2.0,2.0;" x1="253.5" x2="437.5" y1="813.75" y2="813.75"/><text fill="#000000" font-family="sans-serif" font-size="13" lengthAdjust="spacing" textLength="35" x="265.5" y="808.8936">Tasks</text><text fill="#000000" font-family="sans-serif" font-size="13" lengthAdjust="spacing" textLength="4" x="300.5" y="808.8936"> </text><text fill="#000000" font-family="sans-serif" font-size="13" lengthAdjust="spacing" textLength="17" x="304.5" y="808.8936">list</text><line style="stroke:#181818;stroke-width:1.0;" x1="248.5" x2="290.5" y1="844.1016" y2="844.1016"/><line style="stroke:#181818;stroke-width:1.0;" x1="290.5" x2="290.5" y1="844.1016" y2="857.1016"/><line style="stroke:#181818;stroke-width:1.0;" x1="249.5" x2="290.5" y1="857.1016" y2="857.1016"/><polygon fill="#181818" points="259.5,853.1016,249.5,857.1016,259.5,861.1016,255.5,857.1016" style="stroke:#181818;stroke-width:1.0;"/><text fill="#000000" font-family="sans-serif" font-size="13" lengthAdjust="spacing" textLength="41" x="255.5" y="839.2451">Update</text><text fill="#000000" font-family="sans-serif" font-size="13" lengthAdjust="spacing" textLength="4" x="296.5" y="839.2451"> </text><text fill="#000000" font-family="sans-serif" font-size="13" lengthAdjust="spacing" textLength="32" x="300.5" y="839.2451">tasks</text><text fill="#000000" font-family="sans-serif" font-size="13" lengthAdjust="spacing" textLength="4" x="332.5" y="839.2451"> </text><text fill="#000000" font-family="sans-serif" font-size="13" lengthAdjust="spacing" textLength="17" x="336.5" y="839.2451">list</text><!--SRC=[fLCzRy8m4DtzAqwPsW6fKOTA39K8APsw49Yg3aTyK0idJcE7blxwdXqAeGI1r0nHudjtx-CIkrPbXJKMKE3N2rcBAyhKDq7yS2y4vixKq5uZMQXIMLUZFqCB8y6DJkMgmj91KfjFIxzWBYT7vOpgpRxgovcGw721bln1sdaEvJGHOWI3HqY6CDOgNqCK101F8nt1ed7Eb5wWsg0ZPaiyEXl2b3uQiWxm0EVxYWxOJ6GmQ4TFgPHKapn5I-hWau0V3I5LjjAuxSA5zocyxByADAS5PWaDvsBX9Xx4TxS1s9diNpFVbxAQ2Rdy7U8xa2Pl2YgTXMLj2eZ2XEYubnCAoRNQc7REeDJahs_XlAD_XzpJF9C3rgSABiez5-IcuJlRkexkwSo4y-njvFEGHiW6IzdVantox8JUL3BmxNjvKQf4f_X320saBOdULUJSk3ArefRvYYsWrYThE4ov5CwuHMulx6FtVVU8wm_3nnT2E37KwzgXNV_ByBBHUkQ7NF8xsG6lyZixbdN9QiS5_wtT7pCHFm00]--></g></svg>