<?xml version="1.0" encoding="UTF-8" standalone="no"?><svg xmlns="http://www.w3.org/2000/svg" xmlns:xlink="http://www.w3.org/1999/xlink" contentStyleType="text/css" height="690px" preserveAspectRatio="none" style="width:518px;height:690px;background:#FFFFFF;" version="1.1" viewBox="0 0 518 690" width="518px" zoomAndPan="magnify"><defs/><g><rect fill="#FFFFFF" height="407.7578" style="stroke:#181818;stroke-width:1.0;" width="10" x="212.5" y="175.6641"/><rect fill="#FFFFFF" height="148.5938" style="stroke:#181818;stroke-width:1.0;" width="10" x="462.5" y="388.125"/><rect fill="none" height="65.0547" style="stroke:#000000;stroke-width:1.5;" width="245.5" x="10" y="250.3672"/><rect fill="none" height="188.2969" style="stroke:#000000;stroke-width:1.5;" width="501" x="10" y="403.125"/><line style="stroke:#181818;stroke-width:0.5;stroke-dasharray:5.0,5.0;" x1="37" x2="37" y1="82.6094" y2="608.4219"/><line style="stroke:#181818;stroke-width:0.5;stroke-dasharray:5.0,5.0;" x1="217.5" x2="217.5" y1="82.6094" y2="608.4219"/><line style="stroke:#181818;stroke-width:0.5;stroke-dasharray:5.0,5.0;" x1="467" x2="467" y1="82.6094" y2="608.4219"/><text fill="#000000" font-family="sans-serif" font-size="14" lengthAdjust="spacing" textLength="29" x="20" y="79.5332">User</text><ellipse cx="37.5" cy="13.5" fill="#E2E2F0" rx="8" ry="8" style="stroke:#181818;stroke-width:0.5;"/><path d="M37.5,21.5 L37.5,48.5 M24.5,29.5 L50.5,29.5 M37.5,48.5 L24.5,63.5 M37.5,48.5 L50.5,63.5 " fill="none" style="stroke:#181818;stroke-width:0.5;"/><text fill="#000000" font-family="sans-serif" font-size="14" lengthAdjust="spacing" textLength="29" x="20" y="621.9551">User</text><ellipse cx="37.5" cy="633.5313" fill="#E2E2F0" rx="8" ry="8" style="stroke:#181818;stroke-width:0.5;"/><path d="M37.5,641.5313 L37.5,668.5313 M24.5,649.5313 L50.5,649.5313 M37.5,668.5313 L24.5,683.5313 M37.5,668.5313 L50.5,683.5313 " fill="none" style="stroke:#181818;stroke-width:0.5;"/><rect fill="#E2E2F0" height="31.6094" rx="2.5" ry="2.5" style="stroke:#181818;stroke-width:0.5;" width="56" x="189.5" y="50"/><text fill="#000000" font-family="sans-serif" font-size="14" lengthAdjust="spacing" textLength="42" x="196.5" y="71.5332">Server</text><rect fill="#E2E2F0" height="31.6094" rx="2.5" ry="2.5" style="stroke:#181818;stroke-width:0.5;" width="56" x="189.5" y="607.4219"/><text fill="#000000" font-family="sans-serif" font-size="14" lengthAdjust="spacing" textLength="42" x="196.5" y="628.9551">Server</text><text fill="#000000" font-family="sans-serif" font-size="14" lengthAdjust="spacing" textLength="61" x="434" y="79.5332">Database</text><path d="M449.5,29 C449.5,19 467.5,19 467.5,19 C467.5,19 485.5,19 485.5,29 L485.5,55 C485.5,65 467.5,65 467.5,65 C467.5,65 449.5,65 449.5,55 L449.5,29 " fill="#E2E2F0" style="stroke:#181818;stroke-width:1.5;"/><path d="M449.5,29 C449.5,39 467.5,39 467.5,39 C467.5,39 485.5,39 485.5,29 " fill="none" style="stroke:#181818;stroke-width:1.5;"/><text fill="#000000" font-family="sans-serif" font-size="14" lengthAdjust="spacing" textLength="61" x="434" y="621.9551">Database</text><path d="M449.5,635.0313 C449.5,625.0313 467.5,625.0313 467.5,625.0313 C467.5,625.0313 485.5,625.0313 485.5,635.0313 L485.5,661.0313 C485.5,671.0313 467.5,671.0313 467.5,671.0313 C467.5,671.0313 449.5,671.0313 449.5,661.0313 L449.5,635.0313 " fill="#E2E2F0" style="stroke:#181818;stroke-width:1.5;"/><path d="M449.5,635.0313 C449.5,645.0313 467.5,645.0313 467.5,645.0313 C467.5,645.0313 485.5,645.0313 485.5,635.0313 " fill="none" style="stroke:#181818;stroke-width:1.5;"/><rect fill="#FFFFFF" height="407.7578" style="stroke:#181818;stroke-width:1.0;" width="10" x="212.5" y="175.6641"/><rect fill="#FFFFFF" height="148.5938" style="stroke:#181818;stroke-width:1.0;" width="10" x="462.5" y="388.125"/><polygon fill="#181818" points="205.5,110.9609,215.5,114.9609,205.5,118.9609,209.5,114.9609" style="stroke:#181818;stroke-width:1.0;"/><line style="stroke:#181818;stroke-width:1.0;" x1="37.5" x2="211.5" y1="114.9609" y2="114.9609"/><text fill="#000000" font-family="sans-serif" font-size="13" lengthAdjust="spacing" textLength="148" x="44.5" y="110.1045">Request registration page</text><polygon fill="#181818" points="48.5,141.3125,38.5,145.3125,48.5,149.3125,44.5,145.3125" style="stroke:#181818;stroke-width:1.0;"/><line style="stroke:#181818;stroke-width:1.0;stroke-dasharray:2.0,2.0;" x1="42.5" x2="216.5" y1="145.3125" y2="145.3125"/><text fill="#000000" font-family="sans-serif" font-size="13" lengthAdjust="spacing" textLength="155" x="54.5" y="140.4561">Rendered registration page</text><polygon fill="#181818" points="200.5,171.6641,210.5,175.6641,200.5,179.6641,204.5,175.6641" style="stroke:#181818;stroke-width:1.0;"/><line style="stroke:#181818;stroke-width:1.0;" x1="37.5" x2="206.5" y1="175.6641" y2="175.6641"/><text fill="#000000" font-family="sans-serif" font-size="13" lengthAdjust="spacing" textLength="138" x="44.5" y="170.8076">Submit registration form</text><line style="stroke:#181818;stroke-width:1.0;" x1="222.5" x2="264.5" y1="222.3672" y2="222.3672"/><line style="stroke:#181818;stroke-width:1.0;" x1="264.5" x2="264.5" y1="222.3672" y2="235.3672"/><line style="stroke:#181818;stroke-width:1.0;" x1="223.5" x2="264.5" y1="235.3672" y2="235.3672"/><polygon fill="#181818" points="233.5,231.3672,223.5,235.3672,233.5,239.3672,229.5,235.3672" style="stroke:#181818;stroke-width:1.0;"/><text fill="#000000" font-family="sans-serif" font-size="13" lengthAdjust="spacing" textLength="189" x="229.5" y="201.1592">Check inputs length and whether</text><text fill="#000000" font-family="sans-serif" font-size="13" lengthAdjust="spacing" textLength="226" x="229.5" y="217.5107">password and retyped password match</text><path d="M10,250.3672 L91,250.3672 L91,258.7188 L81,268.7188 L10,268.7188 L10,250.3672 " fill="#EEEEEE" style="stroke:#000000;stroke-width:1.5;"/><rect fill="none" height="65.0547" style="stroke:#000000;stroke-width:1.5;" width="245.5" x="10" y="250.3672"/><text fill="#000000" font-family="sans-serif" font-size="13" font-weight="bold" lengthAdjust="spacing" textLength="36" x="25" y="264.8623">break</text><text fill="#000000" font-family="sans-serif" font-size="11" font-weight="bold" lengthAdjust="spacing" textLength="95" x="106" y="263.7861">[Validation failed]</text><polygon fill="#181818" points="48.5,303.4219,38.5,307.4219,48.5,311.4219,44.5,307.4219" style="stroke:#181818;stroke-width:1.0;"/><line style="stroke:#181818;stroke-width:1.0;stroke-dasharray:2.0,2.0;" x1="42.5" x2="211.5" y1="307.4219" y2="307.4219"/><text fill="#000000" font-family="sans-serif" font-size="13" lengthAdjust="spacing" textLength="147" x="54.5" y="286.2139">422, rendered registration</text><text fill="#000000" font-family="sans-serif" font-size="13" lengthAdjust="spacing" textLength="142" x="54.5" y="302.5654">page with error message</text><line style="stroke:#181818;stroke-width:1.0;" x1="222.5" x2="264.5" y1="344.7734" y2="344.7734"/><line style="stroke:#181818;stroke-width:1.0;" x1="264.5" x2="264.5" y1="344.7734" y2="357.7734"/><line style="stroke:#181818;stroke-width:1.0;" x1="223.5" x2="264.5" y1="357.7734" y2="357.7734"/><polygon fill="#181818" points="233.5,353.7734,223.5,357.7734,233.5,361.7734,229.5,357.7734" style="stroke:#181818;stroke-width:1.0;"/><text fill="#000000" font-family="sans-serif" font-size="13" lengthAdjust="spacing" textLength="145" x="229.5" y="339.917">Calculate password hash</text><polygon fill="#181818" points="450.5,384.125,460.5,388.125,450.5,392.125,454.5,388.125" style="stroke:#181818;stroke-width:1.0;"/><line style="stroke:#181818;stroke-width:1.0;" x1="222.5" x2="456.5" y1="388.125" y2="388.125"/><text fill="#000000" font-family="sans-serif" font-size="13" lengthAdjust="spacing" textLength="160" x="229.5" y="383.2686">Insert a new user document</text><path d="M10,403.125 L71,403.125 L71,411.4766 L61,421.4766 L10,421.4766 L10,403.125 " fill="#EEEEEE" style="stroke:#000000;stroke-width:1.5;"/><rect fill="none" height="188.2969" style="stroke:#000000;stroke-width:1.5;" width="501" x="10" y="403.125"/><text fill="#000000" font-family="sans-serif" font-size="13" font-weight="bold" lengthAdjust="spacing" textLength="16" x="25" y="417.6201">alt</text><text fill="#000000" font-family="sans-serif" font-size="11" font-weight="bold" lengthAdjust="spacing" textLength="145" x="86" y="416.5439">[Username already exists]</text><polygon fill="#181818" points="233.5,439.8281,223.5,443.8281,233.5,447.8281,229.5,443.8281" style="stroke:#181818;stroke-width:1.0;"/><line style="stroke:#181818;stroke-width:1.0;stroke-dasharray:2.0,2.0;" x1="227.5" x2="461.5" y1="443.8281" y2="443.8281"/><text fill="#000000" font-family="sans-serif" font-size="13" lengthAdjust="spacing" textLength="155" x="239.5" y="438.9717">E11000 duplicate key error</text><polygon fill="#181818" points="48.5,486.5313,38.5,490.5313,48.5,494.5313,44.5,490.5313" style="stroke:#181818;stroke-width:1.0;"/><line style="stroke:#181818;stroke-width:1.0;stroke-dasharray:2.0,2.0;" x1="42.5" x2="211.5" y1="490.5313" y2="490.5313"/><text fill="#000000" font-family="sans-serif" font-size="13" lengthAdjust="spacing" textLength="147" x="54.5" y="469.3232">409, rendered registration</text><text fill="#000000" font-family="sans-serif" font-size="13" lengthAdjust="spacing" textLength="142" x="54.5" y="485.6748">page with error message</text><line style="stroke:#000000;stroke-width:1.0;stroke-dasharray:2.0,2.0;" x1="10" x2="511" y1="499.5313" y2="499.5313"/><text fill="#000000" font-family="sans-serif" font-size="11" font-weight="bold" lengthAdjust="spacing" textLength="92" x="15" y="510.9502">[New username]</text><polygon fill="#181818" points="233.5,532.7188,223.5,536.7188,233.5,540.7188,229.5,536.7188" style="stroke:#181818;stroke-width:1.0;"/><line style="stroke:#181818;stroke-width:1.0;stroke-dasharray:2.0,2.0;" x1="227.5" x2="466.5" y1="536.7188" y2="536.7188"/><text fill="#000000" font-family="sans-serif" font-size="13" lengthAdjust="spacing" textLength="93" x="239.5" y="531.8623">InsertOneResult</text><polygon fill="#181818" points="48.5,579.4219,38.5,583.4219,48.5,587.4219,44.5,583.4219" style="stroke:#181818;stroke-width:1.0;"/><line style="stroke:#181818;stroke-width:1.0;stroke-dasharray:2.0,2.0;" x1="42.5" x2="216.5" y1="583.4219" y2="583.4219"/><text fill="#000000" font-family="sans-serif" font-size="13" lengthAdjust="spacing" textLength="130" x="54.5" y="562.2139">Redirect to login page,</text><text fill="#000000" font-family="sans-serif" font-size="13" lengthAdjust="spacing" textLength="151" x="54.5" y="578.5654">show a success message</text><!--SRC=[bPAnKiCm38PtFuKUWDwrFHOO64ePME2kkJ1rKMsH-EeumPOR-lR8IMbBhWkPVDOV_Tyl6JMt0SQlZ3GUCKAfEWnijUtGCnGK3aDDAeKooBZ3I5cw_ZrBPRrIgeJP4nJm21lwIXGP0bKsSa2shOSEAr85p4HJ3XflA92v8RhgLAHTOoUDFjlGADHi3yWaIBdfg7wkIU_1-Yvn14U-uXhG6-Xhufh2rdSOOzy6Czm6ucCd0EVB1bdNIkq2uHu-q5bpCaJhoAWS-S9_lrpUIOiR8R9DHT1RSQSGPCGDnPY3YVgQ5frEBcSu4zGOwr6mNedYrSjM610yzP3oXaohKqEUB_dpuD7ni42FZIp32Ryv0dqBKHoefTdiPFgoMCpdSp2fSrRd__Tq72cd-UOF_y_dv36ydLWppDHz3FJkQKCnEHxAXgwp_8NOaB61D0EtuDhAZW_aRkjZtVOobvYq5kypmAHVaIV-0m00]--></g></svg>