<?xml version="1.0" encoding="UTF-8" standalone="no"?><svg xmlns="http://www.w3.org/2000/svg" xmlns:xlink="http://www.w3.org/1999/xlink" contentStyleType="text/css" height="780px" preserveAspectRatio="none" style="width:455px;height:780px;background:#FFFFFF;" version="1.1" viewBox="0 0 455 780" width="455px" zoomAndPan="magnify"><defs/><g><rect fill="#FFFFFF" height="497.4609" style="stroke:#181818;stroke-width:1.0;" width="10" x="213.5" y="175.6641"/><rect fill="#FFFFFF" height="148.5938" style="stroke:#181818;stroke-width:1.0;" width="10" x="399.5" y="328.4219"/><rect fill="none" height="65.0547" style="stroke:#000000;stroke-width:1.5;" width="236.5" x="20" y="234.0156"/><rect fill="none" height="337.7031" style="stroke:#000000;stroke-width:1.5;" width="438" x="10" y="343.4219"/><rect fill="none" height="65.0547" style="stroke:#000000;stroke-width:1.5;" width="236.5" x="20" y="535.3672"/><line style="stroke:#181818;stroke-width:0.5;stroke-dasharray:5.0,5.0;" x1="47" x2="47" y1="82.6094" y2="698.125"/><line style="stroke:#181818;stroke-width:0.5;stroke-dasharray:5.0,5.0;" x1="218.5" x2="218.5" y1="82.6094" y2="698.125"/><line style="stroke:#181818;stroke-width:0.5;stroke-dasharray:5.0,5.0;" x1="404" x2="404" y1="82.6094" y2="698.125"/><text fill="#000000" font-family="sans-serif" font-size="14" lengthAdjust="spacing" textLength="29" x="30" y="79.5332">User</text><ellipse cx="47.5" cy="13.5" fill="#E2E2F0" rx="8" ry="8" style="stroke:#181818;stroke-width:0.5;"/><path d="M47.5,21.5 L47.5,48.5 M34.5,29.5 L60.5,29.5 M47.5,48.5 L34.5,63.5 M47.5,48.5 L60.5,63.5 " fill="none" style="stroke:#181818;stroke-width:0.5;"/><text fill="#000000" font-family="sans-serif" font-size="14" lengthAdjust="spacing" textLength="29" x="30" y="711.6582">User</text><ellipse cx="47.5" cy="723.2344" fill="#E2E2F0" rx="8" ry="8" style="stroke:#181818;stroke-width:0.5;"/><path d="M47.5,731.2344 L47.5,758.2344 M34.5,739.2344 L60.5,739.2344 M47.5,758.2344 L34.5,773.2344 M47.5,758.2344 L60.5,773.2344 " fill="none" style="stroke:#181818;stroke-width:0.5;"/><rect fill="#E2E2F0" height="31.6094" rx="2.5" ry="2.5" style="stroke:#181818;stroke-width:0.5;" width="56" x="190.5" y="50"/><text fill="#000000" font-family="sans-serif" font-size="14" lengthAdjust="spacing" textLength="42" x="197.5" y="71.5332">Server</text><rect fill="#E2E2F0" height="31.6094" rx="2.5" ry="2.5" style="stroke:#181818;stroke-width:0.5;" width="56" x="190.5" y="697.125"/><text fill="#000000" font-family="sans-serif" font-size="14" lengthAdjust="spacing" textLength="42" x="197.5" y="718.6582">Server</text><text fill="#000000" font-family="sans-serif" font-size="14" lengthAdjust="spacing" textLength="61" x="371" y="79.5332">Database</text><path d="M386.5,29 C386.5,19 404.5,19 404.5,19 C404.5,19 422.5,19 422.5,29 L422.5,55 C422.5,65 404.5,65 404.5,65 C404.5,65 386.5,65 386.5,55 L386.5,29 " fill="#E2E2F0" style="stroke:#181818;stroke-width:1.5;"/><path d="M386.5,29 C386.5,39 404.5,39 404.5,39 C404.5,39 422.5,39 422.5,29 " fill="none" style="stroke:#181818;stroke-width:1.5;"/><text fill="#000000" font-family="sans-serif" font-size="14" lengthAdjust="spacing" textLength="61" x="371" y="711.6582">Database</text><path d="M386.5,724.7344 C386.5,714.7344 404.5,714.7344 404.5,714.7344 C404.5,714.7344 422.5,714.7344 422.5,724.7344 L422.5,750.7344 C422.5,760.7344 404.5,760.7344 404.5,760.7344 C404.5,760.7344 386.5,760.7344 386.5,750.7344 L386.5,724.7344 " fill="#E2E2F0" style="stroke:#181818;stroke-width:1.5;"/><path d="M386.5,724.7344 C386.5,734.7344 404.5,734.7344 404.5,734.7344 C404.5,734.7344 422.5,734.7344 422.5,724.7344 " fill="none" style="stroke:#181818;stroke-width:1.5;"/><rect fill="#FFFFFF" height="497.4609" style="stroke:#181818;stroke-width:1.0;" width="10" x="213.5" y="175.6641"/><rect fill="#FFFFFF" height="148.5938" style="stroke:#181818;stroke-width:1.0;" width="10" x="399.5" y="328.4219"/><polygon fill="#181818" points="206.5,110.9609,216.5,114.9609,206.5,118.9609,210.5,114.9609" style="stroke:#181818;stroke-width:1.0;"/><line style="stroke:#181818;stroke-width:1.0;" x1="47.5" x2="212.5" y1="114.9609" y2="114.9609"/><text fill="#000000" font-family="sans-serif" font-size="13" lengthAdjust="spacing" textLength="111" x="54.5" y="110.1045">Request login page</text><polygon fill="#181818" points="58.5,141.3125,48.5,145.3125,58.5,149.3125,54.5,145.3125" style="stroke:#181818;stroke-width:1.0;"/><line style="stroke:#181818;stroke-width:1.0;stroke-dasharray:2.0,2.0;" x1="52.5" x2="217.5" y1="145.3125" y2="145.3125"/><text fill="#000000" font-family="sans-serif" font-size="13" lengthAdjust="spacing" textLength="118" x="64.5" y="140.4561">Rendered login page</text><polygon fill="#181818" points="201.5,171.6641,211.5,175.6641,201.5,179.6641,205.5,175.6641" style="stroke:#181818;stroke-width:1.0;"/><line style="stroke:#181818;stroke-width:1.0;" x1="47.5" x2="207.5" y1="175.6641" y2="175.6641"/><text fill="#000000" font-family="sans-serif" font-size="13" lengthAdjust="spacing" textLength="101" x="54.5" y="170.8076">Submit login form</text><line style="stroke:#181818;stroke-width:1.0;" x1="223.5" x2="265.5" y1="206.0156" y2="206.0156"/><line style="stroke:#181818;stroke-width:1.0;" x1="265.5" x2="265.5" y1="206.0156" y2="219.0156"/><line style="stroke:#181818;stroke-width:1.0;" x1="224.5" x2="265.5" y1="219.0156" y2="219.0156"/><polygon fill="#181818" points="234.5,215.0156,224.5,219.0156,234.5,223.0156,230.5,219.0156" style="stroke:#181818;stroke-width:1.0;"/><text fill="#000000" font-family="sans-serif" font-size="13" lengthAdjust="spacing" textLength="115" x="230.5" y="201.1592">Check inputs length</text><path d="M20,234.0156 L101,234.0156 L101,242.3672 L91,252.3672 L20,252.3672 L20,234.0156 " fill="#EEEEEE" style="stroke:#000000;stroke-width:1.5;"/><rect fill="none" height="65.0547" style="stroke:#000000;stroke-width:1.5;" width="236.5" x="20" y="234.0156"/><text fill="#000000" font-family="sans-serif" font-size="13" font-weight="bold" lengthAdjust="spacing" textLength="36" x="35" y="248.5107">break</text><text fill="#000000" font-family="sans-serif" font-size="11" font-weight="bold" lengthAdjust="spacing" textLength="95" x="116" y="247.4346">[Validation failed]</text><polygon fill="#181818" points="58.5,287.0703,48.5,291.0703,58.5,295.0703,54.5,291.0703" style="stroke:#181818;stroke-width:1.0;"/><line style="stroke:#181818;stroke-width:1.0;stroke-dasharray:2.0,2.0;" x1="52.5" x2="212.5" y1="291.0703" y2="291.0703"/><text fill="#000000" font-family="sans-serif" font-size="13" lengthAdjust="spacing" textLength="142" x="64.5" y="269.8623">422, rendered login page</text><text fill="#000000" font-family="sans-serif" font-size="13" lengthAdjust="spacing" textLength="110" x="64.5" y="286.2139">with error message</text><polygon fill="#181818" points="387.5,324.4219,397.5,328.4219,387.5,332.4219,391.5,328.4219" style="stroke:#181818;stroke-width:1.0;"/><line style="stroke:#181818;stroke-width:1.0;" x1="223.5" x2="393.5" y1="328.4219" y2="328.4219"/><text fill="#000000" font-family="sans-serif" font-size="13" lengthAdjust="spacing" textLength="145" x="230.5" y="323.5654">Fetch the user document</text><path d="M10,343.4219 L71,343.4219 L71,351.7734 L61,361.7734 L10,361.7734 L10,343.4219 " fill="#EEEEEE" style="stroke:#000000;stroke-width:1.5;"/><rect fill="none" height="337.7031" style="stroke:#000000;stroke-width:1.5;" width="438" x="10" y="343.4219"/><text fill="#000000" font-family="sans-serif" font-size="13" font-weight="bold" lengthAdjust="spacing" textLength="16" x="25" y="357.917">alt</text><text fill="#000000" font-family="sans-serif" font-size="11" font-weight="bold" lengthAdjust="spacing" textLength="116" x="86" y="356.8408">[User does not exist]</text><polygon fill="#181818" points="234.5,380.125,224.5,384.125,234.5,388.125,230.5,384.125" style="stroke:#181818;stroke-width:1.0;"/><line style="stroke:#181818;stroke-width:1.0;stroke-dasharray:2.0,2.0;" x1="228.5" x2="398.5" y1="384.125" y2="384.125"/><text fill="#000000" font-family="sans-serif" font-size="13" lengthAdjust="spacing" textLength="20" x="240.5" y="379.2686">null</text><polygon fill="#181818" points="58.5,426.8281,48.5,430.8281,58.5,434.8281,54.5,430.8281" style="stroke:#181818;stroke-width:1.0;"/><line style="stroke:#181818;stroke-width:1.0;stroke-dasharray:2.0,2.0;" x1="52.5" x2="212.5" y1="430.8281" y2="430.8281"/><text fill="#000000" font-family="sans-serif" font-size="13" lengthAdjust="spacing" textLength="113" x="64.5" y="409.6201">rendered login page</text><text fill="#000000" font-family="sans-serif" font-size="13" lengthAdjust="spacing" textLength="110" x="64.5" y="425.9717">with error message</text><line style="stroke:#000000;stroke-width:1.0;stroke-dasharray:2.0,2.0;" x1="10" x2="448" y1="439.8281" y2="439.8281"/><text fill="#000000" font-family="sans-serif" font-size="11" font-weight="bold" lengthAdjust="spacing" textLength="69" x="15" y="451.2471">[User found]</text><polygon fill="#181818" points="234.5,473.0156,224.5,477.0156,234.5,481.0156,230.5,477.0156" style="stroke:#181818;stroke-width:1.0;"/><line style="stroke:#181818;stroke-width:1.0;stroke-dasharray:2.0,2.0;" x1="228.5" x2="403.5" y1="477.0156" y2="477.0156"/><text fill="#000000" font-family="sans-serif" font-size="13" lengthAdjust="spacing" textLength="86" x="240.5" y="472.1592">user document</text><line style="stroke:#181818;stroke-width:1.0;" x1="223.5" x2="265.5" y1="507.3672" y2="507.3672"/><line style="stroke:#181818;stroke-width:1.0;" x1="265.5" x2="265.5" y1="507.3672" y2="520.3672"/><line style="stroke:#181818;stroke-width:1.0;" x1="224.5" x2="265.5" y1="520.3672" y2="520.3672"/><polygon fill="#181818" points="234.5,516.3672,224.5,520.3672,234.5,524.3672,230.5,520.3672" style="stroke:#181818;stroke-width:1.0;"/><text fill="#000000" font-family="sans-serif" font-size="13" lengthAdjust="spacing" textLength="124" x="230.5" y="502.5107">Verify password hash</text><path d="M20,535.3672 L101,535.3672 L101,543.7188 L91,553.7188 L20,553.7188 L20,535.3672 " fill="#EEEEEE" style="stroke:#000000;stroke-width:1.5;"/><rect fill="none" height="65.0547" style="stroke:#000000;stroke-width:1.5;" width="236.5" x="20" y="535.3672"/><text fill="#000000" font-family="sans-serif" font-size="13" font-weight="bold" lengthAdjust="spacing" textLength="36" x="35" y="549.8623">break</text><text fill="#000000" font-family="sans-serif" font-size="11" font-weight="bold" lengthAdjust="spacing" textLength="124" x="116" y="548.7861">[Hashes do not match]</text><polygon fill="#181818" points="58.5,588.4219,48.5,592.4219,58.5,596.4219,54.5,592.4219" style="stroke:#181818;stroke-width:1.0;"/><line style="stroke:#181818;stroke-width:1.0;stroke-dasharray:2.0,2.0;" x1="52.5" x2="212.5" y1="592.4219" y2="592.4219"/><text fill="#000000" font-family="sans-serif" font-size="13" lengthAdjust="spacing" textLength="113" x="64.5" y="571.2139">rendered login page</text><text fill="#000000" font-family="sans-serif" font-size="13" lengthAdjust="spacing" textLength="110" x="64.5" y="587.5654">with error message</text><line style="stroke:#181818;stroke-width:1.0;" x1="223.5" x2="265.5" y1="629.7734" y2="629.7734"/><line style="stroke:#181818;stroke-width:1.0;" x1="265.5" x2="265.5" y1="629.7734" y2="642.7734"/><line style="stroke:#181818;stroke-width:1.0;" x1="224.5" x2="265.5" y1="642.7734" y2="642.7734"/><polygon fill="#181818" points="234.5,638.7734,224.5,642.7734,234.5,646.7734,230.5,642.7734" style="stroke:#181818;stroke-width:1.0;"/><text fill="#000000" font-family="sans-serif" font-size="13" lengthAdjust="spacing" textLength="162" x="230.5" y="624.917">Save user details in session</text><polygon fill="#181818" points="58.5,669.125,48.5,673.125,58.5,677.125,54.5,673.125" style="stroke:#181818;stroke-width:1.0;"/><line style="stroke:#181818;stroke-width:1.0;stroke-dasharray:2.0,2.0;" x1="52.5" x2="217.5" y1="673.125" y2="673.125"/><text fill="#000000" font-family="sans-serif" font-size="13" lengthAdjust="spacing" textLength="131" x="64.5" y="668.2686">Redirect to home page</text><!--SRC=[dPAnSi8m38PtFuKUe2nSfmuTADVhJ2vCNKGii0_73hOCxTjNZiC1wT9h9kT-_TQdNyQEGuJwjOdg4HEqQi38jhC3UeQ6uddKH6cKHiOT9Ygbw-jPbFLAgHOMhz302speb2ank72m7WOya6fW8M8xYbvJ97sltdcRlEljrReFiLVOiJqZatGlrzIoDqFT4QmVCYTmv0zibDf5mYDiqLd1j47yQ1rfLM1l0C_BvHF4tnIV_cBP0CKegVIKKY6JigdhUYNUT-BE01k2N0BJeSizURunbXpGSSrJ1qhW0mDzsSGZXjooc4RmsRaPsf-fdAG-jjY7xFNyvaUs8cgw9voQrk8jHRl_bbufNKBKO319bAManlaX_pA63kCaFKe0Qdeq_o0lhZ7J1uO6pzT4YMLdIJOBIIoon5b46z8sKiV00KpegJwWsOnDsTiF]--></g></svg>