<?xml version="1.0" encoding="UTF-8" standalone="no"?><svg xmlns="http://www.w3.org/2000/svg" xmlns:xlink="http://www.w3.org/1999/xlink" contentStyleType="text/css" height="1032px" preserveAspectRatio="none" style="width:611px;height:1032px;background:#FFFFFF;" version="1.1" viewBox="0 0 611 1032" width="611px" zoomAndPan="magnify"><defs/><g><!--cluster inz--><g id="cluster_inz"><path d="M138.5,191.95 L159.5,191.95 A3.75,3.75 0 0 1 162,194.45 L169,215.5594 L601.5,215.5594 A2.5,2.5 0 0 1 604,218.0594 L604,1023.45 A2.5,2.5 0 0 1 601.5,1025.95 L138.5,1025.95 A2.5,2.5 0 0 1 136,1023.45 L136,194.45 A2.5,2.5 0 0 1 138.5,191.95 " fill="none" style="stroke:#000000;stroke-width:1.5;"/><line style="stroke:#000000;stroke-width:1.5;" x1="136" x2="169" y1="215.5594" y2="215.5594"/><text fill="#000000" font-family="sans-serif" font-size="14" font-weight="bold" lengthAdjust="spacing" textLength="20" x="140" y="208.4832">inz</text></g><g id="elem_register"><ellipse cx="507.876" cy="349.0252" fill="#F1F1F1" rx="73.376" ry="17.0752" style="stroke:#181818;stroke-width:0.5;"/><text fill="#000000" font-family="sans-serif" font-size="14" lengthAdjust="spacing" textLength="97" x="456.376" y="353.5418">Create account</text></g><g id="elem_sign_in"><ellipse cx="232.3909" cy="449.9017" fill="#F1F1F1" rx="41.8909" ry="15.4517" style="stroke:#181818;stroke-width:0.5;"/><text fill="#000000" font-family="sans-serif" font-size="14" lengthAdjust="spacing" textLength="43" x="210.8454" y="453.6448">Sign in</text></g><g id="elem_chg_pass"><ellipse cx="507.8789" cy="262.8258" fill="#F1F1F1" rx="79.8789" ry="18.3758" style="stroke:#181818;stroke-width:0.5;"/><text fill="#000000" font-family="sans-serif" font-size="14" lengthAdjust="spacing" textLength="114" x="449.8373" y="266.8524">Change password</text></g><g id="elem_browse_cat"><ellipse cx="232.6887" cy="246.9877" fill="#F1F1F1" rx="80.6887" ry="18.5377" style="stroke:#181818;stroke-width:0.5;"/><text fill="#000000" font-family="sans-serif" font-size="14" lengthAdjust="spacing" textLength="116" x="174.0015" y="250.9161">Browse categories</text></g><g id="elem_view_cat"><ellipse cx="232.6531" cy="316.8806" fill="#F1F1F1" rx="70.1531" ry="16.4306" style="stroke:#181818;stroke-width:0.5;"/><text fill="#000000" font-family="sans-serif" font-size="14" lengthAdjust="spacing" textLength="88" x="185.6531" y="321.3972">View category</text></g><g id="elem_view_task"><ellipse cx="232.5193" cy="383.9798" fill="#F1F1F1" rx="53.5193" ry="15.5298" style="stroke:#181818;stroke-width:0.5;"/><text fill="#000000" font-family="sans-serif" font-size="14" lengthAdjust="spacing" textLength="59" x="200.0193" y="388.4964">View task</text></g><g id="elem_solve_challenge"><ellipse cx="507.981" cy="449.7462" fill="#F1F1F1" rx="74.481" ry="17.2962" style="stroke:#181818;stroke-width:0.5;"/><text fill="#000000" font-family="sans-serif" font-size="14" lengthAdjust="spacing" textLength="100" x="454.981" y="454.2628">Solve challenge</text></g><g id="elem_answer"><ellipse cx="232.4763" cy="518.0453" fill="#F1F1F1" rx="75.9763" ry="17.5953" style="stroke:#181818;stroke-width:0.5;"/><text fill="#000000" font-family="sans-serif" font-size="14" lengthAdjust="spacing" textLength="104" x="177.5467" y="522.5457">Answer question</text></g><g id="elem_add_category"><ellipse cx="232.7256" cy="857.8951" fill="#F1F1F1" rx="75.2256" ry="17.4451" style="stroke:#181818;stroke-width:0.5;"/><text fill="#000000" font-family="sans-serif" font-size="14" lengthAdjust="spacing" textLength="102" x="178.7256" y="862.4117">Create category</text></g><g id="elem_edit_category"><ellipse cx="232.4277" cy="927.0355" fill="#F1F1F1" rx="68.4277" ry="16.0855" style="stroke:#181818;stroke-width:0.5;"/><text fill="#000000" font-family="sans-serif" font-size="14" lengthAdjust="spacing" textLength="83" x="187.9277" y="931.5521">Edit category</text></g><g id="elem_view_users"><ellipse cx="232.6685" cy="994.0338" fill="#F1F1F1" rx="60.1685" ry="15.5838" style="stroke:#181818;stroke-width:0.5;"/><text fill="#000000" font-family="sans-serif" font-size="14" lengthAdjust="spacing" textLength="68" x="195.6685" y="998.5504">View users</text></g><g id="elem_chg_role"><ellipse cx="232.2877" cy="589.0075" fill="#F1F1F1" rx="78.2877" ry="18.0575" style="stroke:#181818;stroke-width:0.5;"/><text fill="#000000" font-family="sans-serif" font-size="14" lengthAdjust="spacing" textLength="110" x="175.5149" y="593.2274">Change user role</text></g><g id="elem_del_user"><ellipse cx="232.3631" cy="658.059" fill="#F1F1F1" rx="63.8631" ry="15.609" style="stroke:#181818;stroke-width:0.5;"/><text fill="#000000" font-family="sans-serif" font-size="14" lengthAdjust="spacing" textLength="73" x="192.8631" y="662.5756">Delete user</text></g><g id="elem_view_tasks"><ellipse cx="232.6908" cy="724.0228" fill="#F1F1F1" rx="58.6908" ry="15.5728" style="stroke:#181818;stroke-width:0.5;"/><text fill="#000000" font-family="sans-serif" font-size="14" lengthAdjust="spacing" textLength="66" x="196.6908" y="728.5394">View tasks</text></g><g id="elem_add_task"><ellipse cx="232.5646" cy="789.9512" fill="#F1F1F1" rx="50.5646" ry="15.5012" style="stroke:#181818;stroke-width:0.5;"/><text fill="#000000" font-family="sans-serif" font-size="14" lengthAdjust="spacing" textLength="55" x="202.0737" y="794.4658">Add task</text></g><!--entity u--><g id="elem_u"><ellipse cx="47.5" cy="251.45" fill="#F1F1F1" rx="8" ry="8" style="stroke:#181818;stroke-width:0.5;"/><path d="M47.5,259.45 L47.5,286.45 M34.5,267.45 L60.5,267.45 M47.5,286.45 L34.5,301.45 M47.5,286.45 L60.5,301.45 " fill="none" style="stroke:#181818;stroke-width:0.5;"/><text fill="#000000" font-family="sans-serif" font-size="14" lengthAdjust="spacing" textLength="29" x="33" y="317.4832">User</text></g><!--entity a--><g id="elem_a"><ellipse cx="47.5" cy="759.45" fill="#F1F1F1" rx="8" ry="8" style="stroke:#181818;stroke-width:0.5;"/><path d="M47.5,767.45 L47.5,794.45 M34.5,775.45 L60.5,775.45 M47.5,794.45 L34.5,809.45 M47.5,794.45 L60.5,809.45 " fill="none" style="stroke:#181818;stroke-width:0.5;"/><text fill="#000000" font-family="sans-serif" font-size="14" lengthAdjust="spacing" textLength="83" x="6" y="825.4832">Administrator</text></g><!--link u to register--><g id="link_u_register"><path d="M57.57,242.51 C67.1,211.07 85.52,169.09 119,148.95 C225.25,85.02 302.11,70.34 398,148.95 C450.58,192.05 389.5,242.91 428,298.95 C437.25,312.41 451.44,323.02 465.25,330.93 " fill="none" id="u-to-register" style="stroke:#181818;stroke-width:1.0;"/><polygon fill="#181818" points="469.39,333.21,463.4258,325.3724,465.0071,330.8037,459.5758,332.385,469.39,333.21" style="stroke:#181818;stroke-width:1.0;"/></g><!--link u to sign_in--><g id="link_u_sign_in"><path d="M62.47,320.97 C75.18,351.2 96.75,392.01 128,416.95 C144.69,430.27 166.87,438.27 186.41,443.04 " fill="none" id="u-to-sign_in" style="stroke:#181818;stroke-width:1.0;"/><polygon fill="#181818" points="191.18,444.14,183.2985,438.2339,186.3059,443.0251,181.5147,446.0325,191.18,444.14" style="stroke:#181818;stroke-width:1.0;"/></g><!--link u to chg_pass--><g id="link_u_chg_pass"><path d="M49.34,242.55 C52.73,194.58 66.51,115.35 119,77.95 C219.99,6 290.34,16.42 398,77.95 C458.8,112.7 489.06,196.07 500.87,237.99 " fill="none" id="u-to-chg_pass" style="stroke:#181818;stroke-width:1.0;"/><polygon fill="#181818" points="502.14,242.65,503.6091,232.9113,500.8136,237.8292,495.8957,235.0336,502.14,242.65" style="stroke:#181818;stroke-width:1.0;"/></g><!--link u to browse_cat--><g id="link_u_browse_cat"><path d="M62.25,279.32 C83.63,275.23 126.22,267.09 163.32,259.99 " fill="none" id="u-to-browse_cat" style="stroke:#181818;stroke-width:1.0;"/><polygon fill="#181818" points="168.22,259.05,158.6275,256.8175,163.3096,259.9921,160.1349,264.6742,168.22,259.05" style="stroke:#181818;stroke-width:1.0;"/></g><!--link u to view_cat--><g id="link_u_view_cat"><path d="M62.25,284.58 C85.14,288.96 132.34,297.98 171.09,305.4 " fill="none" id="u-to-view_cat" style="stroke:#181818;stroke-width:1.0;"/><polygon fill="#181818" points="175.75,306.29,167.6492,300.6885,170.8369,305.3617,166.1638,308.5494,175.75,306.29" style="stroke:#181818;stroke-width:1.0;"/></g><!--link u to view_task--><g id="link_u_view_task"><path d="M62.34,297.16 C77.21,312.67 102.19,336.45 128,350.95 C144.92,360.45 164.95,367.64 182.86,372.85 " fill="none" id="u-to-view_task" style="stroke:#181818;stroke-width:1.0;"/><polygon fill="#181818" points="187.39,374.13,179.8129,367.8381,182.5776,372.7734,177.6423,375.538,187.39,374.13" style="stroke:#181818;stroke-width:1.0;"/></g><!--link u to solve_challenge--><g id="link_u_solve_challenge"><path d="M62.25,263.61 C76.5,246.29 100.51,221.44 128,210.95 C204.82,181.64 237.04,179.48 313,210.95 C362.36,231.4 369.68,250.65 398,295.95 C419.68,330.63 404.91,349.19 428,382.95 C440.69,401.52 459.84,417.93 476.1,429.87 " fill="none" id="u-to-solve_challenge" style="stroke:#181818;stroke-width:1.0;"/><polygon fill="#181818" points="479.82,432.54,474.8439,424.0407,475.7591,429.623,470.1767,430.5381,479.82,432.54" style="stroke:#181818;stroke-width:1.0;"/></g><!--link u to answer--><g id="link_u_answer"><path d="M53.95,321.07 C62.23,366.09 82.17,439.38 128,482.95 C138.47,492.9 151.86,500.03 165.51,505.13 " fill="none" id="u-to-answer" style="stroke:#181818;stroke-width:1.0;"/><polygon fill="#181818" points="169.95,506.69,162.7858,499.9317,165.2329,505.0319,160.1328,507.479,169.95,506.69" style="stroke:#181818;stroke-width:1.0;"/></g><!--link sign_in to register--><g id="link_sign_in_register"><path d="M263.29,438.95 C311.11,421.29 405.33,386.5 461.58,365.72 " fill="none" id="sign_in-to-register" style="stroke:#181818;stroke-width:1.0;stroke-dasharray:7.0,7.0;"/><polygon fill="#181818" points="466.15,364.04,456.3201,363.4285,461.4637,365.7831,459.1091,370.9266,466.15,364.04" style="stroke:#181818;stroke-width:1.0;"/><text fill="#000000" font-family="sans-serif" font-size="13" lengthAdjust="spacing" textLength="53" x="344" y="387.4451">precedes</text></g><!--link sign_in to chg_pass--><g id="link_sign_in_chg_pass"><path d="M267.93,441.13 C283.03,435.96 300.2,428.19 313,416.95 C333.05,399.35 324.45,384.13 343,364.95 C377.96,328.81 428.25,300.01 463.9,282.35 " fill="none" id="sign_in-to-chg_pass" style="stroke:#181818;stroke-width:1.0;stroke-dasharray:7.0,7.0;"/><polygon fill="#181818" points="468.13,280.27,458.2877,280.6294,463.6381,282.4661,461.8014,287.8164,468.13,280.27" style="stroke:#181818;stroke-width:1.0;"/><text fill="#000000" font-family="sans-serif" font-size="13" lengthAdjust="spacing" textLength="53" x="344" y="318.4451">precedes</text></g><!--link sign_in to solve_challenge--><g id="link_sign_in_solve_challenge"><path d="M274.74,449.95 C314.88,449.95 376.95,449.95 426.83,449.95 " fill="none" id="sign_in-to-solve_challenge" style="stroke:#181818;stroke-width:1.0;stroke-dasharray:7.0,7.0;"/><polygon fill="#181818" points="431.65,449.95,422.65,445.95,426.65,449.95,422.65,453.95,431.65,449.95" style="stroke:#181818;stroke-width:1.0;"/><text fill="#000000" font-family="sans-serif" font-size="13" lengthAdjust="spacing" textLength="53" x="344" y="446.4451">precedes</text></g><!--reverse link answer to solve_challenge--><g id="link_answer_solve_challenge"><path d="M291.71,503.48 C340.32,491.39 408.96,474.33 455.57,462.74 " fill="none" id="answer-backto-solve_challenge" style="stroke:#181818;stroke-width:1.0;stroke-dasharray:7.0,7.0;"/><polygon fill="#181818" points="287.06,504.63,296.7567,506.3546,291.9141,503.4308,294.8379,498.5881,287.06,504.63" style="stroke:#181818;stroke-width:1.0;"/><text fill="#000000" font-family="sans-serif" font-size="13" lengthAdjust="spacing" textLength="53" x="344" y="474.4451">precedes</text></g><!--link a to add_category--><g id="link_a_add_category"><path d="M89.14,807.44 C101.55,812.61 115.27,818.16 128,822.95 C145.08,829.37 163.93,835.91 180.82,841.57 " fill="none" id="a-to-add_category" style="stroke:#181818;stroke-width:1.0;"/><polygon fill="#181818" points="185.51,843.13,178.2428,836.4826,180.768,841.5446,175.7061,844.0698,185.51,843.13" style="stroke:#181818;stroke-width:1.0;"/></g><!--link a to edit_category--><g id="link_a_edit_category"><path d="M70.87,829.44 C84.83,850.91 104.58,876.39 128,892.95 C141.5,902.49 157.84,909.48 173.52,914.55 " fill="none" id="a-to-edit_category" style="stroke:#181818;stroke-width:1.0;"/><polygon fill="#181818" points="178.27,916.02,170.8484,909.5454,173.492,914.5466,168.4909,917.1902,178.27,916.02" style="stroke:#181818;stroke-width:1.0;"/></g><!--link a to view_users--><g id="link_a_view_users"><path d="M57.07,829.45 C67.46,868.19 88.69,926.33 128,960.95 C140.79,972.22 157.46,979.64 173.66,984.54 " fill="none" id="a-to-view_users" style="stroke:#181818;stroke-width:1.0;"/><polygon fill="#181818" points="178.15,985.81,170.5902,979.4973,173.3413,984.4402,168.3985,987.1913,178.15,985.81" style="stroke:#181818;stroke-width:1.0;"/></g><!--link a to chg_role--><g id="link_a_chg_role"><path d="M58.05,750.62 C69.01,713.4 90.5,658.39 128,624.95 C138.87,615.26 152.5,608.14 166.26,602.93 " fill="none" id="a-to-chg_role" style="stroke:#181818;stroke-width:1.0;"/><polygon fill="#181818" points="170.73,601.32,160.9068,600.6102,166.0265,603.0161,163.6205,608.1358,170.73,601.32" style="stroke:#181818;stroke-width:1.0;"/></g><!--link a to del_user--><g id="link_a_del_user"><path d="M72.14,750.47 C86.11,730.13 105.46,706.42 128,690.95 C142.13,681.26 159.26,674.29 175.49,669.33 " fill="none" id="a-to-del_user" style="stroke:#181818;stroke-width:1.0;"/><polygon fill="#181818" points="179.97,668.02,170.21,666.7,175.17,669.42,172.45,674.38,179.97,668.02" style="stroke:#181818;stroke-width:1.0;"/></g><!--link a to view_tasks--><g id="link_a_view_tasks"><path d="M89.09,772.32 C101.49,767.15 115.23,761.63 128,756.95 C146.93,750.02 168.11,743.12 186.34,737.44 " fill="none" id="a-to-view_tasks" style="stroke:#181818;stroke-width:1.0;"/><polygon fill="#181818" points="190.96,736,181.1819,734.8216,186.1808,737.4694,183.533,742.4683,190.96,736" style="stroke:#181818;stroke-width:1.0;"/></g><!--link a to add_task--><g id="link_a_add_task"><path d="M89.11,789.95 C114.47,789.95 147.47,789.95 175.31,789.95 " fill="none" id="a-to-add_task" style="stroke:#181818;stroke-width:1.0;"/><polygon fill="#181818" points="180.02,789.95,171.02,785.95,175.02,789.95,171.02,793.95,180.02,789.95" style="stroke:#181818;stroke-width:1.0;"/></g><!--SRC=[VPDDJiCm48NN-1IZxji388HKVaw0O1iDzf1ODNRnE8q0SNVyqoHEMrWbx_cBP_p6CVGM83Zmkkq2AEr91ksi42Y3y_3Cv04P-gFUgdTjDGUFISK556AFSeSjWRPVy2skUYQ9JB2wzuI10ALqlGshH7jguyVaA-f9jpP-cfSvlZVQrdjqQEFMUsGUd5UPabtR9AF2xhmRubF6UgtpcZY3hzbjebkXBvg64VpCs24wbw20l9k1fEgsdJd4WXqQGx73qdxocichwAtb8GRvqHEdT3EDsHFdWIsQGwMQqQZGHwN34gJeN2BpKQBoF9ybo_EKamtU6PfYJgBY7iXGA5n659cyrwNaU1bTNMwhr1nkEc3EzaU87jRhs_cI53bUYgAcuHTPZRWOqp0hcRS_RdOoekAEepYMWatL1Lp3FluKf8WNwsCZVwsVLAgnKWvkrfl_A86bj_e256ivQfmFMkQAKr1vV4LEey9bBboLoJdz0W00]--></g></svg>