<?xml version="1.0" encoding="UTF-8" standalone="no"?><svg xmlns="http://www.w3.org/2000/svg" xmlns:xlink="http://www.w3.org/1999/xlink" contentStyleType="text/css" height="1012px" preserveAspectRatio="none" style="width:638px;height:1012px;background:#FFFFFF;" version="1.1" viewBox="0 0 638 1012" width="638px" zoomAndPan="magnify"><defs/><g><!--cluster inz--><g id="cluster_inz"><path d="M146.5,104.56 L170.5,104.56 A3.75,3.75 0 0 1 173,107.06 L180,126.8569 L628.5,126.8569 A2.5,2.5 0 0 1 631,129.3569 L631,1003.06 A2.5,2.5 0 0 1 628.5,1005.56 L146.5,1005.56 A2.5,2.5 0 0 1 144,1003.06 L144,107.06 A2.5,2.5 0 0 1 146.5,104.56 " fill="none" style="stroke:#000000;stroke-width:1.5;"/><line style="stroke:#000000;stroke-width:1.5;" x1="144" x2="180" y1="126.8569" y2="126.8569"/><text fill="#000000" font-family="sans-serif" font-size="14" font-weight="bold" lengthAdjust="spacing" textLength="23" x="148" y="119.5551">inz</text></g><g id="elem_register"><ellipse cx="244.4948" cy="500.459" fill="#F1F1F1" rx="74.9948" ry="17.399" style="stroke:#181818;stroke-width:0.5;"/><text fill="#000000" font-family="sans-serif" font-size="14" lengthAdjust="spacing" textLength="106" x="188.4948" y="504.2065">Create account</text></g><g id="elem_sign_in"><ellipse cx="244.3913" cy="154.6902" fill="#F1F1F1" rx="44.3913" ry="14.6302" style="stroke:#181818;stroke-width:0.5;"/><text fill="#000000" font-family="sans-serif" font-size="14" lengthAdjust="spacing" textLength="46" x="218.3913" y="158.4377">Sign in</text></g><g id="elem_chg_pass"><ellipse cx="532.712" cy="158.5024" fill="#F1F1F1" rx="82.712" ry="18.9424" style="stroke:#181818;stroke-width:0.5;"/><text fill="#000000" font-family="sans-serif" font-size="14" lengthAdjust="spacing" textLength="125" x="469.5208" y="161.5815">Change password</text></g><g id="elem_browse_cat"><ellipse cx="244.4263" cy="223.3453" fill="#F1F1F1" rx="84.4263" ry="19.2853" style="stroke:#181818;stroke-width:0.5;"/><text fill="#000000" font-family="sans-serif" font-size="14" lengthAdjust="spacing" textLength="129" x="179.805" y="226.2339">Browse categories</text></g><g id="elem_view_cat"><ellipse cx="244.6781" cy="294.6956" fill="#F1F1F1" rx="71.1781" ry="16.6356" style="stroke:#181818;stroke-width:0.5;"/><text fill="#000000" font-family="sans-serif" font-size="14" lengthAdjust="spacing" textLength="96" x="193.6781" y="298.4432">View category</text></g><g id="elem_view_task"><ellipse cx="244.5731" cy="361.3219" fill="#F1F1F1" rx="58.5731" ry="14.7619" style="stroke:#181818;stroke-width:0.5;"/><text fill="#000000" font-family="sans-serif" font-size="14" lengthAdjust="spacing" textLength="65" x="209.0731" y="365.0695">View task</text></g><g id="elem_solve_challenge"><ellipse cx="532.2754" cy="230.6151" fill="#F1F1F1" rx="75.7754" ry="17.5551" style="stroke:#181818;stroke-width:0.5;"/><text fill="#000000" font-family="sans-serif" font-size="14" lengthAdjust="spacing" textLength="108" x="475.2754" y="234.3626">Solve challenge</text></g><g id="elem_answer"><ellipse cx="244.4652" cy="429.753" fill="#F1F1F1" rx="78.9652" ry="18.193" style="stroke:#181818;stroke-width:0.5;"/><text fill="#000000" font-family="sans-serif" font-size="14" lengthAdjust="spacing" textLength="116" x="184.4" y="433.2486">Answer question</text></g><g id="elem_add_category"><ellipse cx="244.5612" cy="766.7722" fill="#F1F1F1" rx="76.5612" ry="17.7122" style="stroke:#181818;stroke-width:0.5;"/><text fill="#000000" font-family="sans-serif" font-size="14" lengthAdjust="spacing" textLength="110" x="186.5612" y="770.5198">Create category</text></g><g id="elem_edit_category"><ellipse cx="244.464" cy="835.7528" fill="#F1F1F1" rx="68.964" ry="16.1928" style="stroke:#181818;stroke-width:0.5;"/><text fill="#000000" font-family="sans-serif" font-size="14" lengthAdjust="spacing" textLength="90" x="196.464" y="839.5004">Edit category</text></g><g id="elem_view_users"><ellipse cx="244.7248" cy="901.705" fill="#F1F1F1" rx="63.7248" ry="15.145" style="stroke:#181818;stroke-width:0.5;"/><text fill="#000000" font-family="sans-serif" font-size="14" lengthAdjust="spacing" textLength="75" x="204.2248" y="905.4525">View users</text></g><g id="elem_chg_role"><ellipse cx="244.6963" cy="970.4993" fill="#F1F1F1" rx="80.1963" ry="18.4393" style="stroke:#181818;stroke-width:0.5;"/><text fill="#000000" font-family="sans-serif" font-size="14" lengthAdjust="spacing" textLength="119" x="183.6039" y="973.8579">Change user role</text></g><g id="elem_del_user"><ellipse cx="244.2655" cy="568.6131" fill="#F1F1F1" rx="65.7655" ry="15.5531" style="stroke:#181818;stroke-width:0.5;"/><text fill="#000000" font-family="sans-serif" font-size="14" lengthAdjust="spacing" textLength="81" x="200.7655" y="572.3607">Delete user</text></g><g id="elem_view_tasks"><ellipse cx="244.5625" cy="634.5725" fill="#F1F1F1" rx="63.0625" ry="15.0125" style="stroke:#181818;stroke-width:0.5;"/><text fill="#000000" font-family="sans-serif" font-size="14" lengthAdjust="spacing" textLength="73" x="205.0625" y="638.3201">View tasks</text></g><g id="elem_add_task"><ellipse cx="244.3402" cy="699.7938" fill="#F1F1F1" rx="54.8402" ry="14.7338" style="stroke:#181818;stroke-width:0.5;"/><text fill="#000000" font-family="sans-serif" font-size="14" lengthAdjust="spacing" textLength="60" x="211.3402" y="703.5414">Add task</text></g><!--entity u--><g id="elem_u"><ellipse cx="51.5" cy="230.06" fill="#F1F1F1" rx="8" ry="8" style="stroke:#181818;stroke-width:0.5;"/><path d="M51.5,238.06 L51.5,265.06 M38.5,246.06 L64.5,246.06 M51.5,265.06 L38.5,280.06 M51.5,265.06 L64.5,280.06 " fill="none" style="stroke:#181818;stroke-width:0.5;"/><text fill="#000000" font-family="sans-serif" font-size="14" lengthAdjust="spacing" textLength="32" x="35.5" y="294.5551">User</text></g><!--entity a--><g id="elem_a"><ellipse cx="51.5" cy="737.06" fill="#F1F1F1" rx="8" ry="8" style="stroke:#181818;stroke-width:0.5;"/><path d="M51.5,745.06 L51.5,772.06 M38.5,753.06 L64.5,753.06 M51.5,772.06 L38.5,787.06 M51.5,772.06 L64.5,787.06 " fill="none" style="stroke:#181818;stroke-width:0.5;"/><text fill="#000000" font-family="sans-serif" font-size="14" lengthAdjust="spacing" textLength="91" x="6" y="801.5551">Administrator</text></g><!--link u to register--><g id="link_u_register"><path d="M58.23,297.88 C67.04,343.68 88.22,419.73 136,464.56 C147.84,475.67 163.2,483.35 178.6,488.67 " fill="none" id="u-to-register" style="stroke:#181818;stroke-width:1.0;"/><polygon fill="#181818" points="183.37,490.25,176.0848,483.6224,178.6237,488.6774,173.5687,491.2164,183.37,490.25" style="stroke:#181818;stroke-width:1.0;"/></g><!--link u to sign_in--><g id="link_u_sign_in"><path d="M67.54,242.74 C83.15,226.23 109.02,201.43 136,186.56 C155.96,175.55 180.15,167.92 200.53,162.88 " fill="none" id="u-to-sign_in" style="stroke:#181818;stroke-width:1.0;"/><polygon fill="#181818" points="205.62,161.65,195.933,159.8716,200.7594,162.8223,197.8087,167.6486,205.62,161.65" style="stroke:#181818;stroke-width:1.0;"/></g><!--link u to chg_pass--><g id="link_u_chg_pass"><path d="M57.54,221.18 C65.61,177.14 85.97,106.87 136,74.56 C242.16,6 301.58,44.44 420,88.56 C451.12,100.16 482.84,121.14 504.45,137.12 " fill="none" id="u-to-chg_pass" style="stroke:#181818;stroke-width:1.0;"/><polygon fill="#181818" points="508.63,140.25,503.7957,131.6693,504.618,137.266,499.0213,138.0884,508.63,140.25" style="stroke:#181818;stroke-width:1.0;"/></g><!--link u to browse_cat--><g id="link_u_browse_cat"><path d="M67.81,256.67 C90.6,252.38 134.89,244.03 173.3,236.79 " fill="none" id="u-to-browse_cat" style="stroke:#181818;stroke-width:1.0;"/><polygon fill="#181818" points="178.43,235.82,168.8438,233.5606,173.5169,236.7483,170.3292,241.4215,178.43,235.82" style="stroke:#181818;stroke-width:1.0;"/></g><!--link u to view_cat--><g id="link_u_view_cat"><path d="M67.81,262.37 C92.46,266.88 142.28,276.01 182.59,283.4 " fill="none" id="u-to-view_cat" style="stroke:#181818;stroke-width:1.0;"/><polygon fill="#181818" points="187.96,284.38,179.8278,278.8241,183.0418,283.4793,178.3867,286.6933,187.96,284.38" style="stroke:#181818;stroke-width:1.0;"/></g><!--link u to view_task--><g id="link_u_view_task"><path d="M67.75,275.37 C83.52,290.9 109.51,314.29 136,328.56 C153.91,338.21 175.05,345.47 193.82,350.69 " fill="none" id="u-to-view_task" style="stroke:#181818;stroke-width:1.0;"/><polygon fill="#181818" points="199.05,352.11,191.3994,345.9078,194.2219,350.8101,189.3196,353.6327,199.05,352.11" style="stroke:#181818;stroke-width:1.0;"/></g><!--link u to solve_challenge--><g id="link_u_solve_challenge"><path d="M64.01,221.33 C76.13,188.58 98.72,143.5 136,122.56 C246.11,60.72 316.67,58.96 420,131.56 C445.38,149.39 427.76,172.95 450,194.56 C458.64,202.96 469.56,209.57 480.58,214.72 " fill="none" id="u-to-solve_challenge" style="stroke:#181818;stroke-width:1.0;"/><polygon fill="#181818" points="485.31,216.84,478.7336,209.5085,480.7475,214.7947,475.4612,216.8085,485.31,216.84" style="stroke:#181818;stroke-width:1.0;"/></g><!--link u to answer--><g id="link_u_answer"><path d="M67.54,297.56 C81.23,327.56 104.16,368.42 136,393.56 C148.74,403.62 164.43,410.93 179.84,416.23 " fill="none" id="u-to-answer" style="stroke:#181818;stroke-width:1.0;"/><polygon fill="#181818" points="184.61,417.8,177.3188,411.1789,179.8623,416.2317,174.8095,418.7752,184.61,417.8" style="stroke:#181818;stroke-width:1.0;"/></g><!--link sign_in to chg_pass--><g id="link_sign_in_chg_pass"><path d="M289.25,155.17 C330.47,155.75 393.41,156.63 444.81,157.35 " fill="none" id="sign_in-to-chg_pass" style="stroke:#181818;stroke-width:1.0;stroke-dasharray:7.0,7.0;"/><polygon fill="#181818" points="450.06,157.42,441.1063,153.3174,445.0603,157.3629,441.0149,161.3169,450.06,157.42" style="stroke:#181818;stroke-width:1.0;"/><text fill="#000000" font-family="sans-serif" font-size="13" lengthAdjust="spacing" textLength="59" x="360" y="152.6269">precedes</text></g><!--link sign_in to solve_challenge--><g id="link_sign_in_solve_challenge"><path d="M279.43,163.58 C328.29,176.56 418.98,200.66 477.22,216.13 " fill="none" id="sign_in-to-solve_challenge" style="stroke:#181818;stroke-width:1.0;stroke-dasharray:7.0,7.0;"/><polygon fill="#181818" points="482.05,217.42,474.3777,211.2445,477.2174,216.137,472.3249,218.9767,482.05,217.42" style="stroke:#181818;stroke-width:1.0;"/><text fill="#000000" font-family="sans-serif" font-size="13" lengthAdjust="spacing" textLength="59" x="360" y="182.6269">precedes</text></g><!--reverse link answer to solve_challenge--><g id="link_answer_solve_challenge"><path d="M291.84,412.22 C304.25,406.88 317.42,400.54 329,393.56 C403.21,348.83 480.01,279.51 513.77,247.64 " fill="none" id="answer-backto-solve_challenge" style="stroke:#181818;stroke-width:1.0;stroke-dasharray:7.0,7.0;"/><polygon fill="#181818" points="286.94,414.3,296.7874,414.4682,291.5431,412.3476,293.6636,407.1033,286.94,414.3" style="stroke:#181818;stroke-width:1.0;"/><text fill="#000000" font-family="sans-serif" font-size="13" lengthAdjust="spacing" textLength="59" x="360" y="328.6269">precedes</text></g><!--link a to add_category--><g id="link_a_add_category"><path d="M97.28,766.56 C116.86,766.56 140.45,766.56 162.9,766.56 " fill="none" id="a-to-add_category" style="stroke:#181818;stroke-width:1.0;"/><polygon fill="#181818" points="167.98,766.56,158.98,762.56,162.98,766.56,158.98,770.56,167.98,766.56" style="stroke:#181818;stroke-width:1.0;"/></g><!--link a to edit_category--><g id="link_a_edit_category"><path d="M97.27,786.2 C109.72,791.43 123.31,796.9 136,801.56 C155.4,808.68 177.08,815.71 195.87,821.51 " fill="none" id="a-to-edit_category" style="stroke:#181818;stroke-width:1.0;"/><polygon fill="#181818" points="201.08,823.11,193.653,816.6417,196.3008,821.6406,191.3019,824.2884,201.08,823.11" style="stroke:#181818;stroke-width:1.0;"/></g><!--link a to view_users--><g id="link_a_view_users"><path d="M75.19,804.76 C89.98,826.62 111.12,852.92 136,869.56 C151.31,879.8 169.99,886.84 187.45,891.65 " fill="none" id="a-to-view_users" style="stroke:#181818;stroke-width:1.0;"/><polygon fill="#181818" points="192.34,892.95,184.6723,886.7689,187.5084,891.6635,182.6138,894.4996,192.34,892.95" style="stroke:#181818;stroke-width:1.0;"/></g><!--link a to chg_role--><g id="link_a_chg_role"><path d="M62.12,804.57 C73.62,842.56 96.45,900.13 136,934.56 C147.67,944.72 162.31,952.03 176.99,957.29 " fill="none" id="a-to-chg_role" style="stroke:#181818;stroke-width:1.0;"/><polygon fill="#181818" points="181.97,959,174.745,952.3068,177.2381,957.3846,172.1603,959.8778,181.97,959" style="stroke:#181818;stroke-width:1.0;"/></g><!--link a to del_user--><g id="link_a_del_user"><path d="M62.35,728.32 C73.92,690.83 96.71,634.66 136,601.56 C149.26,590.39 166.26,583 182.8,578.11 " fill="none" id="a-to-del_user" style="stroke:#181818;stroke-width:1.0;"/><polygon fill="#181818" points="187.92,576.67,178.1723,575.262,183.1076,578.0266,180.3429,582.9619,187.92,576.67" style="stroke:#181818;stroke-width:1.0;"/></g><!--link a to view_tasks--><g id="link_a_view_tasks"><path d="M76.59,728.47 C91.44,707.79 112.18,683.3 136,667.56 C151.78,657.13 171.02,649.87 188.83,644.87 " fill="none" id="a-to-view_tasks" style="stroke:#181818;stroke-width:1.0;"/><polygon fill="#181818" points="193.81,643.52,184.0796,641.9973,188.9819,644.8199,186.1594,649.7222,193.81,643.52" style="stroke:#181818;stroke-width:1.0;"/></g><!--link a to add_task--><g id="link_a_add_task"><path d="M97.22,746.77 C109.67,741.55 123.27,736.11 136,731.56 C156.96,724.07 180.64,716.89 200.42,711.23 " fill="none" id="a-to-add_task" style="stroke:#181818;stroke-width:1.0;"/><polygon fill="#181818" points="205.37,709.83,195.6185,708.4487,200.5613,711.1998,197.8102,716.1427,205.37,709.83" style="stroke:#181818;stroke-width:1.0;"/></g><!--SRC=[VPFTJiCm38MloLDOkzyU026ayVC426uhavWkeYGZJbS1ujrnahLDjuchzPnyjUFZhgEt2D53iEqkWh61TBJUAOKw-W3FJ06GeJ_ghVcmpd8Cc9GSe59xrE_O4bZt3J_ggcVIo0Ih-q0O2L1htxkuIdIWLbwcK55FjdNoQZvcUMwigsliq4dfFJ8FFfXCwLtR9AF2xe8Vv5TBlzO7Ivp1r-msubReYwLX1ByoTX3d4XIHtsSWgVhQlZj8mnrs7SaDo_MJrqnUHMyT3nBaPq-SqiqqPa-T1xQu71hJZ4Q5FXeRbo29SudCeuWAFC-IvNdAoORWEvfYJgBY7gYZMBYC6EfohKl9yJAwkjtMc3dSD63EzbUf7jRhs_aZANByA8gQbbzajU9YJCkiP2v_B7QoekAEgpYsWatL2AvXBtyACiIByvDADLRAmSrwyn-biFIk5roivIfn7gJi3QSWydgAd5Q1oxcvQfDp-0C0]--></g></svg>