<?xml version="1.0" encoding="UTF-8" standalone="no"?><svg xmlns="http://www.w3.org/2000/svg" xmlns:xlink="http://www.w3.org/1999/xlink" contentStyleType="text/css" height="1011px" preserveAspectRatio="none" style="width:611px;height:1011px;background:#FFFFFF;" version="1.1" viewBox="0 0 611 1011" width="611px" zoomAndPan="magnify"><defs/><g><!--cluster inz--><g id="cluster_inz"><path d="M138.5,101.11 L159.5,101.11 A3.75,3.75 0 0 1 162,103.61 L169,124.7194 L601.5,124.7194 A2.5,2.5 0 0 1 604,127.2194 L604,1001.61 A2.5,2.5 0 0 1 601.5,1004.11 L138.5,1004.11 A2.5,2.5 0 0 1 136,1001.61 L136,103.61 A2.5,2.5 0 0 1 138.5,101.11 " fill="none" style="stroke:#000000;stroke-width:1.5;"/><line style="stroke:#000000;stroke-width:1.5;" x1="136" x2="169" y1="124.7194" y2="124.7194"/><text fill="#000000" font-family="sans-serif" font-size="14" font-weight="bold" lengthAdjust="spacing" textLength="20" x="140" y="117.6432">inz</text></g><g id="elem_register"><ellipse cx="232.376" cy="497.1852" fill="#F1F1F1" rx="73.376" ry="17.0752" style="stroke:#181818;stroke-width:0.5;"/><text fill="#000000" font-family="sans-serif" font-size="14" lengthAdjust="spacing" textLength="97" x="180.876" y="501.7018">Create account</text></g><g id="elem_sign_in"><ellipse cx="232.3909" cy="153.0617" fill="#F1F1F1" rx="41.8909" ry="15.4517" style="stroke:#181818;stroke-width:0.5;"/><text fill="#000000" font-family="sans-serif" font-size="14" lengthAdjust="spacing" textLength="43" x="210.8454" y="156.8048">Sign in</text></g><g id="elem_chg_pass"><ellipse cx="507.8789" cy="155.9858" fill="#F1F1F1" rx="79.8789" ry="18.3758" style="stroke:#181818;stroke-width:0.5;"/><text fill="#000000" font-family="sans-serif" font-size="14" lengthAdjust="spacing" textLength="114" x="449.8373" y="160.0124">Change password</text></g><g id="elem_browse_cat"><ellipse cx="232.6887" cy="222.1477" fill="#F1F1F1" rx="80.6887" ry="18.5377" style="stroke:#181818;stroke-width:0.5;"/><text fill="#000000" font-family="sans-serif" font-size="14" lengthAdjust="spacing" textLength="116" x="174.0015" y="226.0761">Browse categories</text></g><g id="elem_view_cat"><ellipse cx="232.6531" cy="292.0406" fill="#F1F1F1" rx="70.1531" ry="16.4306" style="stroke:#181818;stroke-width:0.5;"/><text fill="#000000" font-family="sans-serif" font-size="14" lengthAdjust="spacing" textLength="88" x="185.6531" y="296.5572">View category</text></g><g id="elem_view_task"><ellipse cx="232.5193" cy="359.1398" fill="#F1F1F1" rx="53.5193" ry="15.5298" style="stroke:#181818;stroke-width:0.5;"/><text fill="#000000" font-family="sans-serif" font-size="14" lengthAdjust="spacing" textLength="59" x="200.0193" y="363.6564">View task</text></g><g id="elem_solve_challenge"><ellipse cx="507.981" cy="226.9062" fill="#F1F1F1" rx="74.481" ry="17.2962" style="stroke:#181818;stroke-width:0.5;"/><text fill="#000000" font-family="sans-serif" font-size="14" lengthAdjust="spacing" textLength="100" x="454.981" y="231.4228">Solve challenge</text></g><g id="elem_answer"><ellipse cx="232.4763" cy="427.2053" fill="#F1F1F1" rx="75.9763" ry="17.5953" style="stroke:#181818;stroke-width:0.5;"/><text fill="#000000" font-family="sans-serif" font-size="14" lengthAdjust="spacing" textLength="104" x="177.5467" y="431.7057">Answer question</text></g><g id="elem_add_category"><ellipse cx="232.7256" cy="765.0551" fill="#F1F1F1" rx="75.2256" ry="17.4451" style="stroke:#181818;stroke-width:0.5;"/><text fill="#000000" font-family="sans-serif" font-size="14" lengthAdjust="spacing" textLength="102" x="178.7256" y="769.5717">Create category</text></g><g id="elem_edit_category"><ellipse cx="232.4277" cy="834.1955" fill="#F1F1F1" rx="68.4277" ry="16.0855" style="stroke:#181818;stroke-width:0.5;"/><text fill="#000000" font-family="sans-serif" font-size="14" lengthAdjust="spacing" textLength="83" x="187.9277" y="838.7121">Edit category</text></g><g id="elem_view_users"><ellipse cx="232.6685" cy="901.1938" fill="#F1F1F1" rx="60.1685" ry="15.5838" style="stroke:#181818;stroke-width:0.5;"/><text fill="#000000" font-family="sans-serif" font-size="14" lengthAdjust="spacing" textLength="68" x="195.6685" y="905.7104">View users</text></g><g id="elem_chg_role"><ellipse cx="232.2877" cy="970.1675" fill="#F1F1F1" rx="78.2877" ry="18.0575" style="stroke:#181818;stroke-width:0.5;"/><text fill="#000000" font-family="sans-serif" font-size="14" lengthAdjust="spacing" textLength="110" x="175.5149" y="974.3874">Change user role</text></g><g id="elem_del_user"><ellipse cx="232.3631" cy="565.219" fill="#F1F1F1" rx="63.8631" ry="15.609" style="stroke:#181818;stroke-width:0.5;"/><text fill="#000000" font-family="sans-serif" font-size="14" lengthAdjust="spacing" textLength="73" x="192.8631" y="569.7356">Delete user</text></g><g id="elem_view_tasks"><ellipse cx="232.6908" cy="631.1828" fill="#F1F1F1" rx="58.6908" ry="15.5728" style="stroke:#181818;stroke-width:0.5;"/><text fill="#000000" font-family="sans-serif" font-size="14" lengthAdjust="spacing" textLength="66" x="196.6908" y="635.6994">View tasks</text></g><g id="elem_add_task"><ellipse cx="232.5646" cy="697.1112" fill="#F1F1F1" rx="50.5646" ry="15.5012" style="stroke:#181818;stroke-width:0.5;"/><text fill="#000000" font-family="sans-serif" font-size="14" lengthAdjust="spacing" textLength="55" x="202.0737" y="701.6258">Add task</text></g><!--entity u--><g id="elem_u"><ellipse cx="47.5" cy="226.61" fill="#F1F1F1" rx="8" ry="8" style="stroke:#181818;stroke-width:0.5;"/><path d="M47.5,234.61 L47.5,261.61 M34.5,242.61 L60.5,242.61 M47.5,261.61 L34.5,276.61 M47.5,261.61 L60.5,276.61 " fill="none" style="stroke:#181818;stroke-width:0.5;"/><text fill="#000000" font-family="sans-serif" font-size="14" lengthAdjust="spacing" textLength="29" x="33" y="292.6432">User</text></g><!--entity a--><g id="elem_a"><ellipse cx="47.5" cy="734.61" fill="#F1F1F1" rx="8" ry="8" style="stroke:#181818;stroke-width:0.5;"/><path d="M47.5,742.61 L47.5,769.61 M34.5,750.61 L60.5,750.61 M47.5,769.61 L34.5,784.61 M47.5,769.61 L60.5,784.61 " fill="none" style="stroke:#181818;stroke-width:0.5;"/><text fill="#000000" font-family="sans-serif" font-size="14" lengthAdjust="spacing" textLength="83" x="6" y="800.6432">Administrator</text></g><!--link u to register--><g id="link_u_register"><path d="M53.59,296.18 C61.56,342.01 81.26,417.37 128,462.11 C139.14,472.77 153.65,480.19 168.26,485.36 " fill="none" id="u-to-register" style="stroke:#181818;stroke-width:1.0;"/><polygon fill="#181818" points="173.21,487.02,165.9608,480.353,168.4723,485.4217,163.4036,487.9333,173.21,487.02" style="stroke:#181818;stroke-width:1.0;"/></g><!--link u to sign_in--><g id="link_u_sign_in"><path d="M62.25,241.43 C77.05,225.46 101.97,200.97 128,186.11 C147.33,175.07 170.83,167.2 190.55,161.92 " fill="none" id="u-to-sign_in" style="stroke:#181818;stroke-width:1.0;"/><polygon fill="#181818" points="195.47,160.63,185.7493,159.0465,190.6339,161.8997,187.7807,166.7843,195.47,160.63" style="stroke:#181818;stroke-width:1.0;"/></g><!--link u to chg_pass--><g id="link_u_chg_pass"><path d="M52.84,218.01 C60.04,173.99 78.95,104.42 128,72.11 C228.37,6 285.93,43.7 398,87.11 C428.35,98.86 459.36,119.51 480.51,135.16 " fill="none" id="u-to-chg_pass" style="stroke:#181818;stroke-width:1.0;"/><polygon fill="#181818" points="484.6,138.22,479.7853,129.6282,480.5949,135.2268,474.9963,136.0364,484.6,138.22" style="stroke:#181818;stroke-width:1.0;"/></g><!--link u to browse_cat--><g id="link_u_browse_cat"><path d="M62.25,254.48 C83.97,250.33 127.6,241.98 165.11,234.81 " fill="none" id="u-to-browse_cat" style="stroke:#181818;stroke-width:1.0;"/><polygon fill="#181818" points="170.13,233.85,160.5375,231.6175,165.2196,234.7921,162.0449,239.4742,170.13,233.85" style="stroke:#181818;stroke-width:1.0;"/></g><!--link u to view_cat--><g id="link_u_view_cat"><path d="M62.25,259.74 C85.4,264.17 133.44,273.36 172.45,280.82 " fill="none" id="u-to-view_cat" style="stroke:#181818;stroke-width:1.0;"/><polygon fill="#181818" points="177.64,281.81,169.5549,276.1858,172.7296,280.8679,168.0475,284.0425,177.64,281.81" style="stroke:#181818;stroke-width:1.0;"/></g><!--link u to view_task--><g id="link_u_view_task"><path d="M62.07,272.04 C76.9,287.54 102.03,311.52 128,326.11 C145.36,335.86 166,343.18 184.27,348.42 " fill="none" id="u-to-view_task" style="stroke:#181818;stroke-width:1.0;"/><polygon fill="#181818" points="189.36,349.84,181.7656,343.569,184.5438,348.4966,179.6162,351.2748,189.36,349.84" style="stroke:#181818;stroke-width:1.0;"/></g><!--link u to solve_challenge--><g id="link_u_solve_challenge"><path d="M59.27,217.98 C70.54,185.36 91.78,140.97 128,120.11 C232.05,60.19 300,59.75 398,129.11 C423.31,147.03 405.77,170.48 428,192.11 C436.11,200 446.3,206.28 456.64,211.22 " fill="none" id="u-to-solve_challenge" style="stroke:#181818;stroke-width:1.0;"/><polygon fill="#181818" points="461.4,213.39,454.8898,205.9996,456.856,211.3038,451.5519,213.27,461.4,213.39" style="stroke:#181818;stroke-width:1.0;"/></g><!--link u to answer--><g id="link_u_answer"><path d="M62.07,294.75 C74.78,325.01 96.55,366.55 128,392.11 C139.97,401.84 154.78,408.91 169.41,414.05 " fill="none" id="u-to-answer" style="stroke:#181818;stroke-width:1.0;"/><polygon fill="#181818" points="174.36,415.71,167.0928,409.0626,169.618,414.1246,164.5561,416.6498,174.36,415.71" style="stroke:#181818;stroke-width:1.0;"/></g><!--link sign_in to chg_pass--><g id="link_sign_in_chg_pass"><path d="M274.74,153.56 C313.84,153.99 373.74,154.65 422.92,155.19 " fill="none" id="sign_in-to-chg_pass" style="stroke:#181818;stroke-width:1.0;stroke-dasharray:7.0,7.0;"/><polygon fill="#181818" points="427.95,155.24,418.9963,151.1374,422.9503,155.1829,418.9049,159.1369,427.95,155.24" style="stroke:#181818;stroke-width:1.0;"/><text fill="#000000" font-family="sans-serif" font-size="13" lengthAdjust="spacing" textLength="53" x="344" y="151.6051">precedes</text></g><!--link sign_in to solve_challenge--><g id="link_sign_in_solve_challenge"><path d="M266.76,162.11 C313.19,174.67 397.96,197.61 453.38,212.6 " fill="none" id="sign_in-to-solve_challenge" style="stroke:#181818;stroke-width:1.0;stroke-dasharray:7.0,7.0;"/><polygon fill="#181818" points="458.31,213.94,450.6594,207.7378,453.4819,212.6401,448.5796,215.4627,458.31,213.94" style="stroke:#181818;stroke-width:1.0;"/><text fill="#000000" font-family="sans-serif" font-size="13" lengthAdjust="spacing" textLength="53" x="344" y="180.6051">precedes</text></g><!--reverse link answer to solve_challenge--><g id="link_answer_solve_challenge"><path d="M278.09,410.19 C289.8,405.03 302.17,398.9 313,392.11 C384.94,347.03 458.09,276.76 490.18,244.44 " fill="none" id="answer-backto-solve_challenge" style="stroke:#181818;stroke-width:1.0;stroke-dasharray:7.0,7.0;"/><polygon fill="#181818" points="273.47,412.19,283.3184,412.2843,278.0583,410.2032,280.1395,404.9431,273.47,412.19" style="stroke:#181818;stroke-width:1.0;"/><text fill="#000000" font-family="sans-serif" font-size="13" lengthAdjust="spacing" textLength="53" x="344" y="326.6051">precedes</text></g><!--link a to add_category--><g id="link_a_add_category"><path d="M89.11,765.11 C107.73,765.11 130.47,765.11 152.27,765.11 " fill="none" id="a-to-add_category" style="stroke:#181818;stroke-width:1.0;"/><polygon fill="#181818" points="157.49,765.11,148.49,761.11,152.49,765.11,148.49,769.11,157.49,765.11" style="stroke:#181818;stroke-width:1.0;"/></g><!--link a to edit_category--><g id="link_a_edit_category"><path d="M89.04,783.86 C101.44,789.36 115.19,795.2 128,800.11 C146.4,807.16 166.97,814.11 184.9,819.86 " fill="none" id="a-to-edit_category" style="stroke:#181818;stroke-width:1.0;"/><polygon fill="#181818" points="189.88,821.46,182.5351,814.8985,185.1197,819.9304,180.0878,822.515,189.88,821.46" style="stroke:#181818;stroke-width:1.0;"/></g><!--link a to view_users--><g id="link_a_view_users"><path d="M70.49,804.17 C84.44,825.77 104.32,851.52 128,868.11 C142.77,878.46 160.94,885.68 177.92,890.66 " fill="none" id="a-to-view_users" style="stroke:#181818;stroke-width:1.0;"/><polygon fill="#181818" points="183.14,892.14,175.5678,885.8422,178.3286,890.7796,173.3912,893.5405,183.14,892.14" style="stroke:#181818;stroke-width:1.0;"/></g><!--link a to chg_role--><g id="link_a_chg_role"><path d="M57.49,804.3 C68.16,842.42 89.56,899.51 128,934.11 C139.18,944.17 153.33,951.45 167.54,956.71 " fill="none" id="a-to-chg_role" style="stroke:#181818;stroke-width:1.0;"/><polygon fill="#181818" points="172.36,958.42,165.214,951.6425,167.6474,956.7492,162.5407,959.1826,172.36,958.42" style="stroke:#181818;stroke-width:1.0;"/></g><!--link a to del_user--><g id="link_a_del_user"><path d="M57.52,725.81 C68.18,687.97 89.53,631.68 128,598.11 C140.68,587.04 157.11,579.68 173.12,574.78 " fill="none" id="a-to-del_user" style="stroke:#181818;stroke-width:1.0;"/><polygon fill="#181818" points="178.07,573.34,168.31,572.02,173.27,574.74,170.55,579.7,178.07,573.34" style="stroke:#181818;stroke-width:1.0;"/></g><!--link a to view_tasks--><g id="link_a_view_tasks"><path d="M71.31,725.82 C85.27,704.85 104.89,680.13 128,664.11 C143.23,653.55 162.02,646.23 179.39,641.23 " fill="none" id="a-to-view_tasks" style="stroke:#181818;stroke-width:1.0;"/><polygon fill="#181818" points="184.24,639.88,174.5002,638.4183,179.4202,641.2101,176.6284,646.1301,184.24,639.88" style="stroke:#181818;stroke-width:1.0;"/></g><!--link a to add_task--><g id="link_a_add_task"><path d="M89.01,746.29 C101.41,740.79 115.16,734.97 128,730.11 C148.15,722.48 170.94,715.09 189.98,709.24 " fill="none" id="a-to-add_task" style="stroke:#181818;stroke-width:1.0;"/><polygon fill="#181818" points="195.25,707.64,185.4751,706.4349,190.4668,709.0964,187.8053,714.088,195.25,707.64" style="stroke:#181818;stroke-width:1.0;"/></g><!--SRC=[VPFTJiCm38MloLDOkzyU026ayVC426uhavWkeYGZJbS1ujrnahLDjuchzPnyjUFZhgEt2D53iEqkWh61TBJUAOKw-W3FJ06GeJ_ghVcmpd8Cc9GSe59xrE_O4bZt3J_ggcVIo0Ih-q0O2L1htxkuIdIWLbwcK55FjdNoQZvcUMwigsliq4dfFJ8FFfXCwLtR9AF2xe8Vv5TBlzO7Ivp1r-msubReYwLX1ByoTX3d4XIHtsSWgVhQlZj8mnrs7SaDo_MJrqnUHMyT3nBaPq-SqiqqPa-T1xQu71hJZ4Q5FXeRbo29SudCeuWAFC-IvNdAoORWEvfYJgBY7gYZMBYC6EfohKl9yJAwkjtMc3dSD63EzbUf7jRhs_aZANByA8gQbbzajU9YJCkiP2v_B7QoekAEgpYsWatL2AvXBtyACiIByvDADLRAmSrwyn-biFIk5roivIfn7gJi3QSWydgAd5Q1oxcvQfDp-0C0]--></g></svg>